Giphurs-Thin.ufo
<glyph name="numbersign" format="2">
  <advance width="1432"/>
  <unicode hex="0023"/>
  <outline>
    <contour>
      <point x="180" y="500" type="line"/>
      <point x="180" y="540" type="line"/>
      <point x="1218" y="540" type="line"/>
      <point x="1218" y="500" type="line"/>
    </contour>
    <contour>
      <point x="214" y="940" type="line"/>
      <point x="214" y="980" type="line"/>
      <point x="1252" y="980" type="line"/>
      <point x="1252" y="940" type="line"/>
    </contour>
    <contour>
      <point x="985" y="1480" type="line"/>
      <point x="1026" y="1480" type="line"/>
      <point x="856" y="0" type="line"/>
      <point x="806" y="0"/>
      <point x="864" y="0"/>
      <point x="814" y="0" type="curve"/>
    </contour>
    <contour>
      <point x="576" y="1480" type="line"/>
      <point x="618" y="1480" type="line"/>
      <point x="447" y="0" type="line"/>
      <point x="397" y="0"/>
      <point x="456" y="0"/>
      <point x="406" y="0" type="curve"/>
    </contour>
  </outline>
</glyph>
<glyph name="ampersand" format="2">
  <advance width="1435"/>
  <unicode hex="0026"/>
  <outline>
    <contour>
      <point x="449" y="875" type="line"/>
      <point x="397" y="937"/>
      <point x="322" y="1032"/>
      <point x="322" y="1138" type="curve" smooth="yes"/>
      <point x="322" y="1357"/>
      <point x="463" y="1490"/>
      <point x="649" y="1490" type="curve" smooth="yes"/>
      <point x="835" y="1490"/>
      <point x="977" y="1372"/>
      <point x="977" y="1172" type="curve" smooth="yes"/>
      <point x="932" y="1172" type="line" smooth="yes"/>
      <point x="932" y="1402"/>
      <point x="755" y="1450"/>
      <point x="649" y="1450" type="curve" smooth="yes"/>
      <point x="554" y="1450"/>
      <point x="367" y="1398"/>
      <point x="367" y="1138" type="curve" smooth="yes"/>
      <point x="367" y="1068"/>
      <point x="401" y="995"/>
      <point x="478" y="903" type="curve"/>
      <point x="1226" y="0" type="line"/>
      <point x="1194" y="0"/>
      <point x="1204" y="0"/>
      <point x="1172" y="0" type="curve"/>
    </contour>
    <contour>
      <point x="249" y="378" type="curve"/>
      <point x="249" y="142"/>
      <point x="432" y="32"/>
      <point x="649" y="32" type="curve" smooth="yes"/>
      <point x="859" y="32"/>
      <point x="1123" y="163"/>
      <point x="1123" y="586" type="curve" smooth="yes"/>
      <point x="1169" y="573" type="line"/>
      <point x="1169" y="185"/>
      <point x="910" y="-10"/>
      <point x="649" y="-10" type="curve" smooth="yes"/>
      <point x="385" y="-10"/>
      <point x="209" y="135"/>
      <point x="209" y="378" type="curve" smooth="yes"/>
      <point x="209" y="621"/>
      <point x="389" y="708"/>
      <point x="649" y="858" type="curve" smooth="yes"/>
      <point x="792" y="940"/>
      <point x="932" y="1022"/>
      <point x="932" y="1172" type="curve"/>
      <point x="977" y="1172" type="line"/>
      <point x="977" y="1012"/>
      <point x="831" y="913"/>
      <point x="649" y="808" type="curve" smooth="yes"/>
      <point x="407" y="668"/>
      <point x="249" y="601"/>
    </contour>
  </outline>
</glyph>
<glyph name="comma" format="2">
  <advance width="523"/>
  <unicode hex="002C"/>
  <outline>
    <contour>
      <point x="180" y="54" type="curve" smooth="yes"/>
      <point x="180" y="90"/>
      <point x="208" y="118"/>
      <point x="244" y="118" type="curve" smooth="yes"/>
      <point x="280" y="118"/>
      <point x="308" y="90"/>
      <point x="308" y="54" type="curve" smooth="yes"/>
      <point x="308" y="18"/>
      <point x="280" y="-10"/>
      <point x="244" y="-10" type="curve" smooth="yes"/>
      <point x="208" y="-10"/>
      <point x="180" y="18"/>
    </contour>
    <contour>
      <point x="180" y="-204" type="line"/>
      <point x="230" y="-191"/>
      <point x="297" y="-130"/>
      <point x="297" y="-40" type="curve" smooth="yes"/>
      <point x="297" y="40"/>
      <point x="244" y="73"/>
      <point x="244" y="73" type="curve"/>
      <point x="244" y="118" type="line"/>
      <point x="306" y="118"/>
      <point x="343" y="40"/>
      <point x="343" y="-40" type="curve" smooth="yes"/>
      <point x="343" y="-150"/>
      <point x="260" y="-226"/>
      <point x="192" y="-246" type="curve"/>
    </contour>
  </outline>
</glyph>
<glyph name="slash" format="2">
  <advance width="862"/>
  <unicode hex="002F"/>
  <outline>
    <contour>
      <point x="772" y="1640" type="line"/>
      <point x="138" y="-200" type="line"/>
      <point x="90" y="-200" type="line"/>
      <point x="724" y="1640" type="line"/>
    </contour>
  </outline>
</glyph>
<glyph name="greater" format="2">
  <advance width="1198"/>
  <unicode hex="003E"/>
  <outline>
    <contour>
      <point x="1018" y="637" type="line"/>
      <point x="180" y="258" type="line"/>
      <point x="180" y="301" type="line"/>
      <point x="978" y="660" type="line"/>
      <point x="180" y="1019" type="line"/>
      <point x="180" y="1062" type="line"/>
      <point x="1018" y="683" type="line"/>
    </contour>
  </outline>
</glyph>
<glyph name="D" format="2">
  <advance width="1322"/>
  <unicode hex="0044"/>
  <anchor x="640" y="1380" name="top_center"/>
  <anchor x="640" y="0" name="bottom_center"/>
  <anchor x="556" y="-20" name="bottom_cedilla"/>
  <outline>
    <contour>
      <point x="226" y="1438" type="line"/>
      <point x="226" y="42" type="line"/>
      <point x="596" y="42" type="line"/>
      <point x="834" y="42"/>
      <point x="1136" y="240"/>
      <point x="1136" y="740" type="curve" smooth="yes"/>
      <point x="1136" y="1240"/>
      <point x="834" y="1438"/>
      <point x="596" y="1438" type="curve"/>
    </contour>
    <contour>
      <point x="596" y="0" type="curve"/>
      <point x="347" y="0" type="line"/>
      <point x="180" y="0" type="line"/>
      <point x="180" y="1480" type="line"/>
      <point x="596" y="1480" type="line"/>
      <point x="930" y="1480"/>
      <point x="1182" y="1190"/>
      <point x="1182" y="740" type="curve" smooth="yes"/>
      <point x="1182" y="290"/>
      <point x="930" y="0"/>
    </contour>
  </outline>
</glyph>
<glyph name="E" format="2">
  <advance width="1176"/>
  <unicode hex="0045"/>
  <anchor x="588" y="1380" name="top_center"/>
  <anchor x="588" y="0" name="bottom_center"/>
  <anchor x="996" y="0" name="bottom_right"/>
  <anchor x="180" y="1480" name="top_left"/>
  <anchor x="588" y="-20" name="bottom_cedilla"/>
  <outline>
    <contour>
      <point x="913" y="761" type="line"/>
      <point x="913" y="719" type="line"/>
      <point x="226" y="719" type="line"/>
      <point x="226" y="42" type="line"/>
      <point x="996" y="42" type="line"/>
      <point x="996" y="0" type="line"/>
      <point x="180" y="0" type="line"/>
      <point x="180" y="1480" type="line"/>
      <point x="996" y="1480" type="line"/>
      <point x="996" y="1438" type="line"/>
      <point x="226" y="1438" type="line"/>
      <point x="226" y="761" type="line"/>
    </contour>
  </outline>
</glyph>
<glyph name="I" format="2">
  <advance width="822"/>
  <unicode hex="0049"/>
  <anchor x="180" y="1480" name="top_left"/>
  <anchor x="435" y="0" name="bottom_right"/>
  <anchor x="411" y="0" name="bottom_center"/>
  <anchor x="411" y="1380" name="top_center"/>
  <outline>
    <contour>
      <point x="180" y="1480" type="line"/>
      <point x="642" y="1480" type="line"/>
      <point x="642" y="1438" type="line"/>
      <point x="435" y="1438" type="line"/>
      <point x="435" y="42" type="line"/>
      <point x="642" y="42" type="line"/>
      <point x="642" y="0" type="line"/>
      <point x="180" y="0" type="line"/>
      <point x="180" y="42" type="line"/>
      <point x="387" y="42" type="line"/>
      <point x="387" y="1438" type="line"/>
      <point x="180" y="1438" type="line"/>
    </contour>
  </outline>
</glyph>
<glyph name="P" format="2">
  <advance width="1154"/>
  <unicode hex="0050"/>
  <anchor x="180" y="1480" name="top_left"/>
  <anchor x="203" y="0" name="bottom_center"/>
  <anchor x="583" y="1380" name="top_center"/>
  <outline>
    <contour>
      <point x="226" y="1438" type="line"/>
      <point x="226" y="676" type="line"/>
      <point x="595" y="676" type="line"/>
      <point x="820" y="676"/>
      <point x="968" y="857"/>
      <point x="968" y="1057" type="curve" smooth="yes"/>
      <point x="968" y="1257"/>
      <point x="820" y="1438"/>
      <point x="595" y="1438" type="curve"/>
    </contour>
    <contour>
      <point x="180" y="0" type="line"/>
      <point x="180" y="1480" type="line"/>
      <point x="595" y="1480" type="line"/>
      <point x="819" y="1480"/>
      <point x="1014" y="1312"/>
      <point x="1014" y="1057" type="curve" smooth="yes"/>
      <point x="1014" y="802"/>
      <point x="819" y="634"/>
      <point x="595" y="634" type="curve"/>
      <point x="226" y="634" type="line"/>
      <point x="226" y="0" type="line"/>
    </contour>
  </outline>
</glyph>
<glyph name="X" format="2">
  <advance width="1342"/>
  <unicode hex="0058"/>
  <anchor x="671" y="0" name="bottom_center"/>
  <anchor x="671" y="1380" name="top_center"/>
  <outline>
    <contour>
      <point x="669" y="697" type="line"/>
      <point x="174" y="0" type="line"/>
      <point x="120" y="0" type="line"/>
      <point x="642" y="740" type="line"/>
      <point x="120" y="1480" type="line"/>
      <point x="174" y="1480" type="line"/>
      <point x="671" y="778" type="line"/>
      <point x="1168" y="1480" type="line"/>
      <point x="1222" y="1480" type="line"/>
      <point x="700" y="740" type="line"/>
      <point x="1222" y="0" type="line"/>
      <point x="1168" y="0" type="line"/>
    </contour>
  </outline>
</glyph>
<glyph name="bracketleft" format="2">
  <advance width="840"/>
  <unicode hex="005B"/>
  <outline>
    <contour>
      <point x="750" y="1600" type="line"/>
      <point x="225" y="1600" type="line"/>
      <point x="225" y="-280" type="line"/>
      <point x="750" y="-280" type="line"/>
      <point x="750" y="-320" type="line"/>
      <point x="180" y="-320" type="line"/>
      <point x="180" y="1640" type="line"/>
      <point x="750" y="1640" type="line"/>
    </contour>
  </outline>
</glyph>
<glyph name="bracketright" format="2">
  <advance width="840"/>
  <unicode hex="005D"/>
  <outline>
    <contour>
      <point x="90" y="1600" type="line"/>
      <point x="90" y="1640" type="line"/>
      <point x="660" y="1640" type="line"/>
      <point x="660" y="-320" type="line"/>
      <point x="90" y="-320" type="line"/>
      <point x="90" y="-280" type="line"/>
      <point x="615" y="-280" type="line"/>
      <point x="615" y="1600" type="line"/>
    </contour>
  </outline>
</glyph>
<glyph name="m" format="2">
  <advance width="1694"/>
  <unicode hex="006D"/>
  <anchor x="847" y="1040" name="top_center"/>
  <anchor x="847" y="0" name="bottom_center"/>
  <outline>
    <contour>
      <point x="824" y="0" type="line"/>
      <point x="824" y="572" type="line" smooth="yes"/>
      <point x="824" y="791"/>
      <point x="764" y="1010"/>
      <point x="524" y="1010" type="curve" smooth="yes"/>
      <point x="284" y="1010"/>
      <point x="224" y="791"/>
      <point x="224" y="572" type="curve" smooth="yes"/>
      <point x="224" y="0" type="line"/>
      <point x="180" y="0" type="line"/>
      <point x="180" y="1040" type="line"/>
      <point x="224" y="1040" type="line"/>
      <point x="224" y="820" type="line"/>
      <point x="251" y="927"/>
      <point x="324" y="1050"/>
      <point x="534" y="1050" type="curve" smooth="yes"/>
      <point x="700" y="1050"/>
      <point x="814" y="951"/>
      <point x="854" y="751" type="curve"/>
      <point x="888" y="950"/>
      <point x="981" y="1050"/>
      <point x="1180" y="1050" type="curve" smooth="yes"/>
      <point x="1390" y="1050"/>
      <point x="1514" y="892"/>
      <point x="1514" y="572" type="curve" smooth="yes"/>
      <point x="1514" y="0" type="line"/>
      <point x="1470" y="0" type="line"/>
      <point x="1470" y="572" type="line" smooth="yes"/>
      <point x="1470" y="791"/>
      <point x="1400" y="1010"/>
      <point x="1160" y="1010" type="curve" smooth="yes"/>
      <point x="940" y="1010"/>
      <point x="870" y="791"/>
      <point x="870" y="572" type="curve" smooth="yes"/>
      <point x="870" y="0" type="line"/>
    </contour>
  </outline>
</glyph>
<glyph name="s" format="2">
  <advance width="1002"/>
  <unicode hex="0073"/>
  <anchor x="613" y="0" name="bottom_right"/>
  <anchor x="505" y="0" name="bottom_center"/>
  <anchor x="505" y="1040" name="top_center"/>
  <outline>
    <contour>
      <point x="505" y="1050" type="curve" smooth="yes"/>
      <point x="698" y="1050"/>
      <point x="810" y="953"/>
      <point x="844" y="808" type="curve"/>
      <point x="806" y="786" type="line"/>
      <point x="763" y="964"/>
      <point x="621" y="1010"/>
      <point x="505" y="1010" type="curve" smooth="yes"/>
      <point x="389" y="1010"/>
      <point x="220" y="950"/>
      <point x="220" y="780" type="curve" smooth="yes"/>
      <point x="220" y="600"/>
      <point x="377" y="580"/>
      <point x="505" y="546" type="curve" smooth="yes"/>
      <point x="711" y="492"/>
      <point x="862" y="457"/>
      <point x="862" y="261" type="curve" smooth="yes"/>
      <point x="862" y="85"/>
      <point x="707" y="-10"/>
      <point x="505" y="-10" type="curve" smooth="yes"/>
      <point x="303" y="-10"/>
      <point x="174" y="108"/>
      <point x="140" y="253" type="curve"/>
      <point x="178" y="275" type="line"/>
      <point x="218" y="105"/>
      <point x="373" y="30"/>
      <point x="505" y="30" type="curve" smooth="yes"/>
      <point x="637" y="30"/>
      <point x="817" y="91"/>
      <point x="817" y="261" type="curve" smooth="yes"/>
      <point x="817" y="441"/>
      <point x="633" y="466"/>
      <point x="505" y="500" type="curve" smooth="yes"/>
      <point x="299" y="554"/>
      <point x="175" y="595"/>
      <point x="175" y="780" type="curve" smooth="yes"/>
      <point x="175" y="935"/>
      <point x="312" y="1050"/>
    </contour>
  </outline>
</glyph>
<glyph name="w" format="2">
  <advance width="1516"/>
  <unicode hex="0077"/>
  <anchor x="758" y="1040" name="top_center"/>
  <anchor x="758" y="0" name="bottom_center"/>
  <outline>
    <contour>
      <point x="428" y="0" type="line"/>
      <point x="120" y="1040" type="line"/>
      <point x="168" y="1040" type="line"/>
      <point x="451" y="89" type="line"/>
      <point x="734" y="1040" type="line"/>
      <point x="782" y="1040" type="line"/>
      <point x="1065" y="89" type="line"/>
      <point x="1348" y="1040" type="line"/>
      <point x="1396" y="1040" type="line"/>
      <point x="1088" y="0" type="line"/>
      <point x="1042" y="0" type="line"/>
      <point x="757" y="960" type="line"/>
      <point x="474" y="0" type="line"/>
    </contour>
  </outline>
</glyph>
<glyph name="bar" format="2">
  <advance width="404"/>
  <unicode hex="007C"/>
  <outline>
    <contour>
      <point x="224" y="1640" type="line"/>
      <point x="224" y="-440" type="line"/>
      <point x="180" y="-440" type="line"/>
      <point x="180" y="1640" type="line"/>
    </contour>
  </outline>
</glyph>
<glyph name="dieresis" format="2">
  <advance width="688"/>
  <unicode hex="00A8"/>
  <outline>
    <contour>
      <point x="440" y="1318" type="curve" smooth="yes"/>
      <point x="440" y="1354"/>
      <point x="468" y="1382"/>
      <point x="504" y="1382" type="curve" smooth="yes"/>
      <point x="540" y="1382"/>
      <point x="568" y="1354"/>
      <point x="568" y="1318" type="curve" smooth="yes"/>
      <point x="568" y="1282"/>
      <point x="540" y="1254"/>
      <point x="504" y="1254" type="curve" smooth="yes"/>
      <point x="468" y="1254"/>
      <point x="440" y="1282"/>
    </contour>
    <contour>
      <point x="120" y="1318" type="curve" smooth="yes"/>
      <point x="120" y="1354"/>
      <point x="148" y="1382"/>
      <point x="184" y="1382" type="curve" smooth="yes"/>
      <point x="220" y="1382"/>
      <point x="248" y="1354"/>
      <point x="248" y="1318" type="curve" smooth="yes"/>
      <point x="248" y="1282"/>
      <point x="220" y="1254"/>
      <point x="184" y="1254" type="curve" smooth="yes"/>
      <point x="148" y="1254"/>
      <point x="120" y="1282"/>
    </contour>
  </outline>
</glyph>
<glyph name="plusminus" format="2">
  <advance width="1198"/>
  <unicode hex="00B1"/>
  <outline>
    <contour>
      <point x="180" y="0" type="line"/>
      <point x="1018" y="0" type="line"/>
      <point x="1018" y="-40" type="line"/>
      <point x="180" y="-40" type="line"/>
    </contour>
    <contour>
      <point x="577" y="1079" type="line"/>
      <point x="577" y="241" type="line"/>
      <point x="621" y="241" type="line"/>
      <point x="621" y="1079" type="line"/>
    </contour>
    <contour>
      <point x="180" y="640" type="line"/>
      <point x="1018" y="640" type="line"/>
      <point x="1018" y="680" type="line"/>
      <point x="180" y="680" type="line"/>
    </contour>
  </outline>
</glyph>
<glyph name="acute" format="2">
  <advance width="482"/>
  <unicode hex="00B4"/>
  <anchor x="549" y="1480" name="_top_left"/>
  <anchor x="372" y="1224" name="_top_left_O2"/>
  <anchor x="142" y="1140" name="_dieresis_center"/>
  <anchor x="142" y="1040" name="_top_center"/>
  <outline>
    <contour>
      <point x="164" y="1224" type="line"/>
      <point x="120" y="1224" type="line"/>
      <point x="306" y="1480" type="line"/>
      <point x="362" y="1480" type="line"/>
    </contour>
  </outline>
</glyph>
<glyph name="paragraph" format="2">
  <advance width="1173"/>
  <unicode hex="00B6"/>
  <outline>
    <contour>
      <point x="1033" y="1490" type="line"/>
      <point x="597" y="1490" type="line"/>
      <point x="597" y="1450" type="line"/>
      <point x="1033" y="1450" type="line"/>
    </contour>
    <contour>
      <point x="828" y="1469" type="line"/>
      <point x="828" y="-440" type="line"/>
      <point x="873" y="-440" type="line"/>
      <point x="873" y="1469" type="line"/>
    </contour>
    <contour>
      <point x="575" y="1470" type="line"/>
      <point x="575" y="-440" type="line"/>
      <point x="620" y="-440" type="line"/>
      <point x="620" y="1470" type="line"/>
      <point x="609" y="1470" type="line"/>
    </contour>
    <contour>
      <point x="140" y="1048" type="curve" smooth="yes"/>
      <point x="140" y="778"/>
      <point x="327" y="616"/>
      <point x="597" y="616" type="curve" smooth="yes"/>
      <point x="597" y="1490" type="line" smooth="yes"/>
      <point x="327" y="1490"/>
      <point x="140" y="1318"/>
    </contour>
  </outline>
</glyph>
<glyph name="onehalf" format="2">
  <advance width="1778"/>
  <unicode hex="00BD"/>
  <outline>
    <contour>
      <point x="1109" y="0" type="line"/>
      <point x="1109" y="67"/>
      <point x="1111" y="177"/>
      <point x="1365" y="322" type="curve" smooth="yes"/>
      <point x="1528" y="415"/>
      <point x="1590" y="481"/>
      <point x="1590" y="606" type="curve" smooth="yes"/>
      <point x="1590" y="745"/>
      <point x="1501" y="834"/>
      <point x="1368" y="834" type="curve" smooth="yes"/>
      <point x="1232" y="834"/>
      <point x="1146" y="723"/>
      <point x="1146" y="572" type="curve" smooth="yes"/>
      <point x="1146" y="570"/>
      <point x="1146" y="568"/>
      <point x="1147" y="564" type="curve"/>
      <point x="1113" y="572" type="line"/>
      <point x="1113" y="751"/>
      <point x="1222" y="864"/>
      <point x="1368" y="864" type="curve" smooth="yes"/>
      <point x="1514" y="864"/>
      <point x="1623" y="772"/>
      <point x="1623" y="606" type="curve" smooth="yes"/>
      <point x="1623" y="444"/>
      <point x="1500" y="363"/>
      <point x="1370" y="289" type="curve" smooth="yes"/>
      <point x="1251" y="221"/>
      <point x="1157" y="146"/>
      <point x="1143" y="30" type="curve"/>
      <point x="1628" y="30" type="line"/>
      <point x="1628" y="0" type="line"/>
      <point x="1141" y="0" type="line"/>
      <point x="1118" y="0" type="line"/>
    </contour>
    <contour>
      <point x="409" y="1242" type="line"/>
      <point x="215" y="1242" type="line"/>
      <point x="215" y="1273" type="line"/>
      <point x="299" y="1273" type="line" smooth="yes"/>
      <point x="396" y="1273"/>
      <point x="409" y="1290"/>
      <point x="409" y="1396" type="curve" smooth="yes"/>
      <point x="409" y="1480" type="line"/>
      <point x="443" y="1480" type="line"/>
      <point x="443" y="1225" type="line"/>
      <point x="443" y="622" type="line"/>
      <point x="409" y="622" type="line"/>
    </contour>
    <contour>
      <point x="550" y="121" type="line"/>
      <point x="522" y="137" type="line"/>
      <point x="1228" y="1359" type="line"/>
      <point x="1256" y="1343" type="line"/>
    </contour>
  </outline>
</glyph>
<glyph name="Eth" format="2">
  <advance width="1352"/>
  <unicode hex="00D0"/>
  <outline>
    <contour>
      <point x="590" y="719" type="line"/>
      <point x="590" y="761" type="line"/>
      <point x="0" y="761" type="line"/>
      <point x="0" y="715"/>
      <point x="0" y="765"/>
      <point x="0" y="719" type="curve"/>
    </contour>
    <contour>
      <point x="256" y="1438" type="line"/>
      <point x="626" y="1438" type="line"/>
      <point x="864" y="1438"/>
      <point x="1166" y="1240"/>
      <point x="1166" y="740" type="curve" smooth="yes"/>
      <point x="1166" y="240"/>
      <point x="864" y="42"/>
      <point x="626" y="42" type="curve"/>
      <point x="256" y="42" type="line"/>
    </contour>
    <contour>
      <point x="626" y="0" type="line"/>
      <point x="960" y="0"/>
      <point x="1212" y="290"/>
      <point x="1212" y="740" type="curve" smooth="yes"/>
      <point x="1212" y="1190"/>
      <point x="960" y="1480"/>
      <point x="626" y="1480" type="curve"/>
      <point x="210" y="1480" type="line"/>
      <point x="210" y="0" type="line"/>
      <point x="377" y="0" type="line"/>
    </contour>
  </outline>
</glyph>
<glyph name="germandbls" format="2">
  <advance width="1186"/>
  <unicode hex="00DF"/>
  <outline>
    <contour>
      <point x="629" y="30" type="curve" smooth="yes"/>
      <point x="585" y="30"/>
      <point x="490" y="37"/>
      <point x="447" y="59" type="curve"/>
      <point x="435" y="17" type="line"/>
      <point x="478" y="-4"/>
      <point x="577" y="-10"/>
      <point x="629" y="-10" type="curve" smooth="yes"/>
      <point x="892" y="-10"/>
      <point x="1046" y="136"/>
      <point x="1046" y="391" type="curve" smooth="yes"/>
      <point x="1046" y="646"/>
      <point x="846" y="792"/>
      <point x="582" y="792" type="curve" smooth="yes"/>
      <point x="582" y="752" type="line" smooth="yes"/>
      <point x="758" y="752"/>
      <point x="1001" y="657"/>
      <point x="1001" y="391" type="curve" smooth="yes"/>
      <point x="1001" y="125"/>
      <point x="805" y="30"/>
    </contour>
    <contour>
      <point x="225" y="1101" type="curve" smooth="yes"/>
      <point x="225" y="1341"/>
      <point x="393" y="1450"/>
      <point x="573" y="1450" type="curve" smooth="yes"/>
      <point x="753" y="1450"/>
      <point x="922" y="1341"/>
      <point x="922" y="1101" type="curve" smooth="yes"/>
      <point x="922" y="861"/>
      <point x="714" y="792"/>
      <point x="582" y="792" type="curve" smooth="yes"/>
      <point x="601" y="759" type="line" smooth="yes"/>
      <point x="783" y="759"/>
      <point x="967" y="866"/>
      <point x="967" y="1101" type="curve" smooth="yes"/>
      <point x="967" y="1356"/>
      <point x="797" y="1490"/>
      <point x="573" y="1490" type="curve" smooth="yes"/>
      <point x="349" y="1490"/>
      <point x="180" y="1356"/>
      <point x="180" y="1101" type="curve" smooth="yes"/>
      <point x="180" y="846"/>
      <point x="180" y="0"/>
      <point x="180" y="0" type="curve"/>
      <point x="225" y="0" type="line"/>
      <point x="225" y="0"/>
      <point x="225" y="943"/>
    </contour>
  </outline>
</glyph>
<glyph name="eng" format="2">
  <advance width="1130"/>
  <unicode hex="014B"/>
  <outline>
    <contour>
      <point x="950" y="-210" type="line" smooth="yes"/>
      <point x="950" y="-380"/>
      <point x="863" y="-450"/>
      <point x="713" y="-450" type="curve" smooth="yes"/>
      <point x="685" y="-450"/>
      <point x="655" y="-443"/>
      <point x="630" y="-426" type="curve"/>
      <point x="641" y="-384" type="line"/>
      <point x="672" y="-404"/>
      <point x="699" y="-410"/>
      <point x="713" y="-410" type="curve" smooth="yes"/>
      <point x="766" y="-410"/>
      <point x="905" y="-400"/>
      <point x="905" y="-210" type="curve" smooth="yes"/>
      <point x="905" y="0" type="line"/>
      <point x="950" y="0" type="line"/>
    </contour>
    <contour>
      <point x="905" y="572" type="line" smooth="yes"/>
      <point x="905" y="791"/>
      <point x="835" y="1010"/>
      <point x="565" y="1010" type="curve" smooth="yes"/>
      <point x="295" y="1010"/>
      <point x="225" y="791"/>
      <point x="225" y="572" type="curve" smooth="yes"/>
      <point x="225" y="0" type="line"/>
      <point x="180" y="0" type="line"/>
      <point x="180" y="1040" type="line"/>
      <point x="225" y="1040" type="line"/>
      <point x="225" y="820" type="line"/>
      <point x="262" y="927"/>
      <point x="345" y="1050"/>
      <point x="575" y="1050" type="curve" smooth="yes"/>
      <point x="813" y="1050"/>
      <point x="950" y="892"/>
      <point x="950" y="572" type="curve"/>
      <point x="950" y="0" type="line"/>
      <point x="905" y="0" type="line"/>
    </contour>
  </outline>
</glyph>
<glyph name="tcaron" format="2">
  <advance width="968"/>
  <unicode hex="0165"/>
  <outline>
    <contour>
      <point x="805" y="1426" type="curve" smooth="yes"/>
      <point x="805" y="1462"/>
      <point x="833" y="1490"/>
      <point x="869" y="1490" type="curve" smooth="yes"/>
      <point x="905" y="1490"/>
      <point x="933" y="1462"/>
      <point x="933" y="1426" type="curve" smooth="yes"/>
      <point x="933" y="1390"/>
      <point x="905" y="1362"/>
      <point x="869" y="1362" type="curve" smooth="yes"/>
      <point x="833" y="1362"/>
      <point x="805" y="1390"/>
    </contour>
    <contour>
      <point x="805" y="1168" type="line"/>
      <point x="855" y="1181"/>
      <point x="922" y="1242"/>
      <point x="922" y="1332" type="curve" smooth="yes"/>
      <point x="922" y="1412"/>
      <point x="869" y="1445"/>
      <point x="869" y="1445" type="curve"/>
      <point x="869" y="1490" type="line"/>
      <point x="931" y="1490"/>
      <point x="968" y="1412"/>
      <point x="968" y="1332" type="curve" smooth="yes"/>
      <point x="968" y="1222"/>
      <point x="885" y="1146"/>
      <point x="817" y="1126" type="curve"/>
    </contour>
    <contour>
      <point x="148" y="1040" type="line"/>
      <point x="298" y="1040"/>
      <point x="314" y="1056"/>
      <point x="314" y="1206" type="curve"/>
      <point x="314" y="1320" type="line"/>
      <point x="359" y="1320" type="line"/>
      <point x="359" y="1040" type="line"/>
      <point x="665" y="1040" type="line"/>
      <point x="665" y="1000" type="line"/>
      <point x="359" y="1000" type="line"/>
      <point x="359" y="300" type="line" smooth="yes"/>
      <point x="359" y="60"/>
      <point x="467" y="30"/>
      <point x="557" y="30" type="curve" smooth="yes"/>
      <point x="595" y="30"/>
      <point x="649" y="37"/>
      <point x="688" y="65" type="curve"/>
      <point x="702" y="22" type="line"/>
      <point x="662" y="4"/>
      <point x="606" y="-10"/>
      <point x="557" y="-10" type="curve" smooth="yes"/>
      <point x="381" y="-10"/>
      <point x="314" y="100"/>
      <point x="314" y="300" type="curve" smooth="yes"/>
      <point x="314" y="1000" type="line"/>
      <point x="70" y="1000" type="line"/>
      <point x="70" y="1010"/>
      <point x="70" y="1030"/>
      <point x="70" y="1040" type="curve"/>
    </contour>
  </outline>
</glyph>
<glyph name="longs" format="2">
  <advance width="638"/>
  <unicode hex="017F"/>
  <anchor x="202" y="0" name="bottom_center"/>
  <anchor x="344" y="1380" name="top_center"/>
  <outline>
    <contour>
      <point x="225" y="1040" type="line"/>
      <point x="225" y="1180" type="line" smooth="yes"/>
      <point x="225" y="1420"/>
      <point x="333" y="1450"/>
      <point x="423" y="1450" type="curve" smooth="yes"/>
      <point x="461" y="1450"/>
      <point x="515" y="1443"/>
      <point x="554" y="1415" type="curve"/>
      <point x="568" y="1458" type="line"/>
      <point x="528" y="1476"/>
      <point x="472" y="1490"/>
      <point x="423" y="1490" type="curve" smooth="yes"/>
      <point x="247" y="1490"/>
      <point x="180" y="1380"/>
      <point x="180" y="1180" type="curve" smooth="yes"/>
      <point x="180" y="1040" type="line"/>
      <point x="180" y="0" type="line"/>
      <point x="225" y="0" type="line"/>
    </contour>
  </outline>
</glyph>
<glyph name="florin" format="2">
  <advance width="772"/>
  <unicode hex="0192"/>
  <outline>
    <contour>
      <point x="37" y="-269" type="line"/>
      <point x="41" y="-270"/>
      <point x="45" y="-270"/>
      <point x="49" y="-270" type="curve" smooth="yes"/>
      <point x="204" y="-270"/>
      <point x="314" y="-155"/>
      <point x="314" y="0" type="curve" smooth="yes"/>
      <point x="359" y="0" type="line" smooth="yes"/>
      <point x="359" y="-178"/>
      <point x="227" y="-310"/>
      <point x="49" y="-310" type="curve" smooth="yes"/>
      <point x="45" y="-310"/>
      <point x="41" y="-310"/>
      <point x="37" y="-309" type="curve"/>
    </contour>
    <contour>
      <point x="688" y="1415" type="line"/>
      <point x="649" y="1443"/>
      <point x="595" y="1450"/>
      <point x="557" y="1450" type="curve" smooth="yes"/>
      <point x="467" y="1450"/>
      <point x="359" y="1420"/>
      <point x="359" y="1180" type="curve" smooth="yes"/>
      <point x="359" y="1040" type="line"/>
      <point x="665" y="1040" type="line"/>
      <point x="665" y="1000" type="line"/>
      <point x="359" y="1000" type="line"/>
      <point x="359" y="0" type="line"/>
      <point x="314" y="0" type="line"/>
      <point x="314" y="1000" type="line"/>
      <point x="70" y="1000" type="line"/>
      <point x="70" y="1040" type="line"/>
      <point x="314" y="1040" type="line"/>
      <point x="314" y="1180" type="line" smooth="yes"/>
      <point x="314" y="1380"/>
      <point x="381" y="1490"/>
      <point x="557" y="1490" type="curve" smooth="yes"/>
      <point x="606" y="1490"/>
      <point x="662" y="1476"/>
      <point x="702" y="1458" type="curve"/>
    </contour>
  </outline>
</glyph>
<glyph name="uni019C" format="2">
  <advance width="1710"/>
  <unicode hex="019C"/>
  <outline>
    <contour>
      <point x="1518" y="208" type="line"/>
      <point x="1518" y="110"/>
      <point x="1530" y="0"/>
      <point x="1530" y="0" type="curve"/>
      <point x="1484" y="0" type="line"/>
      <point x="1484" y="0"/>
      <point x="1472" y="110"/>
      <point x="1472" y="220" type="curve"/>
      <point x="1435" y="113"/>
      <point x="1382" y="-10"/>
      <point x="1162" y="-10" type="curve" smooth="yes"/>
      <point x="934" y="-10"/>
      <point x="826" y="148"/>
      <point x="826" y="468" type="curve"/>
      <point x="826" y="1480" type="line"/>
      <point x="872" y="1480" type="line"/>
      <point x="872" y="468" type="line" smooth="yes"/>
      <point x="872" y="249"/>
      <point x="922" y="32"/>
      <point x="1172" y="32" type="curve" smooth="yes"/>
      <point x="1422" y="32"/>
      <point x="1472" y="249"/>
      <point x="1472" y="468" type="curve" smooth="yes"/>
      <point x="1472" y="1480" type="line"/>
      <point x="1518" y="1480" type="line"/>
    </contour>
    <contour>
      <point x="872" y="468" type="line"/>
      <point x="872" y="148"/>
      <point x="744" y="-10"/>
      <point x="516" y="-10" type="curve" smooth="yes"/>
      <point x="288" y="-10"/>
      <point x="180" y="148"/>
      <point x="180" y="468" type="curve"/>
      <point x="180" y="1480" type="line"/>
      <point x="226" y="1480" type="line"/>
      <point x="226" y="468" type="line" smooth="yes"/>
      <point x="226" y="249"/>
      <point x="276" y="32"/>
      <point x="526" y="32" type="curve" smooth="yes"/>
      <point x="746" y="32"/>
      <point x="826" y="249"/>
      <point x="826" y="468" type="curve"/>
    </contour>
  </outline>
</glyph>
<glyph name="uni01A2" format="2">
  <advance width="1702"/>
  <unicode hex="01A2"/>
  <outline>
    <contour>
      <point x="1209" y="1258" type="curve" smooth="yes"/>
      <point x="1209" y="1216" type="line" smooth="yes"/>
      <point x="1352" y="1216"/>
      <point x="1448" y="1310"/>
      <point x="1501" y="1427" type="curve"/>
      <point x="1476" y="1470" type="line"/>
      <point x="1434" y="1364"/>
      <point x="1323" y="1258"/>
    </contour>
    <contour>
      <point x="1476" y="-410" type="line"/>
      <point x="1522" y="-410" type="line"/>
      <point x="1522" y="1470" type="line"/>
      <point x="1476" y="1470" type="line"/>
    </contour>
    <contour>
      <point x="1190" y="253" type="line"/>
      <point x="1236" y="253" type="line"/>
      <point x="1236" y="1227" type="line"/>
      <point x="1190" y="1227" type="line"/>
    </contour>
    <contour>
      <point x="1213" y="303" type="line"/>
      <point x="1099" y="122"/>
      <point x="918" y="32"/>
      <point x="757" y="32" type="curve" smooth="yes"/>
      <point x="497" y="32"/>
      <point x="186" y="265"/>
      <point x="186" y="740" type="curve" smooth="yes"/>
      <point x="186" y="1215"/>
      <point x="497" y="1448"/>
      <point x="757" y="1448" type="curve" smooth="yes"/>
      <point x="919" y="1448"/>
      <point x="1100" y="1358"/>
      <point x="1214" y="1176" type="curve"/>
      <point x="1236" y="1227" type="line"/>
      <point x="1124" y="1392"/>
      <point x="953" y="1490"/>
      <point x="757" y="1490" type="curve" smooth="yes"/>
      <point x="409" y="1490"/>
      <point x="140" y="1179"/>
      <point x="140" y="740" type="curve" smooth="yes"/>
      <point x="140" y="301"/>
      <point x="409" y="-10"/>
      <point x="757" y="-10" type="curve" smooth="yes"/>
      <point x="953" y="-10"/>
      <point x="1124" y="88"/>
      <point x="1236" y="253" type="curve"/>
    </contour>
  </outline>
</glyph>
<glyph name="uni01A7" format="2">
  <advance width="1175"/>
  <unicode hex="01A7"/>
  <anchor x="589" y="1380" name="top_center"/>
  <anchor x="589" y="0" name="bottom_center"/>
  <outline>
    <contour>
      <point x="589" y="1448" type="curve" smooth="yes"/>
      <point x="774" y="1448"/>
      <point x="952" y="1364"/>
      <point x="952" y="1124" type="curve" smooth="yes"/>
      <point x="952" y="884"/>
      <point x="742" y="816"/>
      <point x="589" y="769" type="curve" smooth="yes"/>
      <point x="321" y="688"/>
      <point x="140" y="616"/>
      <point x="140" y="356" type="curve" smooth="yes"/>
      <point x="140" y="96"/>
      <point x="320" y="-10"/>
      <point x="589" y="-10" type="curve" smooth="yes"/>
      <point x="850" y="-10"/>
      <point x="1030" y="143"/>
      <point x="1035" y="381" type="curve"/>
      <point x="989" y="394" type="line" smooth="yes"/>
      <point x="989" y="161"/>
      <point x="814" y="32"/>
      <point x="589" y="32" type="curve" smooth="yes"/>
      <point x="395" y="32"/>
      <point x="186" y="106"/>
      <point x="186" y="356" type="curve" smooth="yes"/>
      <point x="186" y="606"/>
      <point x="388" y="660"/>
      <point x="589" y="721" type="curve" smooth="yes"/>
      <point x="857" y="803"/>
      <point x="998" y="894"/>
      <point x="998" y="1124" type="curve" smooth="yes"/>
      <point x="998" y="1354"/>
      <point x="845" y="1490"/>
      <point x="589" y="1490" type="curve" smooth="yes"/>
      <point x="328" y="1490"/>
      <point x="168" y="1347"/>
      <point x="163" y="1109" type="curve"/>
      <point x="209" y="1096" type="line" smooth="yes"/>
      <point x="209" y="1329"/>
      <point x="364" y="1448"/>
    </contour>
  </outline>
</glyph>
<glyph name="uni01B6" format="2">
  <advance width="1012"/>
  <unicode hex="01B6"/>
  <outline>
    <contour>
      <point x="180" y="1040" type="line"/>
      <point x="180" y="1000" type="line"/>
      <point x="803" y="1000" type="line"/>
      <point x="832" y="1008" type="line"/>
      <point x="832" y="1040" type="line"/>
    </contour>
    <contour>
      <point x="832" y="40" type="line"/>
      <point x="209" y="40" type="line"/>
      <point x="180" y="32" type="line"/>
      <point x="180" y="0" type="line"/>
      <point x="832" y="0" type="line"/>
    </contour>
    <contour>
      <point x="232" y="40" type="line"/>
      <point x="832" y="1008" type="line"/>
      <point x="780" y="1000" type="line"/>
      <point x="180" y="32" type="line"/>
    </contour>
    <contour>
      <point x="186" y="500" type="curve"/>
      <point x="826" y="500" type="line"/>
      <point x="826" y="540" type="line"/>
      <point x="186" y="540" type="line"/>
      <point x="186" y="530"/>
      <point x="186" y="510"/>
    </contour>
  </outline>
</glyph>
<glyph name="uni01E4" format="2">
  <advance width="1512"/>
  <unicode hex="01E4"/>
  <outline>
    <contour>
      <point x="1512" y="299" type="line"/>
      <point x="977" y="299" type="line"/>
      <point x="977" y="311"/>
      <point x="977" y="329"/>
      <point x="977" y="341" type="curve"/>
      <point x="1512" y="341" type="line"/>
    </contour>
    <contour>
      <point x="1256" y="1097" type="line"/>
      <point x="1149" y="1332"/>
      <point x="940" y="1448"/>
      <point x="757" y="1448" type="curve" smooth="yes"/>
      <point x="497" y="1448"/>
      <point x="186" y="1215"/>
      <point x="186" y="740" type="curve" smooth="yes"/>
      <point x="186" y="265"/>
      <point x="497" y="32"/>
      <point x="757" y="32" type="curve" smooth="yes"/>
      <point x="940" y="32"/>
      <point x="1149" y="148"/>
      <point x="1256" y="383" type="curve"/>
      <point x="1296" y="360" type="line"/>
      <point x="1192" y="132"/>
      <point x="992" y="-10"/>
      <point x="757" y="-10" type="curve" smooth="yes"/>
      <point x="409" y="-10"/>
      <point x="140" y="301"/>
      <point x="140" y="740" type="curve" smooth="yes"/>
      <point x="140" y="1179"/>
      <point x="409" y="1490"/>
      <point x="757" y="1490" type="curve" smooth="yes"/>
      <point x="992" y="1490"/>
      <point x="1192" y="1348"/>
      <point x="1296" y="1120" type="curve"/>
    </contour>
    <contour>
      <point x="681" y="740" type="line"/>
      <point x="1302" y="740" type="line"/>
      <point x="1302" y="0" type="line"/>
      <point x="1256" y="0" type="line"/>
      <point x="1256" y="327" type="line"/>
      <point x="1256" y="353" type="line"/>
      <point x="1256" y="698" type="line"/>
      <point x="681" y="698" type="line"/>
    </contour>
  </outline>
</glyph>
<glyph name="uni021D" format="2">
  <advance width="980"/>
  <unicode hex="021D"/>
  <outline>
    <contour>
      <point x="667" y="369" type="line"/>
      <point x="735" y="312"/>
      <point x="798" y="227"/>
      <point x="798" y="133" type="curve" smooth="yes"/>
      <point x="798" y="-78"/>
      <point x="576" y="-400"/>
      <point x="218" y="-400" type="curve" smooth="yes"/>
      <point x="218" y="-440" type="line" smooth="yes"/>
      <point x="572" y="-440"/>
      <point x="840" y="-144"/>
      <point x="840" y="135" type="curve" smooth="yes"/>
      <point x="840" y="248"/>
      <point x="769" y="342"/>
      <point x="693" y="402" type="curve"/>
    </contour>
    <contour>
      <point x="478" y="1010" type="curve" smooth="yes"/>
      <point x="655" y="1010"/>
      <point x="774" y="871"/>
      <point x="774" y="708" type="curve" smooth="yes"/>
      <point x="774" y="497"/>
      <point x="576" y="175"/>
      <point x="218" y="175" type="curve" smooth="yes"/>
      <point x="218" y="135" type="line" smooth="yes"/>
      <point x="572" y="135"/>
      <point x="816" y="431"/>
      <point x="816" y="710" type="curve" smooth="yes"/>
      <point x="816" y="909"/>
      <point x="668" y="1050"/>
      <point x="478" y="1050" type="curve" smooth="yes"/>
      <point x="288" y="1050"/>
      <point x="140" y="901"/>
      <point x="140" y="699" type="curve" smooth="yes"/>
      <point x="187" y="686" type="line"/>
      <point x="186" y="688"/>
      <point x="185" y="693"/>
      <point x="185" y="699" type="curve" smooth="yes"/>
      <point x="185" y="862"/>
      <point x="301" y="1010"/>
    </contour>
  </outline>
</glyph>
<glyph name="uni0221" format="2">
  <advance width="1349"/>
  <unicode hex="0221"/>
  <outline>
    <contour>
      <point x="935" y="520" type="curve"/>
      <point x="935" y="856"/>
      <point x="735" y="1010"/>
      <point x="560" y="1010" type="curve" smooth="yes"/>
      <point x="385" y="1010"/>
      <point x="185" y="856"/>
      <point x="185" y="520" type="curve" smooth="yes"/>
      <point x="185" y="184"/>
      <point x="385" y="30"/>
      <point x="560" y="30" type="curve" smooth="yes"/>
      <point x="735" y="30"/>
      <point x="935" y="184"/>
    </contour>
    <contour>
      <point x="927" y="260" type="line"/>
      <point x="896" y="144"/>
      <point x="770" y="-10"/>
      <point x="560" y="-10" type="curve" smooth="yes"/>
      <point x="313" y="-10"/>
      <point x="140" y="208"/>
      <point x="140" y="520" type="curve" smooth="yes"/>
      <point x="140" y="832"/>
      <point x="313" y="1050"/>
      <point x="560" y="1050" type="curve" smooth="yes"/>
      <point x="760" y="1050"/>
      <point x="896" y="896"/>
      <point x="927" y="780" type="curve"/>
      <point x="927" y="1480" type="line"/>
      <point x="972" y="1480" type="line"/>
      <point x="972" y="201" type="line"/>
      <point x="972" y="101"/>
      <point x="1038" y="30"/>
      <point x="1138" y="30" type="curve" smooth="yes"/>
      <point x="1238" y="30"/>
      <point x="1304" y="101"/>
      <point x="1304" y="201" type="curve" smooth="yes"/>
      <point x="1304" y="301"/>
      <point x="1238" y="372"/>
      <point x="1138" y="372" type="curve" smooth="yes"/>
      <point x="832" y="372"/>
      <point x="714" y="-178"/>
      <point x="714" y="-178" type="curve"/>
      <point x="674" y="-155" type="line"/>
      <point x="674" y="-155"/>
      <point x="789" y="412"/>
      <point x="1139" y="412" type="curve" smooth="yes"/>
      <point x="1259" y="412"/>
      <point x="1349" y="321"/>
      <point x="1349" y="201" type="curve" smooth="yes"/>
      <point x="1349" y="81"/>
      <point x="1258" y="-10"/>
      <point x="1138" y="-10" type="curve" smooth="yes"/>
      <point x="1018" y="-10"/>
      <point x="927" y="81"/>
      <point x="927" y="201" type="curve"/>
    </contour>
  </outline>
</glyph>
<glyph name="uni0222" format="2">
  <advance width="1258"/>
  <unicode hex="0222"/>
  <outline>
    <contour>
      <point x="178" y="1054" type="curve" smooth="yes"/>
      <point x="178" y="884"/>
      <point x="364" y="794"/>
      <point x="449" y="781" type="curve"/>
      <point x="331" y="752"/>
      <point x="140" y="612"/>
      <point x="140" y="390" type="curve" smooth="yes"/>
      <point x="140" y="177"/>
      <point x="311" y="-10"/>
      <point x="628" y="-10" type="curve" smooth="yes"/>
      <point x="945" y="-10"/>
      <point x="1118" y="177"/>
      <point x="1118" y="390" type="curve" smooth="yes"/>
      <point x="1118" y="612"/>
      <point x="926" y="752"/>
      <point x="807" y="781" type="curve"/>
      <point x="902" y="804"/>
      <point x="1079" y="907"/>
      <point x="1079" y="1126" type="curve" smooth="yes"/>
      <point x="1079" y="1366"/>
      <point x="843" y="1491"/>
      <point x="668" y="1491" type="curve" smooth="yes"/>
      <point x="668" y="1449" type="line" smooth="yes"/>
      <point x="863" y="1449"/>
      <point x="1034" y="1302"/>
      <point x="1034" y="1122" type="curve" smooth="yes"/>
      <point x="1034" y="955"/>
      <point x="903" y="796"/>
      <point x="628" y="796" type="curve" smooth="yes"/>
      <point x="353" y="796"/>
      <point x="224" y="939"/>
      <point x="224" y="1054" type="curve" smooth="yes"/>
      <point x="224" y="1179"/>
      <point x="331" y="1302"/>
      <point x="589" y="1302" type="curve" smooth="yes"/>
      <point x="589" y="1344" type="line" smooth="yes"/>
      <point x="326" y="1344"/>
      <point x="178" y="1214"/>
    </contour>
    <contour>
      <point x="628" y="756" type="curve" smooth="yes"/>
      <point x="913" y="756"/>
      <point x="1072" y="584"/>
      <point x="1072" y="394" type="curve" smooth="yes"/>
      <point x="1072" y="204"/>
      <point x="913" y="32"/>
      <point x="628" y="32" type="curve" smooth="yes"/>
      <point x="343" y="32"/>
      <point x="186" y="204"/>
      <point x="186" y="394" type="curve" smooth="yes"/>
      <point x="186" y="584"/>
      <point x="343" y="756"/>
    </contour>
  </outline>
</glyph>
<glyph name="uni0223" format="2">
  <advance width="1181"/>
  <unicode hex="0223"/>
  <outline>
    <contour>
      <point x="694" y="1448" type="curve"/>
      <point x="706" y="1490" type="line"/>
      <point x="884" y="1452"/>
      <point x="1001" y="1311"/>
      <point x="1001" y="1126" type="curve" smooth="yes"/>
      <point x="1001" y="903"/>
      <point x="837" y="790"/>
      <point x="728" y="776" type="curve"/>
      <point x="842" y="752"/>
      <point x="1041" y="633"/>
      <point x="1041" y="390" type="curve" smooth="yes"/>
      <point x="1041" y="147"/>
      <point x="854" y="-10"/>
      <point x="590" y="-10" type="curve" smooth="yes"/>
      <point x="327" y="-10"/>
      <point x="140" y="147"/>
      <point x="140" y="390" type="curve" smooth="yes"/>
      <point x="140" y="633"/>
      <point x="339" y="752"/>
      <point x="453" y="776" type="curve"/>
      <point x="344" y="790"/>
      <point x="180" y="903"/>
      <point x="180" y="1126" type="curve" smooth="yes"/>
      <point x="180" y="1311"/>
      <point x="297" y="1452"/>
      <point x="475" y="1490" type="curve"/>
      <point x="487" y="1448" type="line"/>
      <point x="337" y="1412"/>
      <point x="226" y="1294"/>
      <point x="226" y="1122" type="curve" smooth="yes"/>
      <point x="226" y="927"/>
      <point x="391" y="796"/>
      <point x="590" y="796" type="curve" smooth="yes"/>
      <point x="790" y="796"/>
      <point x="955" y="927"/>
      <point x="955" y="1122" type="curve" smooth="yes"/>
      <point x="955" y="1294"/>
      <point x="844" y="1412"/>
    </contour>
    <contour>
      <point x="590" y="756" type="curve" smooth="yes"/>
      <point x="405" y="756"/>
      <point x="186" y="627"/>
      <point x="186" y="394" type="curve" smooth="yes"/>
      <point x="186" y="161"/>
      <point x="366" y="32"/>
      <point x="590" y="32" type="curve" smooth="yes"/>
      <point x="815" y="32"/>
      <point x="995" y="161"/>
      <point x="995" y="394" type="curve" smooth="yes"/>
      <point x="995" y="627"/>
      <point x="776" y="756"/>
    </contour>
  </outline>
</glyph>
<glyph name="uni0225" format="2">
  <advance width="1012"/>
  <unicode hex="0225"/>
  <outline>
    <contour>
      <point x="510" y="-269" type="line"/>
      <point x="514" y="-270"/>
      <point x="518" y="-270"/>
      <point x="522" y="-270" type="curve" smooth="yes"/>
      <point x="677" y="-270"/>
      <point x="787" y="-155"/>
      <point x="787" y="0" type="curve" smooth="yes"/>
      <point x="832" y="0" type="line" smooth="yes"/>
      <point x="832" y="-178"/>
      <point x="700" y="-310"/>
      <point x="522" y="-310" type="curve" smooth="yes"/>
      <point x="518" y="-310"/>
      <point x="514" y="-310"/>
      <point x="510" y="-309" type="curve"/>
    </contour>
    <contour>
      <point x="180" y="1040" type="line"/>
      <point x="180" y="1000" type="line"/>
      <point x="803" y="1000" type="line"/>
      <point x="832" y="1008" type="line"/>
      <point x="832" y="1040" type="line"/>
    </contour>
    <contour>
      <point x="832" y="40" type="line"/>
      <point x="209" y="40" type="line"/>
      <point x="180" y="32" type="line"/>
      <point x="180" y="0" type="line"/>
      <point x="832" y="0" type="line"/>
    </contour>
    <contour>
      <point x="232" y="40" type="line"/>
      <point x="832" y="1008" type="line"/>
      <point x="780" y="1000" type="line"/>
      <point x="180" y="32" type="line"/>
    </contour>
  </outline>
</glyph>
<glyph name="uni0239" format="2">
  <advance width="1899"/>
  <unicode hex="0239"/>
  <outline>
    <contour>
      <point x="929" y="520" type="curve"/>
      <point x="929" y="184"/>
      <point x="735" y="30"/>
      <point x="560" y="30" type="curve" smooth="yes"/>
      <point x="385" y="30"/>
      <point x="185" y="184"/>
      <point x="185" y="520" type="curve" smooth="yes"/>
      <point x="185" y="856"/>
      <point x="385" y="1010"/>
      <point x="560" y="1010" type="curve" smooth="yes"/>
      <point x="735" y="1010"/>
      <point x="929" y="856"/>
    </contour>
    <contour>
      <point x="927" y="-440" type="line"/>
      <point x="972" y="-440" type="line"/>
      <point x="972" y="260" type="line"/>
      <point x="1003" y="144"/>
      <point x="1139" y="-10"/>
      <point x="1339" y="-10" type="curve" smooth="yes"/>
      <point x="1586" y="-10"/>
      <point x="1759" y="208"/>
      <point x="1759" y="520" type="curve" smooth="yes"/>
      <point x="1759" y="832"/>
      <point x="1586" y="1050"/>
      <point x="1339" y="1050" type="curve" smooth="yes"/>
      <point x="1129" y="1050"/>
      <point x="1003" y="896"/>
      <point x="972" y="780" type="curve"/>
      <point x="972" y="1040" type="line"/>
      <point x="927" y="1040" type="line"/>
      <point x="927" y="780" type="line"/>
      <point x="896" y="896"/>
      <point x="770" y="1050"/>
      <point x="560" y="1050" type="curve" smooth="yes"/>
      <point x="313" y="1050"/>
      <point x="140" y="832"/>
      <point x="140" y="520" type="curve" smooth="yes"/>
      <point x="140" y="208"/>
      <point x="313" y="-10"/>
      <point x="560" y="-10" type="curve" smooth="yes"/>
      <point x="760" y="-10"/>
      <point x="896" y="144"/>
      <point x="927" y="260" type="curve"/>
    </contour>
    <contour>
      <point x="970" y="520" type="curve"/>
      <point x="970" y="856"/>
      <point x="1164" y="1010"/>
      <point x="1339" y="1010" type="curve" smooth="yes"/>
      <point x="1514" y="1010"/>
      <point x="1714" y="856"/>
      <point x="1714" y="520" type="curve" smooth="yes"/>
      <point x="1714" y="184"/>
      <point x="1514" y="30"/>
      <point x="1339" y="30" type="curve" smooth="yes"/>
      <point x="1164" y="30"/>
      <point x="970" y="184"/>
    </contour>
  </outline>
</glyph>
<glyph name="uni0245" format="2">
  <advance width="1310"/>
  <unicode hex="0245"/>
  <outline>
    <contour>
      <point x="656" y="1408" type="line"/>
      <point x="1141" y="0" type="line"/>
      <point x="1190" y="0" type="line"/>
      <point x="680" y="1480" type="line"/>
      <point x="630" y="1480" type="line"/>
      <point x="120" y="0" type="line"/>
      <point x="169" y="0" type="line"/>
    </contour>
  </outline>
</glyph>
<glyph name="uni026C" format="2">
  <advance width="862"/>
  <unicode hex="026C"/>
  <outline>
    <contour>
      <point x="792" y="549" type="line"/>
      <point x="212" y="549" type="line"/>
      <point x="212" y="589" type="line"/>
      <point x="792" y="589" type="line"/>
    </contour>
    <contour>
      <point x="0" y="760" type="curve" smooth="yes"/>
      <point x="0" y="880"/>
      <point x="92" y="971"/>
      <point x="212" y="971" type="curve" smooth="yes"/>
      <point x="332" y="971"/>
      <point x="422" y="880"/>
      <point x="422" y="760" type="curve" smooth="yes"/>
      <point x="378" y="760" type="line" smooth="yes"/>
      <point x="378" y="860"/>
      <point x="312" y="931"/>
      <point x="212" y="931" type="curve" smooth="yes"/>
      <point x="112" y="931"/>
      <point x="46" y="860"/>
      <point x="46" y="760" type="curve" smooth="yes"/>
      <point x="46" y="660"/>
      <point x="112" y="589"/>
      <point x="212" y="589" type="curve" smooth="yes"/>
      <point x="212" y="549" type="line" smooth="yes"/>
      <point x="92" y="549"/>
      <point x="0" y="640"/>
    </contour>
    <contour>
      <point x="170" y="1480" type="line"/>
      <point x="632" y="1480" type="line"/>
      <point x="632" y="1438" type="line"/>
      <point x="425" y="1438" type="line"/>
      <point x="425" y="42" type="line"/>
      <point x="632" y="42" type="line"/>
      <point x="632" y="0" type="line"/>
      <point x="170" y="0" type="line"/>
      <point x="170" y="42" type="line"/>
      <point x="377" y="42" type="line"/>
      <point x="377" y="1438" type="line"/>
      <point x="170" y="1438" type="line"/>
    </contour>
  </outline>
</glyph>
<glyph name="uni0279" format="2">
  <advance width="777"/>
  <unicode hex="0279"/>
  <outline>
    <contour>
      <point x="91" y="68" type="line"/>
      <point x="126" y="46"/>
      <point x="166" y="30"/>
      <point x="212" y="30" type="curve" smooth="yes"/>
      <point x="482" y="30"/>
      <point x="552" y="249"/>
      <point x="552" y="468" type="curve" smooth="yes"/>
      <point x="552" y="1040" type="line"/>
      <point x="597" y="1040" type="line"/>
      <point x="597" y="0" type="line"/>
      <point x="552" y="0" type="line"/>
      <point x="552" y="220" type="line"/>
      <point x="515" y="113"/>
      <point x="432" y="-10"/>
      <point x="202" y="-10" type="curve" smooth="yes"/>
      <point x="158" y="-10"/>
      <point x="107" y="5"/>
      <point x="70" y="26" type="curve"/>
    </contour>
  </outline>
</glyph>
<glyph name="uni0284" format="2">
  <advance width="735"/>
  <unicode hex="0284"/>
  <outline>
    <contour>
      <point x="567" y="0" type="line"/>
      <point x="567" y="40" type="line"/>
      <point x="32" y="40" type="line"/>
      <point x="32" y="34"/>
      <point x="32" y="6"/>
      <point x="32" y="0" type="curve"/>
    </contour>
    <contour>
      <point x="322" y="1040" type="line"/>
      <point x="322" y="1180" type="line" smooth="yes"/>
      <point x="322" y="1420"/>
      <point x="430" y="1450"/>
      <point x="520" y="1450" type="curve" smooth="yes"/>
      <point x="558" y="1450"/>
      <point x="612" y="1443"/>
      <point x="651" y="1415" type="curve"/>
      <point x="665" y="1458" type="line"/>
      <point x="625" y="1476"/>
      <point x="569" y="1490"/>
      <point x="520" y="1490" type="curve" smooth="yes"/>
      <point x="344" y="1490"/>
      <point x="277" y="1380"/>
      <point x="277" y="1180" type="curve" smooth="yes"/>
      <point x="277" y="1040" type="line"/>
      <point x="277" y="-140" type="line" smooth="yes"/>
      <point x="277" y="-295"/>
      <point x="167" y="-410"/>
      <point x="12" y="-410" type="curve" smooth="yes"/>
      <point x="8" y="-410"/>
      <point x="4" y="-410"/>
      <point x="0" y="-409" type="curve"/>
      <point x="0" y="-449" type="line"/>
      <point x="4" y="-450"/>
      <point x="8" y="-450"/>
      <point x="12" y="-450" type="curve" smooth="yes"/>
      <point x="190" y="-450"/>
      <point x="322" y="-318"/>
      <point x="322" y="-140" type="curve" smooth="yes"/>
    </contour>
  </outline>
</glyph>
<glyph name="uni028E" format="2">
  <advance width="1078"/>
  <unicode hex="028E"/>
  <outline>
    <contour>
      <point x="615" y="1352" type="line"/>
      <point x="648" y="1441"/>
      <point x="717" y="1490"/>
      <point x="833" y="1490" type="curve" smooth="yes"/>
      <point x="882" y="1490"/>
      <point x="938" y="1476"/>
      <point x="978" y="1458" type="curve"/>
      <point x="964" y="1415" type="line"/>
      <point x="925" y="1443"/>
      <point x="871" y="1450"/>
      <point x="833" y="1450" type="curve" smooth="yes"/>
      <point x="768" y="1450"/>
      <point x="693" y="1435"/>
      <point x="657" y="1336" type="curve"/>
      <point x="550" y="1040" type="line"/>
      <point x="930" y="0" type="line"/>
      <point x="882" y="0" type="line"/>
      <point x="525" y="984" type="line"/>
      <point x="168" y="0" type="line"/>
      <point x="120" y="0" type="line"/>
      <point x="500" y="1040" type="line"/>
    </contour>
  </outline>
</glyph>
<glyph name="uni0299" format="2">
  <advance width="988"/>
  <unicode hex="0299"/>
  <outline>
    <contour>
      <point x="225" y="40" type="line"/>
      <point x="513" y="40" type="line" smooth="yes"/>
      <point x="673" y="40"/>
      <point x="803" y="136"/>
      <point x="803" y="296" type="curve" smooth="yes"/>
      <point x="803" y="456"/>
      <point x="673" y="552"/>
      <point x="513" y="552" type="curve" smooth="yes"/>
      <point x="225" y="552" type="line"/>
    </contour>
    <contour>
      <point x="646" y="571" type="curve"/>
      <point x="767" y="532"/>
      <point x="848" y="438"/>
      <point x="848" y="296" type="curve" smooth="yes"/>
      <point x="848" y="107"/>
      <point x="703" y="0"/>
      <point x="513" y="0" type="curve" smooth="yes"/>
      <point x="180" y="0" type="line"/>
      <point x="180" y="1040" type="line"/>
      <point x="245" y="1040" type="line"/>
      <point x="481" y="1040" type="line" smooth="yes"/>
      <point x="671" y="1039"/>
      <point x="816" y="984"/>
      <point x="816" y="795" type="curve" smooth="yes"/>
      <point x="816" y="666"/>
      <point x="749" y="600"/>
    </contour>
    <contour>
      <point x="225" y="1000" type="line"/>
      <point x="225" y="592" type="line"/>
      <point x="492" y="592" type="line" smooth="yes"/>
      <point x="647" y="594"/>
      <point x="771" y="639"/>
      <point x="771" y="795" type="curve" smooth="yes"/>
      <point x="771" y="955"/>
      <point x="641" y="1000"/>
      <point x="481" y="1000" type="curve" smooth="yes"/>
    </contour>
  </outline>
</glyph>
<glyph name="uni029A" format="2">
  <advance width="1075"/>
  <unicode hex="029A"/>
  <outline>
    <contour>
      <point x="497" y="1050" type="curve" smooth="yes"/>
      <point x="308" y="1050"/>
      <point x="178" y="949"/>
      <point x="178" y="791" type="curve" smooth="yes"/>
      <point x="178" y="633"/>
      <point x="295" y="565"/>
      <point x="377" y="546" type="curve"/>
      <point x="267" y="537"/>
      <point x="140" y="419"/>
      <point x="140" y="276" type="curve" smooth="yes"/>
      <point x="140" y="103"/>
      <point x="317" y="-10"/>
      <point x="497" y="-10" type="curve" smooth="yes"/>
      <point x="744" y="-10"/>
      <point x="935" y="208"/>
      <point x="935" y="520" type="curve" smooth="yes"/>
      <point x="935" y="832"/>
      <point x="744" y="1050"/>
    </contour>
    <contour>
      <point x="497" y="1010" type="curve" smooth="yes"/>
      <point x="665" y="1010"/>
      <point x="890" y="856"/>
      <point x="890" y="520" type="curve" smooth="yes"/>
      <point x="890" y="184"/>
      <point x="665" y="30"/>
      <point x="497" y="30" type="curve" smooth="yes"/>
      <point x="307" y="30"/>
      <point x="185" y="159"/>
      <point x="185" y="279" type="curve" smooth="yes"/>
      <point x="185" y="399"/>
      <point x="297" y="528"/>
      <point x="497" y="528" type="curve"/>
      <point x="540" y="528"/>
      <point x="554" y="528"/>
      <point x="554" y="528" type="curve"/>
      <point x="554" y="568" type="line"/>
      <point x="554" y="568"/>
      <point x="539" y="568"/>
      <point x="497" y="568" type="curve"/>
      <point x="297" y="568"/>
      <point x="223" y="689"/>
      <point x="223" y="789" type="curve" smooth="yes"/>
      <point x="223" y="899"/>
      <point x="307" y="1010"/>
    </contour>
  </outline>
</glyph>
<glyph name="uni029F" format="2">
  <advance width="975"/>
  <unicode hex="029F"/>
  <outline>
    <contour>
      <point x="225" y="1040" type="line"/>
      <point x="225" y="40" type="line"/>
      <point x="795" y="40" type="line"/>
      <point x="795" y="0" type="line"/>
      <point x="180" y="0" type="line"/>
      <point x="180" y="1040" type="line"/>
    </contour>
  </outline>
</glyph>
<glyph name="uni02A2" format="2">
  <advance width="1152"/>
  <unicode hex="02A2"/>
  <outline>
    <contour>
      <point x="310" y="269" type="line"/>
      <point x="310" y="311" type="line"/>
      <point x="846" y="311" type="line"/>
      <point x="846" y="299"/>
      <point x="846" y="281"/>
      <point x="846" y="269" type="curve"/>
    </contour>
    <contour>
      <point x="601" y="0" type="line"/>
      <point x="555" y="0" type="line"/>
      <point x="555" y="472" type="line"/>
      <point x="601" y="472" type="line"/>
    </contour>
    <contour>
      <point x="578" y="430" type="line" smooth="yes"/>
      <point x="331" y="430"/>
      <point x="140" y="648"/>
      <point x="140" y="960" type="curve" smooth="yes"/>
      <point x="140" y="1272"/>
      <point x="314" y="1490"/>
      <point x="578" y="1490" type="curve" smooth="yes"/>
      <point x="816" y="1490"/>
      <point x="985" y="1306"/>
      <point x="1012" y="1032" type="curve"/>
      <point x="966" y="1019" type="line"/>
      <point x="961" y="1230"/>
      <point x="816" y="1448"/>
      <point x="578" y="1448" type="curve" smooth="yes"/>
      <point x="340" y="1448"/>
      <point x="186" y="1240"/>
      <point x="186" y="960" type="curve" smooth="yes"/>
      <point x="186" y="680"/>
      <point x="360" y="472"/>
      <point x="578" y="472" type="curve" smooth="yes"/>
    </contour>
  </outline>
</glyph>
<glyph name="uni02B6" format="2">
  <advance width="627"/>
  <unicode hex="02B6"/>
  <outline>
    <contour>
      <point x="108" y="1413" type="line"/>
      <point x="108" y="810" type="line"/>
      <point x="341" y="810" type="line" smooth="yes"/>
      <point x="453" y="810"/>
      <point x="549" y="876"/>
      <point x="549" y="994" type="curve" smooth="yes"/>
      <point x="549" y="1100"/>
      <point x="471" y="1164"/>
      <point x="374" y="1176" type="curve"/>
      <point x="567" y="1413" type="line"/>
      <point x="529" y="1413" type="line"/>
      <point x="337" y="1178" type="line"/>
      <point x="141" y="1178" type="line"/>
      <point x="141" y="1413" type="line"/>
    </contour>
    <contour>
      <point x="141" y="840" type="line"/>
      <point x="141" y="1148" type="line"/>
      <point x="328" y="1148" type="line" smooth="yes"/>
      <point x="475" y="1148"/>
      <point x="516" y="1054"/>
      <point x="516" y="994" type="curve" smooth="yes"/>
      <point x="516" y="934"/>
      <point x="475" y="840"/>
      <point x="328" y="840" type="curve" smooth="yes"/>
    </contour>
  </outline>
</glyph>
<glyph name="uni02E2" format="2">
  <advance width="612"/>
  <unicode hex="02E2"/>
  <outline>
    <contour>
      <point x="310" y="1419" type="curve" smooth="yes"/>
      <point x="427" y="1419"/>
      <point x="495" y="1362"/>
      <point x="516" y="1275" type="curve"/>
      <point x="486" y="1262" type="line"/>
      <point x="461" y="1363"/>
      <point x="378" y="1389"/>
      <point x="310" y="1389" type="curve" smooth="yes"/>
      <point x="242" y="1389"/>
      <point x="144" y="1362"/>
      <point x="144" y="1264" type="curve" smooth="yes"/>
      <point x="144" y="1161"/>
      <point x="236" y="1146"/>
      <point x="314" y="1129" type="curve" smooth="yes"/>
      <point x="438" y="1103"/>
      <point x="528" y="1071"/>
      <point x="528" y="959" type="curve" smooth="yes"/>
      <point x="528" y="858"/>
      <point x="433" y="804"/>
      <point x="308" y="804" type="curve" smooth="yes"/>
      <point x="183" y="804"/>
      <point x="105" y="874"/>
      <point x="84" y="960" type="curve"/>
      <point x="112" y="973" type="line"/>
      <point x="136" y="877"/>
      <point x="229" y="834"/>
      <point x="308" y="834" type="curve" smooth="yes"/>
      <point x="387" y="834"/>
      <point x="494" y="861"/>
      <point x="494" y="959" type="curve" smooth="yes"/>
      <point x="494" y="1062"/>
      <point x="386" y="1081"/>
      <point x="308" y="1098" type="curve" smooth="yes"/>
      <point x="184" y="1124"/>
      <point x="110" y="1158"/>
      <point x="110" y="1264" type="curve" smooth="yes"/>
      <point x="110" y="1353"/>
      <point x="193" y="1419"/>
    </contour>
  </outline>
</glyph>
<glyph name="uni0308" format="2">
  <advance width="0"/>
  <unicode hex="0308"/>
  <anchor x="642" y="1040" name="_top_center"/>
  <anchor x="641" y="1350" name="dieresis_center"/>
  <outline>
    <contour>
      <point x="737" y="1352" type="curve" smooth="yes"/>
      <point x="737" y="1388"/>
      <point x="765" y="1416"/>
      <point x="801" y="1416" type="curve" smooth="yes"/>
      <point x="837" y="1416"/>
      <point x="865" y="1388"/>
      <point x="865" y="1352" type="curve" smooth="yes"/>
      <point x="865" y="1316"/>
      <point x="837" y="1288"/>
      <point x="801" y="1288" type="curve" smooth="yes"/>
      <point x="765" y="1288"/>
      <point x="737" y="1316"/>
    </contour>
    <contour>
      <point x="417" y="1352" type="curve" smooth="yes"/>
      <point x="417" y="1388"/>
      <point x="445" y="1416"/>
      <point x="481" y="1416" type="curve" smooth="yes"/>
      <point x="517" y="1416"/>
      <point x="545" y="1388"/>
      <point x="545" y="1352" type="curve" smooth="yes"/>
      <point x="545" y="1316"/>
      <point x="517" y="1288"/>
      <point x="481" y="1288" type="curve" smooth="yes"/>
      <point x="445" y="1288"/>
      <point x="417" y="1316"/>
    </contour>
  </outline>
</glyph>
<glyph name="dotbelowcomb" format="2">
  <advance width="0"/>
  <unicode hex="0323"/>
  <anchor x="642" y="0" name="_bottom_center"/>
  <outline>
    <contour>
      <point x="578" y="-258" type="curve" smooth="yes"/>
      <point x="578" y="-222"/>
      <point x="606" y="-194"/>
      <point x="642" y="-194" type="curve" smooth="yes"/>
      <point x="678" y="-194"/>
      <point x="706" y="-222"/>
      <point x="706" y="-258" type="curve" smooth="yes"/>
      <point x="706" y="-294"/>
      <point x="678" y="-322"/>
      <point x="642" y="-322" type="curve" smooth="yes"/>
      <point x="606" y="-322"/>
      <point x="578" y="-294"/>
    </contour>
  </outline>
</glyph>
<glyph name="uni0327" format="2">
  <advance width="0"/>
  <unicode hex="0327"/>
  <anchor x="642" y="-20" name="_bottom_cedilla"/>
  <outline>
    <contour>
      <point x="523" y="-291" type="curve"/>
      <point x="560" y="-269" type="line"/>
      <point x="579" y="-309"/>
      <point x="619" y="-330"/>
      <point x="657" y="-330" type="curve" smooth="yes"/>
      <point x="709" y="-330"/>
      <point x="766" y="-290"/>
      <point x="766" y="-216" type="curve" smooth="yes"/>
      <point x="766" y="-142"/>
      <point x="709" y="-102"/>
      <point x="657" y="-102" type="curve" smooth="yes"/>
      <point x="619" y="-102"/>
      <point x="598" y="-123"/>
      <point x="579" y="-163" type="curve"/>
      <point x="543" y="-141" type="line"/>
      <point x="569" y="-95"/>
      <point x="597" y="-62"/>
      <point x="657" y="-62" type="curve" smooth="yes"/>
      <point x="747" y="-62"/>
      <point x="811" y="-136"/>
      <point x="811" y="-216" type="curve" smooth="yes"/>
      <point x="811" y="-296"/>
      <point x="747" y="-370"/>
      <point x="657" y="-370" type="curve" smooth="yes"/>
      <point x="597" y="-370"/>
      <point x="549" y="-337"/>
    </contour>
    <contour>
      <point x="621" y="0" type="line"/>
      <point x="663" y="0" type="line"/>
      <point x="580" y="-136" type="line"/>
      <point x="579" y="-163" type="line"/>
      <point x="543" y="-141" type="line"/>
    </contour>
  </outline>
</glyph>
<glyph name="uni0331" format="2">
  <advance width="0"/>
  <unicode hex="0331"/>
  <anchor x="642" y="0" name="_bottom_center"/>
  <outline>
    <contour>
      <point x="374" y="-274" type="line"/>
      <point x="374" y="-234" type="line"/>
      <point x="910" y="-234" type="line"/>
      <point x="910" y="-274" type="line"/>
    </contour>
  </outline>
</glyph>
<glyph name="uni0338" format="2">
  <advance width="0"/>
  <unicode hex="0338"/>
  <outline>
    <contour>
      <point x="1126" y="1526" type="line"/>
      <point x="1158" y="1502" type="line"/>
      <point x="-28" y="-46" type="line"/>
      <point x="-60" y="-22" type="line"/>
    </contour>
  </outline>
</glyph>
<glyph name="uni0341" format="2">
  <advance width="0"/>
  <unicode hex="0341"/>
  <anchor x="988" y="1480" name="_top_left"/>
  <anchor x="811" y="1224" name="_top_left_O2"/>
  <anchor x="587" y="1092" name="_circumflex_right"/>
  <anchor x="642" y="1040" name="_top_center"/>
  <outline>
    <contour>
      <point x="664" y="1224" type="line"/>
      <point x="620" y="1224" type="line"/>
      <point x="806" y="1480" type="line"/>
      <point x="862" y="1480" type="line"/>
    </contour>
  </outline>
</glyph>
<glyph name="uni0345" format="2">
  <advance width="0"/>
  <unicode hex="0345"/>
  <anchor x="642" y="-90" name="_bottom_ypogegrammeni"/>
  <outline>
    <contour>
      <point x="790" y="-404" type="curve"/>
      <point x="803" y="-442" type="line"/>
      <point x="790" y="-452"/>
      <point x="765" y="-460"/>
      <point x="746" y="-460" type="curve" smooth="yes"/>
      <point x="643" y="-460"/>
      <point x="620" y="-390"/>
      <point x="620" y="-304" type="curve" smooth="yes"/>
      <point x="620" y="-175" type="line"/>
      <point x="620" y="-109" type="line"/>
      <point x="620" y="-90" type="line"/>
      <point x="664" y="-90" type="line"/>
      <point x="664" y="-98" type="line"/>
      <point x="664" y="-161" type="line"/>
      <point x="664" y="-306" type="line" smooth="yes"/>
      <point x="664" y="-402"/>
      <point x="698" y="-420"/>
      <point x="746" y="-420" type="curve" smooth="yes"/>
      <point x="765" y="-420"/>
      <point x="783" y="-408"/>
    </contour>
  </outline>
</glyph>
<glyph name="uni037C" format="2">
  <advance width="1101"/>
  <unicode hex="037C"/>
  <outline>
    <contour>
      <point x="642" y="520" type="curve" smooth="yes"/>
      <point x="642" y="556"/>
      <point x="614" y="584"/>
      <point x="578" y="584" type="curve" smooth="yes"/>
      <point x="542" y="584"/>
      <point x="514" y="556"/>
      <point x="514" y="520" type="curve" smooth="yes"/>
      <point x="514" y="484"/>
      <point x="542" y="456"/>
      <point x="578" y="456" type="curve" smooth="yes"/>
      <point x="614" y="456"/>
      <point x="642" y="484"/>
    </contour>
    <contour>
      <point x="185" y="520" type="curve" smooth="yes"/>
      <point x="185" y="184"/>
      <point x="410" y="30"/>
      <point x="578" y="30" type="curve" smooth="yes"/>
      <point x="698" y="30"/>
      <point x="846" y="108"/>
      <point x="922" y="274" type="curve"/>
      <point x="961" y="252" type="line"/>
      <point x="887" y="90"/>
      <point x="745" y="-10"/>
      <point x="578" y="-10" type="curve" smooth="yes"/>
      <point x="331" y="-10"/>
      <point x="140" y="208"/>
      <point x="140" y="520" type="curve" smooth="yes"/>
      <point x="140" y="832"/>
      <point x="331" y="1050"/>
      <point x="578" y="1050" type="curve" smooth="yes"/>
      <point x="745" y="1050"/>
      <point x="887" y="950"/>
      <point x="961" y="788" type="curve"/>
      <point x="922" y="766" type="line"/>
      <point x="846" y="932"/>
      <point x="698" y="1010"/>
      <point x="578" y="1010" type="curve" smooth="yes"/>
      <point x="410" y="1010"/>
      <point x="185" y="856"/>
    </contour>
  </outline>
</glyph>
<glyph name="Phi" format="2">
  <advance width="1174"/>
  <unicode hex="03A6"/>
  <anchor x="587" y="1380" name="top_center"/>
  <anchor x="587" y="0" name="bottom_center"/>
  <outline>
    <contour>
      <point x="186" y="740" type="curve" smooth="yes"/>
      <point x="186" y="505"/>
      <point x="357" y="310"/>
      <point x="587" y="310" type="curve" smooth="yes"/>
      <point x="817" y="310"/>
      <point x="988" y="505"/>
      <point x="988" y="740" type="curve" smooth="yes"/>
      <point x="988" y="975"/>
      <point x="817" y="1170"/>
      <point x="587" y="1170" type="curve" smooth="yes"/>
      <point x="357" y="1170"/>
      <point x="186" y="975"/>
    </contour>
    <contour>
      <point x="140" y="740" type="curve" smooth="yes"/>
      <point x="140" y="1011"/>
      <point x="340" y="1212"/>
      <point x="587" y="1212" type="curve" smooth="yes"/>
      <point x="834" y="1212"/>
      <point x="1034" y="1011"/>
      <point x="1034" y="740" type="curve" smooth="yes"/>
      <point x="1034" y="469"/>
      <point x="834" y="268"/>
      <point x="587" y="268" type="curve" smooth="yes"/>
      <point x="340" y="268"/>
      <point x="140" y="469"/>
    </contour>
    <contour>
      <point x="356" y="1480" type="line"/>
      <point x="818" y="1480" type="line"/>
      <point x="818" y="1438" type="line"/>
      <point x="611" y="1438" type="line"/>
      <point x="611" y="42" type="line"/>
      <point x="818" y="42" type="line"/>
      <point x="818" y="0" type="line"/>
      <point x="356" y="0" type="line"/>
      <point x="356" y="42" type="line"/>
      <point x="563" y="42" type="line"/>
      <point x="563" y="1438" type="line"/>
      <point x="356" y="1438" type="line"/>
    </contour>
  </outline>
</glyph>
<glyph name="omega1" format="2">
  <advance width="1622"/>
  <unicode hex="03D6"/>
  <outline>
    <contour>
      <point x="1482" y="1000" type="line"/>
      <point x="140" y="1000" type="line"/>
      <point x="140" y="1040" type="line"/>
      <point x="1482" y="1040" type="line"/>
    </contour>
    <contour>
      <point x="373" y="1021" type="curve"/>
      <point x="429" y="1020" type="line"/>
      <point x="356" y="948"/>
      <point x="229" y="771"/>
      <point x="229" y="468" type="curve" smooth="yes"/>
      <point x="229" y="249"/>
      <point x="279" y="30"/>
      <point x="519" y="30" type="curve" smooth="yes"/>
      <point x="739" y="30"/>
      <point x="786" y="301"/>
      <point x="786" y="520" type="curve"/>
      <point x="828" y="520" type="line"/>
      <point x="828" y="200"/>
      <point x="739" y="-10"/>
      <point x="519" y="-10" type="curve"/>
      <point x="309" y="-10"/>
      <point x="185" y="148"/>
      <point x="185" y="468" type="curve" smooth="yes"/>
      <point x="185" y="790"/>
      <point x="304" y="943"/>
    </contour>
    <contour>
      <point x="1248" y="1022" type="line"/>
      <point x="1320" y="939"/>
      <point x="1437" y="774"/>
      <point x="1437" y="468" type="curve" smooth="yes"/>
      <point x="1437" y="148"/>
      <point x="1313" y="-10"/>
      <point x="1103" y="-10" type="curve"/>
      <point x="883" y="-10"/>
      <point x="794" y="200"/>
      <point x="794" y="520" type="curve"/>
      <point x="836" y="520" type="line"/>
      <point x="836" y="301"/>
      <point x="883" y="30"/>
      <point x="1103" y="30" type="curve" smooth="yes"/>
      <point x="1343" y="30"/>
      <point x="1393" y="249"/>
      <point x="1393" y="468" type="curve" smooth="yes"/>
      <point x="1393" y="766"/>
      <point x="1270" y="941"/>
      <point x="1197" y="1016" type="curve"/>
    </contour>
  </outline>
</glyph>
<glyph name="uni040F" format="2">
  <advance width="1344"/>
  <unicode hex="040F"/>
  <outline>
    <contour>
      <point x="676" y="17" type="line"/>
      <point x="722" y="17" type="line"/>
      <point x="722" y="-300" type="line"/>
      <point x="676" y="-300" type="line"/>
    </contour>
    <contour>
      <point x="180" y="0" type="line"/>
      <point x="180" y="1480" type="line"/>
      <point x="226" y="1480" type="line"/>
      <point x="226" y="42" type="line"/>
      <point x="1118" y="42" type="line"/>
      <point x="1118" y="1480" type="line"/>
      <point x="1164" y="1480" type="line"/>
      <point x="1164" y="0" type="line"/>
    </contour>
  </outline>
</glyph>
<glyph name="uni042D" format="2">
  <advance width="1436"/>
  <unicode hex="042D"/>
  <anchor x="679" y="1380" name="top_center"/>
  <anchor x="679" y="0" name="bottom_center"/>
  <outline>
    <contour>
      <point x="1273" y="761" type="line"/>
      <point x="681" y="761" type="line"/>
      <point x="360" y="761" type="line"/>
      <point x="360" y="719" type="line"/>
      <point x="681" y="719" type="line"/>
      <point x="1273" y="719" type="line"/>
    </contour>
    <contour>
      <point x="180" y="1097" type="line"/>
      <point x="287" y="1332"/>
      <point x="496" y="1448"/>
      <point x="679" y="1448" type="curve" smooth="yes"/>
      <point x="939" y="1448"/>
      <point x="1250" y="1215"/>
      <point x="1250" y="740" type="curve" smooth="yes"/>
      <point x="1250" y="265"/>
      <point x="939" y="32"/>
      <point x="679" y="32" type="curve" smooth="yes"/>
      <point x="496" y="32"/>
      <point x="287" y="148"/>
      <point x="180" y="383" type="curve"/>
      <point x="140" y="360" type="line"/>
      <point x="244" y="132"/>
      <point x="444" y="-10"/>
      <point x="679" y="-10" type="curve" smooth="yes"/>
      <point x="1027" y="-10"/>
      <point x="1296" y="301"/>
      <point x="1296" y="740" type="curve" smooth="yes"/>
      <point x="1296" y="1179"/>
      <point x="1027" y="1490"/>
      <point x="679" y="1490" type="curve" smooth="yes"/>
      <point x="444" y="1490"/>
      <point x="244" y="1348"/>
      <point x="140" y="1120" type="curve"/>
    </contour>
  </outline>
</glyph>
<glyph name="uni042F" format="2">
  <advance width="1090"/>
  <unicode hex="042F"/>
  <anchor x="547" y="0" name="bottom_center"/>
  <anchor x="547" y="1380" name="top_center"/>
  <outline>
    <contour>
      <point x="585" y="643" type="line"/>
      <point x="154" y="0" type="line"/>
      <point x="100" y="0" type="line"/>
      <point x="539" y="652" type="line"/>
    </contour>
    <contour>
      <point x="904" y="1438" type="line"/>
      <point x="535" y="1438" type="line"/>
      <point x="310" y="1438"/>
      <point x="162" y="1257"/>
      <point x="162" y="1057" type="curve" smooth="yes"/>
      <point x="162" y="857"/>
      <point x="310" y="676"/>
      <point x="535" y="676" type="curve"/>
      <point x="904" y="676" type="line"/>
    </contour>
    <contour>
      <point x="950" y="0" type="line"/>
      <point x="904" y="0" type="line"/>
      <point x="904" y="634" type="line"/>
      <point x="535" y="634" type="line"/>
      <point x="311" y="634"/>
      <point x="116" y="802"/>
      <point x="116" y="1057" type="curve" smooth="yes"/>
      <point x="116" y="1312"/>
      <point x="311" y="1480"/>
      <point x="535" y="1480" type="curve"/>
      <point x="950" y="1480" type="line"/>
    </contour>
  </outline>
</glyph>
<glyph name="uni043D" format="2">
  <advance width="1133"/>
  <unicode hex="043D"/>
  <anchor x="567" y="0" name="bottom_center"/>
  <anchor x="567" y="1040" name="top_center"/>
  <outline>
    <contour>
      <point x="180" y="1040" type="line"/>
      <point x="225" y="1040" type="line"/>
      <point x="225" y="540" type="line"/>
      <point x="908" y="540" type="line"/>
      <point x="908" y="1040" type="line"/>
      <point x="953" y="1040" type="line"/>
      <point x="953" y="0" type="line"/>
      <point x="908" y="0" type="line"/>
      <point x="908" y="500" type="line"/>
      <point x="225" y="500" type="line"/>
      <point x="225" y="0" type="line"/>
      <point x="180" y="0" type="line"/>
    </contour>
  </outline>
</glyph>
<glyph name="uni044C" format="2">
  <advance width="1061"/>
  <unicode hex="044C"/>
  <anchor x="203" y="1040" name="top_center"/>
  <anchor x="551" y="0" name="bottom_center"/>
  <outline>
    <contour>
      <point x="225" y="40" type="line"/>
      <point x="583" y="40" type="line" smooth="yes"/>
      <point x="789" y="40"/>
      <point x="876" y="160"/>
      <point x="876" y="296" type="curve" smooth="yes"/>
      <point x="876" y="432"/>
      <point x="789" y="552"/>
      <point x="583" y="552" type="curve" smooth="yes"/>
      <point x="225" y="552" type="line"/>
    </contour>
    <contour>
      <point x="180" y="1040" type="line"/>
      <point x="225" y="1040" type="line"/>
      <point x="225" y="592" type="line"/>
      <point x="583" y="592" type="line" smooth="yes"/>
      <point x="799" y="592"/>
      <point x="921" y="473"/>
      <point x="921" y="296" type="curve" smooth="yes"/>
      <point x="921" y="119"/>
      <point x="799" y="0"/>
      <point x="583" y="0" type="curve" smooth="yes"/>
      <point x="180" y="0" type="line"/>
    </contour>
  </outline>
</glyph>
<glyph name="uni046F" format="2">
  <advance width="1105"/>
  <unicode hex="046F"/>
  <outline>
    <contour>
      <point x="548" y="1028" type="line"/>
      <point x="386" y="1333" type="line"/>
      <point x="338" y="1333" type="line"/>
      <point x="510" y="1027" type="line"/>
    </contour>
    <contour>
      <point x="751" y="1343" type="curve" smooth="yes"/>
      <point x="712" y="1343"/>
      <point x="683" y="1326"/>
      <point x="648" y="1265" type="curve"/>
      <point x="527" y="1033" type="line"/>
      <point x="566" y="1027" type="line"/>
      <point x="679" y="1244" type="line"/>
      <point x="704" y="1287"/>
      <point x="715" y="1303"/>
      <point x="760" y="1303" type="curve" smooth="yes"/>
      <point x="799" y="1303"/>
      <point x="837" y="1267"/>
      <point x="837" y="1267" type="curve"/>
      <point x="852" y="1303" type="line"/>
      <point x="852" y="1303"/>
      <point x="805" y="1343"/>
    </contour>
    <contour>
      <point x="536" y="-10" type="curve" smooth="yes"/>
      <point x="716" y="-10"/>
      <point x="893" y="103"/>
      <point x="893" y="276" type="curve" smooth="yes"/>
      <point x="893" y="419"/>
      <point x="766" y="537"/>
      <point x="656" y="546" type="curve"/>
      <point x="738" y="565"/>
      <point x="855" y="633"/>
      <point x="855" y="791" type="curve" smooth="yes"/>
      <point x="855" y="949"/>
      <point x="725" y="1050"/>
      <point x="536" y="1050" type="curve" smooth="yes"/>
      <point x="347" y="1050"/>
      <point x="233" y="937"/>
      <point x="215" y="788" type="curve"/>
      <point x="260" y="776" type="line" smooth="yes"/>
      <point x="260" y="858"/>
      <point x="331" y="1010"/>
      <point x="536" y="1010" type="curve" smooth="yes"/>
      <point x="726" y="1010"/>
      <point x="810" y="899"/>
      <point x="810" y="789" type="curve" smooth="yes"/>
      <point x="810" y="689"/>
      <point x="736" y="568"/>
      <point x="536" y="568" type="curve"/>
      <point x="494" y="568"/>
      <point x="479" y="568"/>
      <point x="479" y="568" type="curve"/>
      <point x="479" y="528" type="line"/>
      <point x="479" y="528"/>
      <point x="493" y="528"/>
      <point x="536" y="528" type="curve"/>
      <point x="736" y="528"/>
      <point x="848" y="399"/>
      <point x="848" y="279" type="curve" smooth="yes"/>
      <point x="848" y="159"/>
      <point x="726" y="30"/>
      <point x="536" y="30" type="curve" smooth="yes"/>
      <point x="231" y="30"/>
      <point x="140" y="-90"/>
      <point x="140" y="-210" type="curve" smooth="yes"/>
      <point x="140" y="-330"/>
      <point x="234" y="-450"/>
      <point x="531" y="-450" type="curve"/>
      <point x="673" y="-450"/>
      <point x="713" y="-382"/>
      <point x="831" y="-382" type="curve" smooth="yes"/>
      <point x="915" y="-382"/>
      <point x="962" y="-392"/>
      <point x="1014" y="-450" type="curve"/>
      <point x="1035" y="-410" type="line"/>
      <point x="993" y="-370"/>
      <point x="924" y="-342"/>
      <point x="831" y="-342" type="curve" smooth="yes"/>
      <point x="699" y="-342"/>
      <point x="649" y="-410"/>
      <point x="531" y="-410" type="curve"/>
      <point x="284" y="-410"/>
      <point x="186" y="-310"/>
      <point x="186" y="-210" type="curve" smooth="yes"/>
      <point x="186" y="-110"/>
      <point x="285" y="-10"/>
    </contour>
  </outline>
</glyph>
<glyph name="uni0474" format="2">
  <advance width="1444"/>
  <unicode hex="0474"/>
  <anchor x="695" y="1380" name="top_center"/>
  <anchor x="655" y="0" name="bottom_center"/>
  <outline>
    <contour>
      <point x="1143" y="1345" type="curve"/>
      <point x="680" y="0" type="line"/>
      <point x="630" y="0" type="line"/>
      <point x="120" y="1480" type="line"/>
      <point x="169" y="1480" type="line"/>
      <point x="655" y="72" type="line"/>
      <point x="1102" y="1367" type="line"/>
      <point x="1131" y="1453"/>
      <point x="1212" y="1490"/>
      <point x="1321" y="1490" type="curve" smooth="yes"/>
      <point x="1349" y="1490"/>
      <point x="1379" y="1483"/>
      <point x="1404" y="1466" type="curve"/>
      <point x="1392" y="1422" type="line"/>
      <point x="1361" y="1442"/>
      <point x="1335" y="1448"/>
      <point x="1321" y="1448" type="curve" smooth="yes"/>
      <point x="1279" y="1448"/>
      <point x="1177" y="1443"/>
    </contour>
  </outline>
</glyph>
<glyph name="uni047C" format="2">
  <advance width="1698"/>
  <unicode hex="047C"/>
  <outline>
    <contour>
      <point x="1266" y="1544" type="line" smooth="yes"/>
      <point x="1033" y="1544"/>
      <point x="999" y="1759"/>
      <point x="849" y="1759" type="curve" smooth="yes"/>
      <point x="777" y="1759"/>
      <point x="670" y="1700"/>
      <point x="660" y="1550" type="curve"/>
      <point x="620" y="1561" type="line"/>
      <point x="634" y="1697"/>
      <point x="734" y="1799"/>
      <point x="849" y="1799" type="curve" smooth="yes"/>
      <point x="1031" y="1799"/>
      <point x="1055" y="1582"/>
      <point x="1266" y="1582" type="curve" smooth="yes"/>
    </contour>
    <contour>
      <point x="785" y="1377" type="line"/>
      <point x="835" y="1390"/>
      <point x="902" y="1451"/>
      <point x="902" y="1541" type="curve" smooth="yes"/>
      <point x="902" y="1621"/>
      <point x="849" y="1654"/>
      <point x="849" y="1654" type="curve"/>
      <point x="849" y="1699" type="line"/>
      <point x="911" y="1699"/>
      <point x="948" y="1621"/>
      <point x="948" y="1541" type="curve" smooth="yes"/>
      <point x="948" y="1431"/>
      <point x="865" y="1355"/>
      <point x="797" y="1335" type="curve"/>
    </contour>
    <contour>
      <point x="785" y="1635" type="curve" smooth="yes"/>
      <point x="785" y="1671"/>
      <point x="813" y="1699"/>
      <point x="849" y="1699" type="curve" smooth="yes"/>
      <point x="885" y="1699"/>
      <point x="913" y="1671"/>
      <point x="913" y="1635" type="curve" smooth="yes"/>
      <point x="913" y="1599"/>
      <point x="885" y="1571"/>
      <point x="849" y="1571" type="curve" smooth="yes"/>
      <point x="813" y="1571"/>
      <point x="785" y="1599"/>
    </contour>
    <contour>
      <point x="526" y="1490" type="line"/>
      <point x="288" y="1490"/>
      <point x="180" y="1332"/>
      <point x="180" y="1012" type="curve" smooth="yes"/>
      <point x="180" y="468" type="line" smooth="yes"/>
      <point x="180" y="148"/>
      <point x="288" y="-10"/>
      <point x="516" y="-10" type="curve" smooth="yes"/>
      <point x="688" y="-10"/>
      <point x="803" y="79"/>
      <point x="849" y="260" type="curve"/>
      <point x="895" y="79"/>
      <point x="1010" y="-10"/>
      <point x="1182" y="-10" type="curve" smooth="yes"/>
      <point x="1410" y="-10"/>
      <point x="1518" y="148"/>
      <point x="1518" y="468" type="curve" smooth="yes"/>
      <point x="1518" y="1012" type="line" smooth="yes"/>
      <point x="1518" y="1332"/>
      <point x="1410" y="1490"/>
      <point x="1172" y="1490" type="curve"/>
      <point x="1172" y="1448" type="line"/>
      <point x="1422" y="1448"/>
      <point x="1472" y="1231"/>
      <point x="1472" y="1012" type="curve" smooth="yes"/>
      <point x="1472" y="468" type="line" smooth="yes"/>
      <point x="1472" y="249"/>
      <point x="1422" y="32"/>
      <point x="1172" y="32" type="curve" smooth="yes"/>
      <point x="952" y="32"/>
      <point x="872" y="249"/>
      <point x="872" y="468" type="curve" smooth="yes"/>
      <point x="872" y="1012" type="line"/>
      <point x="826" y="1012" type="line"/>
      <point x="826" y="468" type="line" smooth="yes"/>
      <point x="826" y="249"/>
      <point x="746" y="32"/>
      <point x="526" y="32" type="curve" smooth="yes"/>
      <point x="276" y="32"/>
      <point x="226" y="249"/>
      <point x="226" y="468" type="curve" smooth="yes"/>
      <point x="226" y="1012" type="line" smooth="yes"/>
      <point x="226" y="1231"/>
      <point x="276" y="1448"/>
      <point x="526" y="1448" type="curve"/>
    </contour>
  </outline>
</glyph>
<glyph name="uni047D" format="2">
  <advance width="1732"/>
  <unicode hex="047D"/>
  <outline>
    <contour>
      <point x="1281" y="1104" type="line" smooth="yes"/>
      <point x="1048" y="1104"/>
      <point x="1014" y="1319"/>
      <point x="864" y="1319" type="curve" smooth="yes"/>
      <point x="792" y="1319"/>
      <point x="685" y="1260"/>
      <point x="675" y="1110" type="curve"/>
      <point x="635" y="1121" type="line"/>
      <point x="649" y="1257"/>
      <point x="749" y="1359"/>
      <point x="864" y="1359" type="curve" smooth="yes"/>
      <point x="1046" y="1359"/>
      <point x="1070" y="1142"/>
      <point x="1281" y="1142" type="curve" smooth="yes"/>
    </contour>
    <contour>
      <point x="800" y="937" type="line"/>
      <point x="850" y="950"/>
      <point x="917" y="1011"/>
      <point x="917" y="1101" type="curve" smooth="yes"/>
      <point x="917" y="1181"/>
      <point x="864" y="1214"/>
      <point x="864" y="1214" type="curve"/>
      <point x="864" y="1259" type="line"/>
      <point x="926" y="1259"/>
      <point x="963" y="1181"/>
      <point x="963" y="1101" type="curve" smooth="yes"/>
      <point x="963" y="991"/>
      <point x="880" y="915"/>
      <point x="812" y="895" type="curve"/>
    </contour>
    <contour>
      <point x="800" y="1195" type="curve" smooth="yes"/>
      <point x="800" y="1231"/>
      <point x="828" y="1259"/>
      <point x="864" y="1259" type="curve" smooth="yes"/>
      <point x="900" y="1259"/>
      <point x="928" y="1231"/>
      <point x="928" y="1195" type="curve" smooth="yes"/>
      <point x="928" y="1159"/>
      <point x="900" y="1131"/>
      <point x="864" y="1131" type="curve" smooth="yes"/>
      <point x="828" y="1131"/>
      <point x="800" y="1159"/>
    </contour>
    <contour>
      <point x="534" y="1050" type="line" smooth="yes"/>
      <point x="324" y="1050"/>
      <point x="180" y="902"/>
      <point x="180" y="572" type="curve" smooth="yes"/>
      <point x="180" y="468" type="line" smooth="yes"/>
      <point x="180" y="138"/>
      <point x="324" y="-10"/>
      <point x="534" y="-10" type="curve" smooth="yes"/>
      <point x="696" y="-10"/>
      <point x="818" y="77"/>
      <point x="866" y="268" type="curve"/>
      <point x="914" y="77"/>
      <point x="1036" y="-10"/>
      <point x="1198" y="-10" type="curve" smooth="yes"/>
      <point x="1408" y="-10"/>
      <point x="1552" y="138"/>
      <point x="1552" y="468" type="curve" smooth="yes"/>
      <point x="1552" y="572" type="line" smooth="yes"/>
      <point x="1552" y="902"/>
      <point x="1408" y="1050"/>
      <point x="1198" y="1050" type="curve" smooth="yes"/>
      <point x="1198" y="1010" type="line" smooth="yes"/>
      <point x="1438" y="1010"/>
      <point x="1508" y="791"/>
      <point x="1508" y="572" type="curve" smooth="yes"/>
      <point x="1508" y="468" type="line" smooth="yes"/>
      <point x="1508" y="249"/>
      <point x="1438" y="30"/>
      <point x="1198" y="30" type="curve" smooth="yes"/>
      <point x="958" y="30"/>
      <point x="888" y="249"/>
      <point x="888" y="468" type="curve" smooth="yes"/>
      <point x="888" y="680" type="line"/>
      <point x="844" y="680" type="line"/>
      <point x="844" y="468" type="line" smooth="yes"/>
      <point x="844" y="249"/>
      <point x="774" y="30"/>
      <point x="534" y="30" type="curve" smooth="yes"/>
      <point x="294" y="30"/>
      <point x="224" y="249"/>
      <point x="224" y="468" type="curve" smooth="yes"/>
      <point x="224" y="572" type="line" smooth="yes"/>
      <point x="224" y="791"/>
      <point x="294" y="1010"/>
      <point x="534" y="1010" type="curve" smooth="yes"/>
    </contour>
  </outline>
</glyph>
<glyph name="uni0484" format="2">
  <advance width="0"/>
  <unicode hex="0484"/>
  <outline>
    <contour>
      <point x="412" y="1191" type="line" smooth="yes"/>
      <point x="580" y="1191"/>
      <point x="669" y="1406"/>
      <point x="759" y="1406" type="curve" smooth="yes"/>
      <point x="811" y="1406"/>
      <point x="878" y="1347"/>
      <point x="888" y="1197" type="curve"/>
      <point x="928" y="1208" type="line"/>
      <point x="914" y="1344"/>
      <point x="854" y="1446"/>
      <point x="759" y="1446" type="curve" smooth="yes"/>
      <point x="643" y="1446"/>
      <point x="563" y="1229"/>
      <point x="412" y="1229" type="curve" smooth="yes"/>
    </contour>
  </outline>
</glyph>
<glyph name="uni048C" format="2">
  <advance width="1184"/>
  <unicode hex="048C"/>
  <outline>
    <contour>
      <point x="590" y="1218" type="line"/>
      <point x="0" y="1218" type="line"/>
      <point x="0" y="1264"/>
      <point x="0" y="1214"/>
      <point x="0" y="1260" type="curve"/>
      <point x="590" y="1260" type="line"/>
    </contour>
    <contour>
      <point x="256" y="42" type="line"/>
      <point x="625" y="42" type="line"/>
      <point x="850" y="42"/>
      <point x="998" y="223"/>
      <point x="998" y="423" type="curve" smooth="yes"/>
      <point x="998" y="623"/>
      <point x="850" y="804"/>
      <point x="625" y="804" type="curve"/>
      <point x="256" y="804" type="line"/>
    </contour>
    <contour>
      <point x="210" y="1480" type="line"/>
      <point x="256" y="1480" type="line"/>
      <point x="256" y="846" type="line"/>
      <point x="625" y="846" type="line"/>
      <point x="849" y="846"/>
      <point x="1044" y="678"/>
      <point x="1044" y="423" type="curve" smooth="yes"/>
      <point x="1044" y="168"/>
      <point x="849" y="0"/>
      <point x="625" y="0" type="curve"/>
      <point x="210" y="0" type="line"/>
    </contour>
  </outline>
</glyph>
<glyph name="uni0499" format="2">
  <advance width="994"/>
  <unicode hex="0499"/>
  <outline>
    <contour>
      <point x="272" y="-275" type="line"/>
      <point x="298" y="-303"/>
      <point x="322" y="-327"/>
      <point x="394" y="-327" type="curve" smooth="yes"/>
      <point x="486" y="-327"/>
      <point x="497" y="-236"/>
      <point x="497" y="-200" type="curve" smooth="yes"/>
      <point x="497" y="0" type="line"/>
      <point x="542" y="0" type="line"/>
      <point x="542" y="-220" type="line" smooth="yes"/>
      <point x="542" y="-310"/>
      <point x="482" y="-370"/>
      <point x="394" y="-370" type="curve" smooth="yes"/>
      <point x="338" y="-370"/>
      <point x="293" y="-357"/>
      <point x="251" y="-316" type="curve"/>
    </contour>
    <contour>
      <point x="497" y="568" type="curve"/>
      <point x="697" y="568"/>
      <point x="771" y="689"/>
      <point x="771" y="789" type="curve" smooth="yes"/>
      <point x="771" y="899"/>
      <point x="687" y="1010"/>
      <point x="497" y="1010" type="curve" smooth="yes"/>
      <point x="292" y="1010"/>
      <point x="221" y="858"/>
      <point x="221" y="776" type="curve" smooth="yes"/>
      <point x="176" y="788" type="line"/>
      <point x="194" y="937"/>
      <point x="308" y="1050"/>
      <point x="497" y="1050" type="curve" smooth="yes"/>
      <point x="686" y="1050"/>
      <point x="816" y="949"/>
      <point x="816" y="791" type="curve" smooth="yes"/>
      <point x="816" y="633"/>
      <point x="699" y="565"/>
      <point x="617" y="546" type="curve"/>
      <point x="727" y="537"/>
      <point x="854" y="419"/>
      <point x="854" y="276" type="curve" smooth="yes"/>
      <point x="854" y="103"/>
      <point x="677" y="-10"/>
      <point x="497" y="-10" type="curve" smooth="yes"/>
      <point x="312" y="-10"/>
      <point x="163" y="118"/>
      <point x="140" y="295" type="curve"/>
      <point x="185" y="308" type="line" smooth="yes"/>
      <point x="201" y="154"/>
      <point x="327" y="30"/>
      <point x="497" y="30" type="curve" smooth="yes"/>
      <point x="687" y="30"/>
      <point x="809" y="159"/>
      <point x="809" y="279" type="curve" smooth="yes"/>
      <point x="809" y="399"/>
      <point x="697" y="528"/>
      <point x="497" y="528" type="curve"/>
      <point x="454" y="528"/>
      <point x="440" y="528"/>
      <point x="440" y="528" type="curve"/>
      <point x="440" y="568" type="line"/>
      <point x="440" y="568"/>
      <point x="455" y="568"/>
    </contour>
  </outline>
</glyph>
<glyph name="uni04BA" format="2">
  <advance width="1244"/>
  <unicode hex="04BA"/>
  <outline>
    <contour>
      <point x="609" y="890" type="curve" smooth="yes"/>
      <point x="857" y="890"/>
      <point x="1064" y="722"/>
      <point x="1064" y="412" type="curve"/>
      <point x="1064" y="0" type="line"/>
      <point x="1019" y="0" type="line"/>
      <point x="1019" y="412" type="line" smooth="yes"/>
      <point x="1019" y="631"/>
      <point x="879" y="850"/>
      <point x="609" y="850" type="curve" smooth="yes"/>
      <point x="394" y="850"/>
      <point x="260" y="791"/>
      <point x="203" y="754" type="curve"/>
      <point x="190" y="798" type="line"/>
      <point x="246" y="835"/>
      <point x="369" y="890"/>
    </contour>
    <contour>
      <point x="225" y="1480" type="line"/>
      <point x="225" y="0" type="line"/>
      <point x="180" y="0" type="line"/>
      <point x="180" y="1480" type="line"/>
    </contour>
  </outline>
</glyph>
<glyph name="uni04CF" format="2">
  <advance width="406"/>
  <unicode hex="04CF"/>
  <outline>
    <contour>
      <point x="180" y="0" type="line"/>
      <point x="180" y="1480" type="line"/>
      <point x="226" y="1480" type="line"/>
      <point x="226" y="0" type="line"/>
    </contour>
  </outline>
</glyph>
<glyph name="uni04FA" format="2">
  <advance width="1206"/>
  <unicode hex="04FA"/>
  <outline>
    <contour>
      <point x="256" y="42" type="line"/>
      <point x="482" y="42" type="line"/>
      <point x="482" y="0" type="line" smooth="yes"/>
      <point x="482" y="-178"/>
      <point x="349" y="-310"/>
      <point x="171" y="-310" type="curve" smooth="yes"/>
      <point x="167" y="-310"/>
      <point x="163" y="-310"/>
      <point x="159" y="-309" type="curve"/>
      <point x="159" y="-269" type="line"/>
      <point x="163" y="-270"/>
      <point x="167" y="-270"/>
      <point x="171" y="-270" type="curve" smooth="yes"/>
      <point x="326" y="-270"/>
      <point x="436" y="-155"/>
      <point x="436" y="0" type="curve" smooth="yes"/>
      <point x="256" y="0" type="line"/>
    </contour>
    <contour>
      <point x="590" y="719" type="line"/>
      <point x="0" y="719" type="line"/>
      <point x="0" y="765"/>
      <point x="0" y="715"/>
      <point x="0" y="761" type="curve"/>
      <point x="590" y="761" type="line"/>
    </contour>
    <contour>
      <point x="256" y="719" type="line"/>
      <point x="256" y="168" type="line"/>
      <point x="256" y="0" type="line"/>
      <point x="210" y="0" type="line"/>
      <point x="210" y="1480" type="line"/>
      <point x="1026" y="1480" type="line"/>
      <point x="1026" y="1438" type="line"/>
      <point x="256" y="1438" type="line"/>
    </contour>
  </outline>
</glyph>
<glyph name="uni04FC" format="2">
  <advance width="1342"/>
  <unicode hex="04FC"/>
  <outline>
    <contour>
      <point x="899" y="-269" type="curve"/>
      <point x="899" y="-309" type="line"/>
      <point x="903" y="-310"/>
      <point x="907" y="-310"/>
      <point x="911" y="-310" type="curve" smooth="yes"/>
      <point x="1089" y="-310"/>
      <point x="1222" y="-178"/>
      <point x="1222" y="0" type="curve" smooth="yes"/>
      <point x="1176" y="0" type="line" smooth="yes"/>
      <point x="1176" y="-155"/>
      <point x="1066" y="-270"/>
      <point x="911" y="-270" type="curve" smooth="yes"/>
      <point x="907" y="-270"/>
      <point x="903" y="-270"/>
    </contour>
    <contour>
      <point x="669" y="697" type="line"/>
      <point x="174" y="0" type="line"/>
      <point x="120" y="0" type="line"/>
      <point x="642" y="740" type="line"/>
      <point x="120" y="1480" type="line"/>
      <point x="174" y="1480" type="line"/>
      <point x="671" y="778" type="line"/>
      <point x="1168" y="1480" type="line"/>
      <point x="1222" y="1480" type="line"/>
      <point x="700" y="740" type="line"/>
      <point x="1222" y="0" type="line"/>
      <point x="1168" y="0" type="line"/>
    </contour>
  </outline>
</glyph>
<glyph name="uni0505" format="2">
  <advance width="1599"/>
  <unicode hex="0505"/>
  <outline>
    <contour>
      <point x="401" y="568" type="line"/>
      <point x="401" y="528" type="line"/>
      <point x="461" y="528" type="line"/>
      <point x="461" y="568" type="line"/>
    </contour>
    <contour>
      <point x="783" y="319" type="curve"/>
      <point x="783" y="61"/>
      <point x="929" y="-10"/>
      <point x="1101" y="-10" type="curve" smooth="yes"/>
      <point x="1273" y="-10"/>
      <point x="1419" y="92"/>
      <point x="1419" y="350" type="curve"/>
      <point x="1419" y="762" type="line"/>
      <point x="1374" y="762" type="line"/>
      <point x="1374" y="349" type="line" smooth="yes"/>
      <point x="1374" y="138"/>
      <point x="1263" y="30"/>
      <point x="1101" y="30" type="curve" smooth="yes"/>
      <point x="939" y="30"/>
      <point x="828" y="107"/>
      <point x="828" y="318" type="curve"/>
      <point x="828" y="461"/>
      <point x="721" y="568"/>
      <point x="461" y="568" type="curve"/>
      <point x="461" y="528" type="line"/>
      <point x="679" y="528"/>
      <point x="783" y="439"/>
    </contour>
    <contour>
      <point x="140" y="788" type="curve"/>
      <point x="185" y="776" type="line" smooth="yes"/>
      <point x="185" y="858"/>
      <point x="256" y="1010"/>
      <point x="461" y="1010" type="curve" smooth="yes"/>
      <point x="651" y="1010"/>
      <point x="735" y="899"/>
      <point x="735" y="789" type="curve" smooth="yes"/>
      <point x="735" y="689"/>
      <point x="661" y="568"/>
      <point x="461" y="568" type="curve"/>
      <point x="461" y="528" type="line"/>
      <point x="655" y="528"/>
      <point x="780" y="633"/>
      <point x="780" y="791" type="curve" smooth="yes"/>
      <point x="780" y="949"/>
      <point x="650" y="1050"/>
      <point x="461" y="1050" type="curve" smooth="yes"/>
      <point x="272" y="1050"/>
      <point x="158" y="937"/>
    </contour>
  </outline>
</glyph>
<glyph name="uni0512" format="2">
  <advance width="1206"/>
  <unicode hex="0512"/>
  <outline>
    <contour>
      <point x="337" y="1480" type="line"/>
      <point x="267" y="520" type="line" smooth="yes"/>
      <point x="245" y="221"/>
      <point x="185" y="35"/>
      <point x="40" y="35" type="curve"/>
      <point x="40" y="-10" type="line" smooth="yes"/>
      <point x="192" y="-10"/>
      <point x="289" y="121"/>
      <point x="315" y="520" type="curve" smooth="yes"/>
      <point x="380" y="1438" type="line"/>
      <point x="978" y="1438" type="line"/>
      <point x="978" y="0" type="line" smooth="yes"/>
      <point x="978" y="-155"/>
      <point x="868" y="-270"/>
      <point x="713" y="-270" type="curve" smooth="yes"/>
      <point x="709" y="-270"/>
      <point x="705" y="-270"/>
      <point x="701" y="-269" type="curve"/>
      <point x="701" y="-309" type="line"/>
      <point x="705" y="-310"/>
      <point x="709" y="-310"/>
      <point x="713" y="-310" type="curve" smooth="yes"/>
      <point x="891" y="-310"/>
      <point x="1024" y="-178"/>
      <point x="1024" y="0" type="curve" smooth="yes"/>
      <point x="1024" y="1480" type="line"/>
    </contour>
  </outline>
</glyph>
<glyph name="uni0513" format="2">
  <advance width="1005"/>
  <unicode hex="0513"/>
  <outline>
    <contour>
      <point x="296" y="1040" type="line"/>
      <point x="232" y="327" type="line" smooth="yes"/>
      <point x="215" y="137"/>
      <point x="163" y="29"/>
      <point x="40" y="29" type="curve"/>
      <point x="40" y="-10" type="line" smooth="yes"/>
      <point x="154" y="-10"/>
      <point x="250" y="36"/>
      <point x="277" y="327" type="curve" smooth="yes"/>
      <point x="341" y="998" type="line"/>
      <point x="779" y="998" type="line"/>
      <point x="779" y="0" type="line" smooth="yes"/>
      <point x="779" y="-155"/>
      <point x="668" y="-270"/>
      <point x="513" y="-270" type="curve" smooth="yes"/>
      <point x="509" y="-270"/>
      <point x="505" y="-270"/>
      <point x="501" y="-269" type="curve"/>
      <point x="501" y="-309" type="line"/>
      <point x="505" y="-310"/>
      <point x="509" y="-310"/>
      <point x="513" y="-310" type="curve" smooth="yes"/>
      <point x="691" y="-310"/>
      <point x="824" y="-178"/>
      <point x="824" y="0" type="curve" smooth="yes"/>
      <point x="824" y="1040" type="line"/>
    </contour>
  </outline>
</glyph>
<glyph name="uni0515" format="2">
  <advance width="1650"/>
  <unicode hex="0515"/>
  <outline>
    <contour>
      <point x="1112" y="520" type="line"/>
      <point x="786" y="1019" type="line"/>
      <point x="824" y="1040" type="line"/>
      <point x="1151" y="550" type="line"/>
      <point x="1478" y="1040" type="line"/>
      <point x="1530" y="1040" type="line"/>
      <point x="1190" y="520" type="line"/>
      <point x="1530" y="0" type="line"/>
      <point x="1478" y="0" type="line"/>
      <point x="1151" y="490" type="line"/>
      <point x="824" y="0" type="line"/>
      <point x="772" y="0" type="line"/>
    </contour>
    <contour>
      <point x="809" y="998" type="line"/>
      <point x="341" y="998" type="line"/>
      <point x="277" y="327" type="line" smooth="yes"/>
      <point x="250" y="36"/>
      <point x="154" y="-10"/>
      <point x="40" y="-10" type="curve" smooth="yes"/>
      <point x="40" y="30" type="line"/>
      <point x="163" y="30"/>
      <point x="215" y="137"/>
      <point x="232" y="327" type="curve" smooth="yes"/>
      <point x="296" y="1040" type="line"/>
      <point x="824" y="1040" type="line"/>
    </contour>
  </outline>
</glyph>
<glyph name="uni0518" format="2">
  <advance width="1900"/>
  <unicode hex="0518"/>
  <outline>
    <contour>
      <point x="585" y="643" type="line"/>
      <point x="154" y="0" type="line"/>
      <point x="100" y="0" type="line"/>
      <point x="539" y="652" type="line"/>
    </contour>
    <contour>
      <point x="904" y="1438" type="line"/>
      <point x="535" y="1438" type="line"/>
      <point x="310" y="1438"/>
      <point x="162" y="1257"/>
      <point x="162" y="1057" type="curve" smooth="yes"/>
      <point x="162" y="857"/>
      <point x="310" y="676"/>
      <point x="535" y="676" type="curve"/>
      <point x="904" y="676" type="line"/>
    </contour>
    <contour>
      <point x="950" y="0" type="line"/>
      <point x="904" y="0" type="line"/>
      <point x="904" y="634" type="line"/>
      <point x="535" y="634" type="line"/>
      <point x="311" y="634"/>
      <point x="116" y="802"/>
      <point x="116" y="1057" type="curve" smooth="yes"/>
      <point x="116" y="1312"/>
      <point x="311" y="1480"/>
      <point x="535" y="1480" type="curve"/>
      <point x="950" y="1480" type="line"/>
    </contour>
    <contour>
      <point x="1637" y="761" type="line"/>
      <point x="1637" y="719" type="line"/>
      <point x="950" y="719" type="line"/>
      <point x="950" y="42" type="line"/>
      <point x="1720" y="42" type="line"/>
      <point x="1720" y="0" type="line"/>
      <point x="904" y="0" type="line"/>
      <point x="950" y="1480" type="line"/>
      <point x="1720" y="1480" type="line"/>
      <point x="1720" y="1438" type="line"/>
      <point x="950" y="1438" type="line"/>
      <point x="950" y="761" type="line"/>
    </contour>
  </outline>
</glyph>
<glyph name="uni1DA4" format="2">
  <advance width="313"/>
  <unicode hex="1DA4"/>
  <outline>
    <contour>
      <point x="0" y="1097" type="line"/>
      <point x="313" y="1097" type="line"/>
      <point x="313" y="1127" type="line"/>
      <point x="0" y="1127" type="line"/>
    </contour>
    <contour>
      <point x="108" y="1583" type="curve" smooth="yes"/>
      <point x="108" y="1610"/>
      <point x="129" y="1631"/>
      <point x="156" y="1631" type="curve" smooth="yes"/>
      <point x="183" y="1631"/>
      <point x="204" y="1610"/>
      <point x="204" y="1583" type="curve" smooth="yes"/>
      <point x="204" y="1556"/>
      <point x="183" y="1535"/>
      <point x="156" y="1535" type="curve" smooth="yes"/>
      <point x="129" y="1535"/>
      <point x="108" y="1556"/>
    </contour>
    <contour>
      <point x="173" y="810" type="line"/>
      <point x="173" y="1039" type="line"/>
      <point x="173" y="1413" type="line"/>
      <point x="140" y="1413" type="line"/>
      <point x="140" y="1035" type="line"/>
      <point x="140" y="810" type="line"/>
    </contour>
  </outline>
</glyph>
<glyph name="uni1DC6" format="2">
  <advance width="0"/>
  <unicode hex="1DC6"/>
  <anchor x="682" y="1040" name="_top_center"/>
  <outline>
    <contour>
      <point x="963" y="1224" type="line"/>
      <point x="765" y="1480" type="line"/>
      <point x="821" y="1480" type="line"/>
      <point x="1007" y="1224" type="line"/>
    </contour>
    <contour>
      <point x="285" y="1440" type="line"/>
      <point x="285" y="1480" type="line"/>
      <point x="765" y="1480" type="line"/>
      <point x="821" y="1440" type="line"/>
    </contour>
  </outline>
</glyph>
<glyph name="uni1EFE" format="2">
  <advance width="1155"/>
  <unicode hex="1EFE"/>
  <outline>
    <contour>
      <point x="331" y="32" type="curve" smooth="yes"/>
      <point x="396" y="32"/>
      <point x="457" y="47"/>
      <point x="492" y="146" type="curve"/>
      <point x="986" y="1480" type="line"/>
      <point x="1035" y="1480" type="line"/>
      <point x="530" y="128" type="line"/>
      <point x="517" y="84"/>
      <point x="457" y="-10"/>
      <point x="331" y="-10" type="curve" smooth="yes"/>
      <point x="211" y="-10"/>
      <point x="120" y="81"/>
      <point x="120" y="201" type="curve" smooth="yes"/>
      <point x="120" y="321"/>
      <point x="212" y="412"/>
      <point x="332" y="412" type="curve"/>
      <point x="590" y="412" type="line"/>
      <point x="590" y="370" type="line"/>
      <point x="332" y="370" type="line"/>
      <point x="232" y="370"/>
      <point x="166" y="301"/>
      <point x="166" y="201" type="curve" smooth="yes"/>
      <point x="166" y="101"/>
      <point x="231" y="32"/>
    </contour>
    <contour>
      <point x="614" y="404" type="line"/>
      <point x="591" y="327" type="line"/>
      <point x="175" y="1480" type="line"/>
      <point x="224" y="1480" type="line"/>
    </contour>
  </outline>
</glyph>
<glyph name="uni1FC1" format="2">
  <advance width="834"/>
  <unicode hex="1FC1"/>
  <anchor x="418" y="1040" name="_top_center"/>
  <outline>
    <contour>
      <point x="160" y="1591" type="curve"/>
      <point x="120" y="1602" type="line"/>
      <point x="134" y="1738"/>
      <point x="194" y="1840"/>
      <point x="289" y="1840" type="curve" smooth="yes"/>
      <point x="429" y="1840"/>
      <point x="437" y="1624"/>
      <point x="545" y="1624" type="curve" smooth="yes"/>
      <point x="597" y="1624"/>
      <point x="664" y="1680"/>
      <point x="674" y="1830" type="curve"/>
      <point x="714" y="1819" type="line"/>
      <point x="700" y="1683"/>
      <point x="640" y="1584"/>
      <point x="545" y="1584" type="curve" smooth="yes"/>
      <point x="405" y="1584"/>
      <point x="397" y="1800"/>
      <point x="289" y="1800" type="curve" smooth="yes"/>
      <point x="237" y="1800"/>
      <point x="170" y="1741"/>
    </contour>
    <contour>
      <point x="513" y="1426" type="curve" smooth="yes"/>
      <point x="513" y="1462"/>
      <point x="541" y="1490"/>
      <point x="577" y="1490" type="curve" smooth="yes"/>
      <point x="613" y="1490"/>
      <point x="641" y="1462"/>
      <point x="641" y="1426" type="curve" smooth="yes"/>
      <point x="641" y="1390"/>
      <point x="613" y="1362"/>
      <point x="577" y="1362" type="curve" smooth="yes"/>
      <point x="541" y="1362"/>
      <point x="513" y="1390"/>
    </contour>
    <contour>
      <point x="193" y="1426" type="curve" smooth="yes"/>
      <point x="193" y="1462"/>
      <point x="221" y="1490"/>
      <point x="257" y="1490" type="curve" smooth="yes"/>
      <point x="293" y="1490"/>
      <point x="321" y="1462"/>
      <point x="321" y="1426" type="curve" smooth="yes"/>
      <point x="321" y="1390"/>
      <point x="293" y="1362"/>
      <point x="257" y="1362" type="curve" smooth="yes"/>
      <point x="221" y="1362"/>
      <point x="193" y="1390"/>
    </contour>
  </outline>
</glyph>
<glyph name="uni1FEF" format="2">
  <advance width="482"/>
  <unicode hex="1FEF"/>
  <anchor x="472" y="1480" name="_top_left"/>
  <anchor x="529" y="1224" name="_top_left_O2"/>
  <anchor x="340" y="1040" name="_top_center_1F"/>
  <outline>
    <contour>
      <point x="318" y="1224" type="line"/>
      <point x="120" y="1480" type="line"/>
      <point x="176" y="1480" type="line"/>
      <point x="362" y="1224" type="line"/>
    </contour>
  </outline>
</glyph>
<glyph name="uni1FFD" format="2">
  <advance width="482"/>
  <unicode hex="1FFD"/>
  <anchor x="482" y="1480" name="_top_left"/>
  <anchor x="372" y="1224" name="_top_left_O2"/>
  <anchor x="142" y="1140" name="_dieresis_center"/>
  <anchor x="142" y="1040" name="_top_center_1F"/>
  <outline>
    <contour>
      <point x="164" y="1224" type="line"/>
      <point x="362" y="1480" type="line"/>
      <point x="306" y="1480" type="line"/>
      <point x="120" y="1224" type="line"/>
    </contour>
  </outline>
</glyph>
<glyph name="uni2056" format="2">
  <advance width="954"/>
  <unicode hex="2056"/>
  <outline>
    <contour>
      <point x="646" y="986" type="curve" smooth="yes"/>
      <point x="646" y="1022"/>
      <point x="674" y="1050"/>
      <point x="710" y="1050" type="curve" smooth="yes"/>
      <point x="746" y="1050"/>
      <point x="774" y="1022"/>
      <point x="774" y="986" type="curve" smooth="yes"/>
      <point x="774" y="950"/>
      <point x="746" y="922"/>
      <point x="710" y="922" type="curve" smooth="yes"/>
      <point x="674" y="922"/>
      <point x="646" y="950"/>
    </contour>
    <contour>
      <point x="646" y="54" type="curve" smooth="yes"/>
      <point x="646" y="90"/>
      <point x="674" y="118"/>
      <point x="710" y="118" type="curve" smooth="yes"/>
      <point x="746" y="118"/>
      <point x="774" y="90"/>
      <point x="774" y="54" type="curve" smooth="yes"/>
      <point x="774" y="18"/>
      <point x="746" y="-10"/>
      <point x="710" y="-10" type="curve" smooth="yes"/>
      <point x="674" y="-10"/>
      <point x="646" y="18"/>
    </contour>
    <contour>
      <point x="180" y="520" type="curve" smooth="yes"/>
      <point x="180" y="556"/>
      <point x="208" y="584"/>
      <point x="244" y="584" type="curve" smooth="yes"/>
      <point x="280" y="584"/>
      <point x="308" y="556"/>
      <point x="308" y="520" type="curve" smooth="yes"/>
      <point x="308" y="484"/>
      <point x="280" y="456"/>
      <point x="244" y="456" type="curve" smooth="yes"/>
      <point x="208" y="456"/>
      <point x="180" y="484"/>
    </contour>
  </outline>
</glyph>
<glyph name="uni2076" format="2">
  <advance width="740"/>
  <unicode hex="2076"/>
  <outline>
    <contour>
      <point x="127" y="1157" type="curve"/>
      <point x="149" y="1301"/>
      <point x="254" y="1377"/>
      <point x="383" y="1377" type="curve" smooth="yes"/>
      <point x="528" y="1377"/>
      <point x="648" y="1259"/>
      <point x="648" y="1090" type="curve" smooth="yes"/>
      <point x="648" y="921"/>
      <point x="528" y="804"/>
      <point x="382" y="804" type="curve" smooth="yes"/>
      <point x="270" y="804"/>
      <point x="173" y="873"/>
      <point x="134" y="981" type="curve" smooth="yes"/>
      <point x="116" y="1022"/>
      <point x="92" y="1099"/>
      <point x="92" y="1221" type="curve" smooth="yes"/>
      <point x="92" y="1521"/>
      <point x="238" y="1674"/>
      <point x="425" y="1674" type="curve" smooth="yes"/>
      <point x="563" y="1674"/>
      <point x="620" y="1594"/>
      <point x="620" y="1594" type="curve"/>
      <point x="602" y="1567" type="line"/>
      <point x="602" y="1567"/>
      <point x="552" y="1644"/>
      <point x="417" y="1644" type="curve" smooth="yes"/>
      <point x="282" y="1644"/>
      <point x="104" y="1525"/>
    </contour>
    <contour>
      <point x="144" y="1090" type="curve" smooth="yes"/>
      <point x="144" y="958"/>
      <point x="231" y="834"/>
      <point x="380" y="834" type="curve" smooth="yes"/>
      <point x="529" y="834"/>
      <point x="615" y="958"/>
      <point x="615" y="1090" type="curve" smooth="yes"/>
      <point x="615" y="1222"/>
      <point x="523" y="1346"/>
      <point x="380" y="1346" type="curve" smooth="yes"/>
      <point x="237" y="1346"/>
      <point x="144" y="1222"/>
    </contour>
  </outline>
</glyph>
<glyph name="uni207E" format="2">
  <advance width="426"/>
  <unicode hex="207E"/>
  <outline>
    <contour>
      <point x="366" y="1193" type="curve" smooth="yes"/>
      <point x="366" y="845"/>
      <point x="125" y="645"/>
      <point x="41" y="613" type="curve"/>
      <point x="30" y="643" type="line"/>
      <point x="99" y="672"/>
      <point x="332" y="850"/>
      <point x="332" y="1193" type="curve" smooth="yes"/>
      <point x="332" y="1536"/>
      <point x="99" y="1714"/>
      <point x="30" y="1743" type="curve"/>
      <point x="41" y="1773" type="line"/>
      <point x="125" y="1741"/>
      <point x="366" y="1541"/>
    </contour>
  </outline>
</glyph>
<glyph name="uni2082" format="2">
  <advance width="740"/>
  <unicode hex="2082"/>
  <outline>
    <contour>
      <point x="111" y="-188" type="line"/>
      <point x="111" y="-121"/>
      <point x="113" y="-11"/>
      <point x="367" y="134" type="curve" smooth="yes"/>
      <point x="530" y="227"/>
      <point x="592" y="293"/>
      <point x="592" y="418" type="curve" smooth="yes"/>
      <point x="592" y="557"/>
      <point x="503" y="646"/>
      <point x="370" y="646" type="curve" smooth="yes"/>
      <point x="234" y="646"/>
      <point x="148" y="535"/>
      <point x="148" y="384" type="curve" smooth="yes"/>
      <point x="148" y="382"/>
      <point x="148" y="380"/>
      <point x="149" y="376" type="curve"/>
      <point x="115" y="384" type="line"/>
      <point x="115" y="563"/>
      <point x="224" y="676"/>
      <point x="370" y="676" type="curve" smooth="yes"/>
      <point x="516" y="676"/>
      <point x="625" y="584"/>
      <point x="625" y="418" type="curve" smooth="yes"/>
      <point x="625" y="256"/>
      <point x="502" y="175"/>
      <point x="372" y="101" type="curve" smooth="yes"/>
      <point x="253" y="33"/>
      <point x="159" y="-42"/>
      <point x="145" y="-158" type="curve"/>
      <point x="630" y="-158" type="line"/>
      <point x="630" y="-188" type="line"/>
      <point x="143" y="-188" type="line"/>
      <point x="120" y="-188" type="line"/>
    </contour>
  </outline>
</glyph>
<glyph name="uni2089" format="2">
  <advance width="740"/>
  <unicode hex="2089"/>
  <outline>
    <contour>
      <point x="613" y="323" type="curve"/>
      <point x="591" y="179"/>
      <point x="486" y="103"/>
      <point x="357" y="103" type="curve" smooth="yes"/>
      <point x="212" y="103"/>
      <point x="92" y="221"/>
      <point x="92" y="390" type="curve" smooth="yes"/>
      <point x="92" y="559"/>
      <point x="212" y="676"/>
      <point x="358" y="676" type="curve" smooth="yes"/>
      <point x="470" y="676"/>
      <point x="567" y="607"/>
      <point x="606" y="499" type="curve" smooth="yes"/>
      <point x="624" y="458"/>
      <point x="648" y="381"/>
      <point x="648" y="259" type="curve" smooth="yes"/>
      <point x="648" y="-41"/>
      <point x="502" y="-194"/>
      <point x="315" y="-194" type="curve" smooth="yes"/>
      <point x="177" y="-194"/>
      <point x="120" y="-114"/>
      <point x="120" y="-114" type="curve"/>
      <point x="138" y="-87" type="line"/>
      <point x="138" y="-87"/>
      <point x="188" y="-164"/>
      <point x="323" y="-164" type="curve" smooth="yes"/>
      <point x="458" y="-164"/>
      <point x="636" y="-45"/>
    </contour>
    <contour>
      <point x="596" y="390" type="curve" smooth="yes"/>
      <point x="596" y="522"/>
      <point x="509" y="646"/>
      <point x="360" y="646" type="curve" smooth="yes"/>
      <point x="211" y="646"/>
      <point x="125" y="522"/>
      <point x="125" y="390" type="curve" smooth="yes"/>
      <point x="125" y="258"/>
      <point x="217" y="134"/>
      <point x="360" y="134" type="curve" smooth="yes"/>
      <point x="503" y="134"/>
      <point x="596" y="258"/>
    </contour>
  </outline>
</glyph>
<glyph name="uni2095" format="2">
  <advance width="678"/>
  <unicode hex="2095"/>
  <outline>
    <contour>
      <point x="537" y="-188" type="line"/>
      <point x="537" y="140" type="line" smooth="yes"/>
      <point x="537" y="266"/>
      <point x="495" y="391"/>
      <point x="339" y="391" type="curve" smooth="yes"/>
      <point x="183" y="391"/>
      <point x="141" y="266"/>
      <point x="141" y="140" type="curve" smooth="yes"/>
      <point x="141" y="-188" type="line"/>
      <point x="108" y="-188" type="line"/>
      <point x="108" y="670" type="line"/>
      <point x="141" y="670" type="line"/>
      <point x="141" y="290" type="line"/>
      <point x="163" y="354"/>
      <point x="213" y="421"/>
      <point x="349" y="421" type="curve" smooth="yes"/>
      <point x="490" y="421"/>
      <point x="570" y="330"/>
      <point x="570" y="144" type="curve"/>
      <point x="570" y="-188" type="line"/>
    </contour>
  </outline>
</glyph>
<glyph name="uni2098" format="2">
  <advance width="1012"/>
  <unicode hex="2098"/>
  <outline>
    <contour>
      <point x="490" y="-188" type="line"/>
      <point x="490" y="140" type="line" smooth="yes"/>
      <point x="490" y="266"/>
      <point x="453" y="391"/>
      <point x="314" y="391" type="curve" smooth="yes"/>
      <point x="175" y="391"/>
      <point x="140" y="266"/>
      <point x="140" y="140" type="curve" smooth="yes"/>
      <point x="140" y="-188" type="line"/>
      <point x="108" y="-188" type="line"/>
      <point x="108" y="414" type="line"/>
      <point x="140" y="414" type="line"/>
      <point x="140" y="290" type="line"/>
      <point x="156" y="354"/>
      <point x="200" y="421"/>
      <point x="324" y="421" type="curve" smooth="yes"/>
      <point x="422" y="421"/>
      <point x="484" y="365"/>
      <point x="508" y="247" type="curve"/>
      <point x="528" y="364"/>
      <point x="591" y="421"/>
      <point x="700" y="421" type="curve" smooth="yes"/>
      <point x="825" y="421"/>
      <point x="904" y="330"/>
      <point x="904" y="144" type="curve" smooth="yes"/>
      <point x="904" y="-188" type="line"/>
      <point x="872" y="-188" type="line"/>
      <point x="872" y="140" type="line" smooth="yes"/>
      <point x="872" y="266"/>
      <point x="831" y="391"/>
      <point x="692" y="391" type="curve" smooth="yes"/>
      <point x="564" y="391"/>
      <point x="522" y="266"/>
      <point x="522" y="140" type="curve" smooth="yes"/>
      <point x="522" y="-188" type="line"/>
    </contour>
  </outline>
</glyph>
<glyph name="franc" format="2">
  <advance width="1246"/>
  <unicode hex="20A3"/>
  <outline>
    <contour>
      <point x="576" y="335" type="line"/>
      <point x="0" y="335" type="line"/>
      <point x="0" y="347"/>
      <point x="0" y="365"/>
      <point x="0" y="377" type="curve"/>
      <point x="576" y="377" type="line"/>
    </contour>
    <contour>
      <point x="296" y="168" type="line"/>
      <point x="296" y="0" type="line"/>
      <point x="250" y="0" type="line"/>
      <point x="250" y="1480" type="line"/>
      <point x="1066" y="1480" type="line"/>
      <point x="1066" y="1438" type="line"/>
      <point x="296" y="1438" type="line"/>
      <point x="296" y="761" type="line"/>
      <point x="983" y="761" type="line"/>
      <point x="983" y="719" type="line"/>
      <point x="296" y="719" type="line"/>
    </contour>
  </outline>
</glyph>
<glyph name="uni20AF" format="2">
  <advance width="2704"/>
  <unicode hex="20AF"/>
  <outline>
    <contour>
      <point x="1018" y="1448" type="curve" smooth="yes"/>
      <point x="1256" y="1448"/>
      <point x="1577" y="1252"/>
      <point x="1577" y="853" type="curve" smooth="yes"/>
      <point x="1577" y="817"/>
      <point x="1575" y="779"/>
      <point x="1569" y="740" type="curve" smooth="yes"/>
      <point x="1502" y="264"/>
      <point x="1179" y="32"/>
      <point x="919" y="32" type="curve" smooth="yes"/>
      <point x="649" y="32"/>
      <point x="683" y="412"/>
      <point x="383" y="412" type="curve" smooth="yes"/>
      <point x="377" y="372" type="line" smooth="yes"/>
      <point x="647" y="372"/>
      <point x="610" y="-10"/>
      <point x="913" y="-10" type="curve" smooth="yes"/>
      <point x="1261" y="-10"/>
      <point x="1553" y="300"/>
      <point x="1615" y="740" type="curve" smooth="yes"/>
      <point x="1620" y="779"/>
      <point x="1623" y="817"/>
      <point x="1623" y="853" type="curve" smooth="yes"/>
      <point x="1623" y="1232"/>
      <point x="1341" y="1490"/>
      <point x="1024" y="1490" type="curve" smooth="yes"/>
      <point x="699" y="1490"/>
      <point x="531" y="1414"/>
      <point x="311" y="1220" type="curve"/>
      <point x="329" y="1179" type="line"/>
      <point x="524" y="1362"/>
      <point x="715" y="1448"/>
    </contour>
    <contour>
      <point x="142" y="201" type="curve" smooth="yes"/>
      <point x="140" y="190"/>
      <point x="140" y="179"/>
      <point x="140" y="169" type="curve" smooth="yes"/>
      <point x="140" y="65"/>
      <point x="215" y="-10"/>
      <point x="324" y="-10" type="curve" smooth="yes"/>
      <point x="444" y="-10"/>
      <point x="547" y="81"/>
      <point x="564" y="201" type="curve" smooth="yes"/>
      <point x="566" y="212"/>
      <point x="566" y="223"/>
      <point x="566" y="233" type="curve" smooth="yes"/>
      <point x="566" y="337"/>
      <point x="492" y="412"/>
      <point x="383" y="412" type="curve" smooth="yes"/>
      <point x="263" y="412"/>
      <point x="159" y="321"/>
    </contour>
    <contour>
      <point x="187" y="201" type="curve" smooth="yes"/>
      <point x="201" y="301"/>
      <point x="277" y="372"/>
      <point x="377" y="372" type="curve" smooth="yes"/>
      <point x="467" y="372"/>
      <point x="521" y="315"/>
      <point x="521" y="231" type="curve" smooth="yes"/>
      <point x="521" y="221"/>
      <point x="520" y="211"/>
      <point x="519" y="201" type="curve" smooth="yes"/>
      <point x="505" y="101"/>
      <point x="429" y="30"/>
      <point x="329" y="30" type="curve" smooth="yes"/>
      <point x="239" y="30"/>
      <point x="185" y="87"/>
      <point x="185" y="171" type="curve" smooth="yes"/>
      <point x="185" y="181"/>
      <point x="186" y="191"/>
    </contour>
    <contour>
      <point x="692" y="1427" type="line"/>
      <point x="519" y="201" type="line"/>
      <point x="566" y="201" type="line"/>
      <point x="742" y="1447" type="line"/>
    </contour>
    <contour>
      <point x="1725" y="522" type="line" smooth="yes"/>
      <point x="1769" y="834"/>
      <point x="1964" y="1050"/>
      <point x="2211" y="1050" type="curve" smooth="yes"/>
      <point x="2428" y="1050"/>
      <point x="2564" y="881"/>
      <point x="2564" y="629" type="curve" smooth="yes"/>
      <point x="2564" y="594"/>
      <point x="2561" y="558"/>
      <point x="2556" y="520" type="curve" smooth="yes"/>
      <point x="2512" y="208"/>
      <point x="2309" y="-10"/>
      <point x="2062" y="-10" type="curve" smooth="yes"/>
      <point x="1862" y="-10"/>
      <point x="1748" y="144"/>
      <point x="1733" y="260" type="curve"/>
      <point x="1634" y="-440" type="line"/>
      <point x="1589" y="-440" type="line"/>
    </contour>
    <contour>
      <point x="1765" y="520" type="curve"/>
      <point x="1760" y="482"/>
      <point x="1757" y="446"/>
      <point x="1757" y="413" type="curve" smooth="yes"/>
      <point x="1757" y="151"/>
      <point x="1912" y="30"/>
      <point x="2067" y="30" type="curve" smooth="yes"/>
      <point x="2242" y="30"/>
      <point x="2464" y="184"/>
      <point x="2511" y="520" type="curve" smooth="yes"/>
      <point x="2516" y="557"/>
      <point x="2519" y="592"/>
      <point x="2519" y="625" type="curve" smooth="yes"/>
      <point x="2519" y="888"/>
      <point x="2361" y="1010"/>
      <point x="2205" y="1010" type="curve" smooth="yes"/>
      <point x="2030" y="1010"/>
      <point x="1812" y="856"/>
    </contour>
  </outline>
</glyph>
<glyph name="uni20B0" format="2">
  <advance width="1457"/>
  <unicode hex="20B0"/>
  <outline>
    <contour>
      <point x="1007" y="-450" type="curve" smooth="yes"/>
      <point x="1134" y="-450"/>
      <point x="1317" y="-330"/>
      <point x="1317" y="-10" type="curve" smooth="yes"/>
      <point x="1317" y="170"/>
      <point x="1205" y="299"/>
      <point x="1205" y="299" type="curve"/>
      <point x="845" y="758" type="line"/>
      <point x="845" y="758"/>
      <point x="752" y="884"/>
      <point x="752" y="1050" type="curve" smooth="yes"/>
      <point x="752" y="1290"/>
      <point x="870" y="1450"/>
      <point x="1007" y="1450" type="curve" smooth="yes"/>
      <point x="1144" y="1450"/>
      <point x="1262" y="1290"/>
      <point x="1262" y="1050" type="curve" smooth="yes"/>
      <point x="1262" y="904"/>
      <point x="1169" y="758"/>
      <point x="1169" y="758" type="curve"/>
      <point x="750" y="44" type="line"/>
      <point x="484" y="513" type="line"/>
      <point x="432" y="513" type="line"/>
      <point x="140" y="0" type="line"/>
      <point x="192" y="0" type="line"/>
      <point x="457" y="462" type="line"/>
      <point x="724" y="0" type="line"/>
      <point x="776" y="0" type="line"/>
      <point x="1205" y="731" type="line"/>
      <point x="1205" y="731"/>
      <point x="1307" y="880"/>
      <point x="1307" y="1050" type="curve" smooth="yes"/>
      <point x="1307" y="1370"/>
      <point x="1134" y="1490"/>
      <point x="1007" y="1490" type="curve" smooth="yes"/>
      <point x="880" y="1490"/>
      <point x="707" y="1370"/>
      <point x="707" y="1050" type="curve" smooth="yes"/>
      <point x="707" y="860"/>
      <point x="809" y="731"/>
      <point x="809" y="731" type="curve"/>
      <point x="1169" y="272" type="line"/>
      <point x="1169" y="272"/>
      <point x="1272" y="146"/>
      <point x="1272" y="-10" type="curve" smooth="yes"/>
      <point x="1272" y="-250"/>
      <point x="1144" y="-410"/>
      <point x="1007" y="-410" type="curve" smooth="yes"/>
      <point x="889" y="-410"/>
      <point x="825" y="-348"/>
      <point x="769" y="-238" type="curve"/>
      <point x="733" y="-259" type="line"/>
      <point x="793" y="-395"/>
      <point x="891" y="-450"/>
    </contour>
  </outline>
</glyph>
<glyph name="uni20B4" format="2">
  <advance width="1406"/>
  <unicode hex="20B4"/>
  <outline>
    <contour>
      <point x="703" y="1448" type="curve" smooth="yes"/>
      <point x="888" y="1448"/>
      <point x="1066" y="1364"/>
      <point x="1066" y="1124" type="curve" smooth="yes"/>
      <point x="1066" y="884"/>
      <point x="856" y="816"/>
      <point x="703" y="769" type="curve" smooth="yes"/>
      <point x="435" y="688"/>
      <point x="254" y="616"/>
      <point x="254" y="356" type="curve" smooth="yes"/>
      <point x="254" y="96"/>
      <point x="434" y="-10"/>
      <point x="703" y="-10" type="curve" smooth="yes"/>
      <point x="964" y="-10"/>
      <point x="1144" y="143"/>
      <point x="1149" y="381" type="curve"/>
      <point x="1103" y="394" type="line" smooth="yes"/>
      <point x="1103" y="161"/>
      <point x="928" y="32"/>
      <point x="703" y="32" type="curve" smooth="yes"/>
      <point x="509" y="32"/>
      <point x="300" y="106"/>
      <point x="300" y="356" type="curve" smooth="yes"/>
      <point x="300" y="606"/>
      <point x="502" y="660"/>
      <point x="703" y="721" type="curve" smooth="yes"/>
      <point x="971" y="803"/>
      <point x="1112" y="894"/>
      <point x="1112" y="1124" type="curve" smooth="yes"/>
      <point x="1112" y="1354"/>
      <point x="959" y="1490"/>
      <point x="703" y="1490" type="curve" smooth="yes"/>
      <point x="442" y="1490"/>
      <point x="282" y="1347"/>
      <point x="277" y="1109" type="curve"/>
      <point x="323" y="1096" type="line" smooth="yes"/>
      <point x="323" y="1329"/>
      <point x="478" y="1448"/>
    </contour>
    <contour>
      <point x="325" y="575" type="line"/>
      <point x="1266" y="575" type="line"/>
      <point x="1266" y="617" type="line"/>
      <point x="328" y="617" type="line"/>
      <point x="140" y="617" type="line"/>
      <point x="140" y="605"/>
      <point x="140" y="587"/>
      <point x="140" y="575" type="curve"/>
    </contour>
    <contour>
      <point x="328" y="863" type="line"/>
      <point x="1266" y="863" type="line"/>
      <point x="1266" y="905" type="line"/>
      <point x="328" y="905" type="line"/>
      <point x="140" y="905" type="line"/>
      <point x="140" y="893"/>
      <point x="140" y="875"/>
      <point x="140" y="863" type="curve"/>
    </contour>
  </outline>
</glyph>
<glyph name="uni20B9" format="2">
  <advance width="1154"/>
  <unicode hex="20B9"/>
  <outline>
    <contour>
      <point x="478" y="1035" type="line"/>
      <point x="226" y="1035" type="line"/>
      <point x="226" y="1047"/>
      <point x="226" y="1065"/>
      <point x="226" y="1077" type="curve"/>
      <point x="478" y="1077" type="line"/>
      <point x="1230" y="1077" type="line"/>
      <point x="1230" y="1035" type="line"/>
    </contour>
    <contour>
      <point x="1230" y="1480" type="line"/>
      <point x="1230" y="1438" type="line"/>
      <point x="715" y="1438" type="line"/>
      <point x="595" y="1480" type="line"/>
    </contour>
    <contour>
      <point x="983" y="0" type="line"/>
      <point x="226" y="642" type="line"/>
      <point x="305" y="634" type="line"/>
      <point x="1054" y="0" type="line"/>
    </contour>
    <contour>
      <point x="226" y="1480" type="line"/>
      <point x="595" y="1480" type="line"/>
      <point x="819" y="1480"/>
      <point x="1014" y="1312"/>
      <point x="1014" y="1057" type="curve" smooth="yes"/>
      <point x="1014" y="802"/>
      <point x="819" y="634"/>
      <point x="595" y="634" type="curve"/>
      <point x="277" y="634" type="line"/>
      <point x="226" y="642" type="line"/>
      <point x="226" y="676" type="line"/>
      <point x="595" y="676" type="line"/>
      <point x="820" y="676"/>
      <point x="968" y="857"/>
      <point x="968" y="1057" type="curve" smooth="yes"/>
      <point x="968" y="1257"/>
      <point x="820" y="1438"/>
      <point x="595" y="1438" type="curve"/>
      <point x="226" y="1438" type="line"/>
    </contour>
  </outline>
</glyph>
<glyph name="uni2102" format="2">
  <advance width="1302"/>
  <unicode hex="2102"/>
  <note>From Noto Sans (https://notofonts.github.io/)</note>
  <outline>
    <contour>
      <point x="788" y="-21" type="curve" smooth="yes"/>
      <point x="635" y="-21"/>
      <point x="506" y="10"/>
      <point x="404" y="72" type="curve" smooth="yes"/>
      <point x="302" y="134"/>
      <point x="225" y="222"/>
      <point x="175" y="337" type="curve" smooth="yes"/>
      <point x="125" y="452"/>
      <point x="100" y="587"/>
      <point x="100" y="742" type="curve" smooth="yes"/>
      <point x="100" y="891"/>
      <point x="127" y="1022"/>
      <point x="182" y="1137" type="curve" smooth="yes"/>
      <point x="237" y="1252"/>
      <point x="317" y="1342"/>
      <point x="423" y="1406" type="curve" smooth="yes"/>
      <point x="529" y="1470"/>
      <point x="659" y="1502"/>
      <point x="811" y="1502" type="curve" smooth="yes"/>
      <point x="877" y="1502"/>
      <point x="942" y="1498"/>
      <point x="1006" y="1490" type="curve" smooth="yes"/>
      <point x="1070" y="1482"/>
      <point x="1136" y="1464"/>
      <point x="1202" y="1438" type="curve"/>
      <point x="1148" y="1322" type="line"/>
      <point x="1037" y="1369"/>
      <point x="923" y="1392"/>
      <point x="806" y="1392" type="curve" smooth="yes"/>
      <point x="747" y="1392"/>
      <point x="692" y="1386"/>
      <point x="640" y="1373" type="curve" smooth="yes"/>
      <point x="588" y="1360"/>
      <point x="541" y="1341"/>
      <point x="498" y="1318" type="curve"/>
      <point x="498" y="153" type="line"/>
      <point x="584" y="110"/>
      <point x="686" y="89"/>
      <point x="806" y="89" type="curve" smooth="yes"/>
      <point x="863" y="89"/>
      <point x="922" y="93"/>
      <point x="983" y="102" type="curve" smooth="yes"/>
      <point x="1044" y="111"/>
      <point x="1103" y="123"/>
      <point x="1161" y="138" type="curve"/>
      <point x="1161" y="16" type="line"/>
      <point x="1096" y="2"/>
      <point x="1033" y="-7"/>
      <point x="974" y="-13" type="curve" smooth="yes"/>
      <point x="915" y="-19"/>
      <point x="853" y="-21"/>
    </contour>
    <contour>
      <point x="388" y="232" type="curve"/>
      <point x="388" y="1235" type="line"/>
      <point x="273" y="1120"/>
      <point x="216" y="953"/>
      <point x="216" y="735" type="curve" smooth="yes"/>
      <point x="216" y="626"/>
      <point x="230" y="529"/>
      <point x="258" y="444" type="curve" smooth="yes"/>
      <point x="286" y="359"/>
      <point x="330" y="289"/>
    </contour>
  </outline>
</glyph>
<glyph name="uni2123" format="2">
  <advance width="1310"/>
  <unicode hex="2123"/>
  <outline>
    <contour>
      <point x="612" y="1685" type="line"/>
      <point x="949" y="1547" type="line"/>
      <point x="964" y="1583" type="line"/>
      <point x="627" y="1722" type="line"/>
    </contour>
    <contour>
      <point x="923" y="1600" type="line"/>
      <point x="180" y="-147" type="line"/>
      <point x="221" y="-164" type="line"/>
      <point x="964" y="1583" type="line"/>
    </contour>
    <contour>
      <point x="655" y="72" type="line"/>
      <point x="169" y="1480" type="line"/>
      <point x="120" y="1480" type="line"/>
      <point x="630" y="0" type="line"/>
      <point x="680" y="0" type="line"/>
      <point x="1190" y="1480" type="line"/>
      <point x="1141" y="1480" type="line"/>
    </contour>
  </outline>
</glyph>
<glyph name="uni2125" format="2">
  <advance width="1222"/>
  <unicode hex="2125"/>
  <outline>
    <contour>
      <point x="321" y="1440" type="line"/>
      <point x="321" y="1480" type="line"/>
      <point x="973" y="1480" type="line"/>
      <point x="973" y="1448" type="line"/>
      <point x="932" y="1440" type="line"/>
    </contour>
    <contour>
      <point x="321" y="856" type="line"/>
      <point x="321" y="892" type="line"/>
      <point x="358" y="900" type="line"/>
      <point x="973" y="900" type="line"/>
      <point x="973" y="864" type="line"/>
      <point x="935" y="856" type="line"/>
    </contour>
    <contour>
      <point x="395" y="900" type="line"/>
      <point x="321" y="892" type="line"/>
      <point x="899" y="1440" type="line"/>
      <point x="973" y="1448" type="line"/>
    </contour>
    <contour>
      <point x="361" y="317" type="line"/>
      <point x="610" y="317" type="line"/>
      <point x="610" y="277" type="line"/>
      <point x="321" y="277" type="line"/>
      <point x="321" y="309" type="line"/>
    </contour>
    <contour>
      <point x="392" y="313" type="line"/>
      <point x="321" y="309" type="line"/>
      <point x="899" y="856" type="line"/>
      <point x="973" y="864" type="line"/>
    </contour>
    <contour>
      <point x="1051" y="-65" type="curve" smooth="yes"/>
      <point x="1051" y="-308"/>
      <point x="874" y="-450"/>
      <point x="610" y="-450" type="curve" smooth="yes"/>
      <point x="349" y="-450"/>
      <point x="168" y="-267"/>
      <point x="163" y="-29" type="curve"/>
      <point x="208" y="-16" type="line" smooth="yes"/>
      <point x="208" y="-249"/>
      <point x="385" y="-410"/>
      <point x="610" y="-410" type="curve" smooth="yes"/>
      <point x="835" y="-410"/>
      <point x="1006" y="-291"/>
      <point x="1006" y="-65" type="curve" smooth="yes"/>
      <point x="1006" y="161"/>
      <point x="816" y="277"/>
      <point x="610" y="277" type="curve"/>
      <point x="610" y="317" type="line"/>
      <point x="859" y="317"/>
      <point x="1051" y="175"/>
    </contour>
  </outline>
</glyph>
<glyph name="uni2141" format="2">
  <advance width="1482"/>
  <unicode hex="2141"/>
  <outline>
    <contour>
      <point x="226" y="383" type="line"/>
      <point x="333" y="148"/>
      <point x="542" y="32"/>
      <point x="725" y="32" type="curve" smooth="yes"/>
      <point x="985" y="32"/>
      <point x="1296" y="265"/>
      <point x="1296" y="740" type="curve" smooth="yes"/>
      <point x="1296" y="1215"/>
      <point x="985" y="1448"/>
      <point x="725" y="1448" type="curve" smooth="yes"/>
      <point x="542" y="1448"/>
      <point x="333" y="1332"/>
      <point x="226" y="1097" type="curve"/>
      <point x="186" y="1120" type="line"/>
      <point x="290" y="1348"/>
      <point x="490" y="1490"/>
      <point x="725" y="1490" type="curve" smooth="yes"/>
      <point x="1073" y="1490"/>
      <point x="1342" y="1179"/>
      <point x="1342" y="740" type="curve" smooth="yes"/>
      <point x="1342" y="301"/>
      <point x="1073" y="-10"/>
      <point x="725" y="-10" type="curve" smooth="yes"/>
      <point x="490" y="-10"/>
      <point x="290" y="132"/>
      <point x="186" y="360" type="curve"/>
    </contour>
    <contour>
      <point x="801" y="740" type="line"/>
      <point x="180" y="740" type="line"/>
      <point x="180" y="1480" type="line"/>
      <point x="226" y="1480" type="line"/>
      <point x="226" y="1153" type="line"/>
      <point x="226" y="1127" type="line"/>
      <point x="226" y="782" type="line"/>
      <point x="801" y="782" type="line"/>
    </contour>
  </outline>
</glyph>
<glyph name="uni214A" format="2">
  <advance width="1566"/>
  <unicode hex="214A"/>
  <outline>
    <contour>
      <point x="262" y="362" type="line"/>
      <point x="262" y="160" type="line"/>
      <point x="217" y="160" type="line"/>
      <point x="217" y="1270" type="line"/>
      <point x="624" y="1270" type="line"/>
      <point x="888" y="1270"/>
      <point x="1083" y="1071"/>
      <point x="1083" y="816" type="curve" smooth="yes"/>
      <point x="1083" y="561"/>
      <point x="888" y="362"/>
      <point x="624" y="362" type="curve"/>
      <point x="624" y="402" type="line"/>
      <point x="849" y="402"/>
      <point x="1038" y="591"/>
      <point x="1038" y="816" type="curve" smooth="yes"/>
      <point x="1038" y="1041"/>
      <point x="849" y="1230"/>
      <point x="624" y="1230" type="curve"/>
      <point x="262" y="1230" type="line"/>
    </contour>
    <contour>
      <point x="646" y="1480" type="line"/>
      <point x="646" y="38" type="line"/>
      <point x="1417" y="38" type="line"/>
      <point x="1417" y="0" type="line"/>
      <point x="601" y="0" type="line"/>
      <point x="601" y="1480" type="line"/>
    </contour>
  </outline>
</glyph>
<glyph name="uni2151" format="2">
  <advance width="1778"/>
  <unicode hex="2151"/>
  <outline>
    <contour>
      <point x="1623" y="511" type="curve"/>
      <point x="1601" y="367"/>
      <point x="1496" y="291"/>
      <point x="1367" y="291" type="curve" smooth="yes"/>
      <point x="1222" y="291"/>
      <point x="1102" y="409"/>
      <point x="1102" y="578" type="curve" smooth="yes"/>
      <point x="1102" y="747"/>
      <point x="1222" y="864"/>
      <point x="1368" y="864" type="curve" smooth="yes"/>
      <point x="1480" y="864"/>
      <point x="1577" y="795"/>
      <point x="1616" y="687" type="curve" smooth="yes"/>
      <point x="1634" y="646"/>
      <point x="1658" y="569"/>
      <point x="1658" y="447" type="curve" smooth="yes"/>
      <point x="1658" y="147"/>
      <point x="1512" y="-6"/>
      <point x="1325" y="-6" type="curve" smooth="yes"/>
      <point x="1187" y="-6"/>
      <point x="1130" y="74"/>
      <point x="1130" y="74" type="curve"/>
      <point x="1148" y="101" type="line"/>
      <point x="1148" y="101"/>
      <point x="1198" y="24"/>
      <point x="1333" y="24" type="curve" smooth="yes"/>
      <point x="1468" y="24"/>
      <point x="1646" y="143"/>
    </contour>
    <contour>
      <point x="1606" y="578" type="curve" smooth="yes"/>
      <point x="1606" y="710"/>
      <point x="1519" y="834"/>
      <point x="1370" y="834" type="curve" smooth="yes"/>
      <point x="1221" y="834"/>
      <point x="1135" y="710"/>
      <point x="1135" y="578" type="curve" smooth="yes"/>
      <point x="1135" y="446"/>
      <point x="1227" y="322"/>
      <point x="1370" y="322" type="curve" smooth="yes"/>
      <point x="1513" y="322"/>
      <point x="1606" y="446"/>
    </contour>
    <contour>
      <point x="409" y="1242" type="line"/>
      <point x="215" y="1242" type="line"/>
      <point x="215" y="1273" type="line"/>
      <point x="299" y="1273" type="line" smooth="yes"/>
      <point x="396" y="1273"/>
      <point x="409" y="1290"/>
      <point x="409" y="1396" type="curve" smooth="yes"/>
      <point x="409" y="1480" type="line"/>
      <point x="443" y="1480" type="line"/>
      <point x="443" y="1225" type="line"/>
      <point x="443" y="622" type="line"/>
      <point x="409" y="622" type="line"/>
    </contour>
    <contour>
      <point x="550" y="121" type="line"/>
      <point x="522" y="137" type="line"/>
      <point x="1228" y="1359" type="line"/>
      <point x="1256" y="1343" type="line"/>
    </contour>
  </outline>
</glyph>
<glyph name="uni2152" format="2">
  <advance width="2011"/>
  <unicode hex="2152"/>
  <outline>
    <contour>
      <point x="1377" y="429" type="curve" smooth="yes"/>
      <point x="1377" y="162"/>
      <point x="1478" y="24"/>
      <point x="1617" y="24" type="curve" smooth="yes"/>
      <point x="1756" y="24"/>
      <point x="1857" y="162"/>
      <point x="1857" y="429" type="curve" smooth="yes"/>
      <point x="1857" y="696"/>
      <point x="1756" y="834"/>
      <point x="1617" y="834" type="curve" smooth="yes"/>
      <point x="1478" y="834"/>
      <point x="1377" y="696"/>
    </contour>
    <contour>
      <point x="1345" y="429" type="curve" smooth="yes"/>
      <point x="1345" y="719"/>
      <point x="1460" y="864"/>
      <point x="1617" y="864" type="curve" smooth="yes"/>
      <point x="1774" y="864"/>
      <point x="1891" y="719"/>
      <point x="1891" y="429" type="curve" smooth="yes"/>
      <point x="1891" y="139"/>
      <point x="1774" y="-6"/>
      <point x="1617" y="-6" type="curve" smooth="yes"/>
      <point x="1460" y="-6"/>
      <point x="1345" y="139"/>
    </contour>
    <contour>
      <point x="1171" y="620" type="line"/>
      <point x="977" y="620" type="line"/>
      <point x="977" y="651" type="line"/>
      <point x="1061" y="651" type="line" smooth="yes"/>
      <point x="1158" y="651"/>
      <point x="1171" y="668"/>
      <point x="1171" y="774" type="curve" smooth="yes"/>
      <point x="1171" y="858" type="line"/>
      <point x="1205" y="858" type="line"/>
      <point x="1205" y="603" type="line"/>
      <point x="1205" y="0" type="line"/>
      <point x="1171" y="0" type="line"/>
    </contour>
    <contour>
      <point x="409" y="1242" type="line"/>
      <point x="215" y="1242" type="line"/>
      <point x="215" y="1273" type="line"/>
      <point x="299" y="1273" type="line" smooth="yes"/>
      <point x="396" y="1273"/>
      <point x="409" y="1290"/>
      <point x="409" y="1396" type="curve" smooth="yes"/>
      <point x="409" y="1480" type="line"/>
      <point x="443" y="1480" type="line"/>
      <point x="443" y="1225" type="line"/>
      <point x="443" y="622" type="line"/>
      <point x="409" y="622" type="line"/>
    </contour>
    <contour>
      <point x="549" y="121" type="line"/>
      <point x="521" y="137" type="line"/>
      <point x="1227" y="1359" type="line"/>
      <point x="1255" y="1343" type="line"/>
    </contour>
  </outline>
</glyph>
<glyph name="uni2156" format="2">
  <advance width="1778"/>
  <unicode hex="2156"/>
  <outline>
    <contour>
      <point x="1124" y="415" type="line"/>
      <point x="1190" y="858" type="line"/>
      <point x="1201" y="858" type="line"/>
      <point x="1216" y="858" type="line"/>
      <point x="1596" y="858" type="line"/>
      <point x="1596" y="828" type="line"/>
      <point x="1214" y="828" type="line"/>
      <point x="1160" y="464" type="line"/>
      <point x="1203" y="528"/>
      <point x="1264" y="567"/>
      <point x="1370" y="567" type="curve" smooth="yes"/>
      <point x="1515" y="567"/>
      <point x="1636" y="449"/>
      <point x="1636" y="280" type="curve" smooth="yes"/>
      <point x="1636" y="111"/>
      <point x="1523" y="-6"/>
      <point x="1368" y="-6" type="curve" smooth="yes"/>
      <point x="1213" y="-6"/>
      <point x="1107" y="83"/>
      <point x="1104" y="222" type="curve"/>
      <point x="1136" y="229" type="line"/>
      <point x="1136" y="97"/>
      <point x="1238" y="24"/>
      <point x="1368" y="24" type="curve" smooth="yes"/>
      <point x="1517" y="24"/>
      <point x="1602" y="148"/>
      <point x="1602" y="280" type="curve" smooth="yes"/>
      <point x="1602" y="412"/>
      <point x="1511" y="536"/>
      <point x="1368" y="536" type="curve" smooth="yes"/>
      <point x="1225" y="536"/>
      <point x="1183" y="459"/>
      <point x="1152" y="407" type="curve"/>
    </contour>
    <contour>
      <point x="150" y="622" type="line"/>
      <point x="150" y="689"/>
      <point x="152" y="799"/>
      <point x="406" y="944" type="curve" smooth="yes"/>
      <point x="569" y="1037"/>
      <point x="631" y="1103"/>
      <point x="631" y="1228" type="curve" smooth="yes"/>
      <point x="631" y="1367"/>
      <point x="542" y="1456"/>
      <point x="409" y="1456" type="curve" smooth="yes"/>
      <point x="273" y="1456"/>
      <point x="187" y="1345"/>
      <point x="187" y="1194" type="curve" smooth="yes"/>
      <point x="187" y="1192"/>
      <point x="187" y="1190"/>
      <point x="188" y="1186" type="curve"/>
      <point x="154" y="1194" type="line"/>
      <point x="154" y="1373"/>
      <point x="263" y="1486"/>
      <point x="409" y="1486" type="curve" smooth="yes"/>
      <point x="555" y="1486"/>
      <point x="664" y="1394"/>
      <point x="664" y="1228" type="curve" smooth="yes"/>
      <point x="664" y="1066"/>
      <point x="541" y="985"/>
      <point x="411" y="911" type="curve" smooth="yes"/>
      <point x="292" y="843"/>
      <point x="198" y="768"/>
      <point x="184" y="652" type="curve"/>
      <point x="669" y="652" type="line"/>
      <point x="669" y="622" type="line"/>
      <point x="182" y="622" type="line"/>
      <point x="159" y="622" type="line"/>
    </contour>
    <contour>
      <point x="550" y="121" type="line"/>
      <point x="522" y="137" type="line"/>
      <point x="1228" y="1359" type="line"/>
      <point x="1256" y="1343" type="line"/>
    </contour>
  </outline>
</glyph>
<glyph name="uni2158" format="2">
  <advance width="1778"/>
  <unicode hex="2158"/>
  <outline>
    <contour>
      <point x="1124" y="415" type="line"/>
      <point x="1190" y="858" type="line"/>
      <point x="1201" y="858" type="line"/>
      <point x="1216" y="858" type="line"/>
      <point x="1596" y="858" type="line"/>
      <point x="1596" y="828" type="line"/>
      <point x="1214" y="828" type="line"/>
      <point x="1160" y="464" type="line"/>
      <point x="1203" y="528"/>
      <point x="1264" y="567"/>
      <point x="1370" y="567" type="curve" smooth="yes"/>
      <point x="1515" y="567"/>
      <point x="1636" y="449"/>
      <point x="1636" y="280" type="curve" smooth="yes"/>
      <point x="1636" y="111"/>
      <point x="1523" y="-6"/>
      <point x="1368" y="-6" type="curve" smooth="yes"/>
      <point x="1213" y="-6"/>
      <point x="1107" y="83"/>
      <point x="1104" y="222" type="curve"/>
      <point x="1136" y="229" type="line"/>
      <point x="1136" y="97"/>
      <point x="1238" y="24"/>
      <point x="1368" y="24" type="curve" smooth="yes"/>
      <point x="1517" y="24"/>
      <point x="1602" y="148"/>
      <point x="1602" y="280" type="curve" smooth="yes"/>
      <point x="1602" y="412"/>
      <point x="1511" y="536"/>
      <point x="1368" y="536" type="curve" smooth="yes"/>
      <point x="1225" y="536"/>
      <point x="1183" y="459"/>
      <point x="1152" y="407" type="curve"/>
    </contour>
    <contour>
      <point x="473" y="1480" type="line"/>
      <point x="433" y="1480" type="line"/>
      <point x="155" y="868" type="line"/>
      <point x="155" y="844" type="line"/>
      <point x="487" y="844" type="line"/>
      <point x="487" y="622" type="line"/>
      <point x="520" y="622" type="line"/>
      <point x="520" y="844" type="line"/>
      <point x="663" y="844" type="line"/>
      <point x="663" y="875" type="line"/>
      <point x="520" y="875" type="line"/>
      <point x="520" y="1091" type="line"/>
      <point x="487" y="1091" type="line"/>
      <point x="487" y="875" type="line"/>
      <point x="197" y="875" type="line"/>
    </contour>
    <contour>
      <point x="550" y="121" type="line"/>
      <point x="522" y="137" type="line"/>
      <point x="1228" y="1359" type="line"/>
      <point x="1256" y="1343" type="line"/>
    </contour>
  </outline>
</glyph>
<glyph name="uni215A" format="2">
  <advance width="1778"/>
  <unicode hex="215A"/>
  <outline>
    <contour>
      <point x="1113" y="347" type="curve"/>
      <point x="1135" y="491"/>
      <point x="1240" y="567"/>
      <point x="1369" y="567" type="curve" smooth="yes"/>
      <point x="1514" y="567"/>
      <point x="1634" y="449"/>
      <point x="1634" y="280" type="curve" smooth="yes"/>
      <point x="1634" y="111"/>
      <point x="1514" y="-6"/>
      <point x="1368" y="-6" type="curve" smooth="yes"/>
      <point x="1256" y="-6"/>
      <point x="1159" y="63"/>
      <point x="1120" y="171" type="curve" smooth="yes"/>
      <point x="1102" y="212"/>
      <point x="1078" y="289"/>
      <point x="1078" y="411" type="curve" smooth="yes"/>
      <point x="1078" y="711"/>
      <point x="1224" y="864"/>
      <point x="1411" y="864" type="curve" smooth="yes"/>
      <point x="1549" y="864"/>
      <point x="1606" y="784"/>
      <point x="1606" y="784" type="curve"/>
      <point x="1588" y="757" type="line"/>
      <point x="1588" y="757"/>
      <point x="1538" y="834"/>
      <point x="1403" y="834" type="curve" smooth="yes"/>
      <point x="1268" y="834"/>
      <point x="1090" y="715"/>
    </contour>
    <contour>
      <point x="1130" y="280" type="curve" smooth="yes"/>
      <point x="1130" y="148"/>
      <point x="1217" y="24"/>
      <point x="1366" y="24" type="curve" smooth="yes"/>
      <point x="1515" y="24"/>
      <point x="1601" y="148"/>
      <point x="1601" y="280" type="curve" smooth="yes"/>
      <point x="1601" y="412"/>
      <point x="1509" y="536"/>
      <point x="1366" y="536" type="curve" smooth="yes"/>
      <point x="1223" y="536"/>
      <point x="1130" y="412"/>
    </contour>
    <contour>
      <point x="165" y="1037" type="line"/>
      <point x="231" y="1480" type="line"/>
      <point x="241" y="1480" type="line"/>
      <point x="257" y="1480" type="line"/>
      <point x="637" y="1480" type="line"/>
      <point x="637" y="1450" type="line"/>
      <point x="255" y="1450" type="line"/>
      <point x="201" y="1086" type="line"/>
      <point x="244" y="1150"/>
      <point x="305" y="1189"/>
      <point x="411" y="1189" type="curve" smooth="yes"/>
      <point x="556" y="1189"/>
      <point x="677" y="1071"/>
      <point x="677" y="902" type="curve" smooth="yes"/>
      <point x="677" y="733"/>
      <point x="564" y="616"/>
      <point x="409" y="616" type="curve" smooth="yes"/>
      <point x="254" y="616"/>
      <point x="148" y="705"/>
      <point x="145" y="844" type="curve"/>
      <point x="177" y="851" type="line"/>
      <point x="177" y="719"/>
      <point x="279" y="646"/>
      <point x="409" y="646" type="curve" smooth="yes"/>
      <point x="558" y="646"/>
      <point x="643" y="770"/>
      <point x="643" y="902" type="curve" smooth="yes"/>
      <point x="643" y="1034"/>
      <point x="552" y="1158"/>
      <point x="409" y="1158" type="curve" smooth="yes"/>
      <point x="266" y="1158"/>
      <point x="224" y="1081"/>
      <point x="193" y="1029" type="curve"/>
    </contour>
    <contour>
      <point x="550" y="121" type="line"/>
      <point x="522" y="137" type="line"/>
      <point x="1228" y="1359" type="line"/>
      <point x="1256" y="1343" type="line"/>
    </contour>
  </outline>
</glyph>
<glyph name="fiveeighths" format="2">
  <advance width="1778"/>
  <unicode hex="215D"/>
  <outline>
    <contour>
      <point x="1088" y="226" type="curve" smooth="yes"/>
      <point x="1088" y="367"/>
      <point x="1214" y="435"/>
      <point x="1286" y="449" type="curve"/>
      <point x="1219" y="457"/>
      <point x="1117" y="522"/>
      <point x="1117" y="652" type="curve" smooth="yes"/>
      <point x="1117" y="782"/>
      <point x="1220" y="864"/>
      <point x="1368" y="864" type="curve" smooth="yes"/>
      <point x="1516" y="864"/>
      <point x="1619" y="782"/>
      <point x="1619" y="652" type="curve" smooth="yes"/>
      <point x="1619" y="522"/>
      <point x="1518" y="457"/>
      <point x="1451" y="449" type="curve"/>
      <point x="1523" y="435"/>
      <point x="1648" y="367"/>
      <point x="1648" y="226" type="curve" smooth="yes"/>
      <point x="1648" y="85"/>
      <point x="1532" y="-6"/>
      <point x="1368" y="-6" type="curve" smooth="yes"/>
      <point x="1204" y="-6"/>
      <point x="1088" y="85"/>
    </contour>
    <contour>
      <point x="1150" y="649" type="curve" smooth="yes"/>
      <point x="1150" y="538"/>
      <point x="1249" y="464"/>
      <point x="1368" y="464" type="curve" smooth="yes"/>
      <point x="1487" y="464"/>
      <point x="1586" y="538"/>
      <point x="1586" y="649" type="curve" smooth="yes"/>
      <point x="1586" y="765"/>
      <point x="1487" y="834"/>
      <point x="1368" y="834" type="curve" smooth="yes"/>
      <point x="1249" y="834"/>
      <point x="1150" y="765"/>
    </contour>
    <contour>
      <point x="1368" y="434" type="curve" smooth="yes"/>
      <point x="1255" y="434"/>
      <point x="1121" y="361"/>
      <point x="1121" y="229" type="curve" smooth="yes"/>
      <point x="1121" y="97"/>
      <point x="1231" y="24"/>
      <point x="1368" y="24" type="curve" smooth="yes"/>
      <point x="1505" y="24"/>
      <point x="1615" y="97"/>
      <point x="1615" y="229" type="curve" smooth="yes"/>
      <point x="1615" y="361"/>
      <point x="1481" y="434"/>
    </contour>
    <contour>
      <point x="165" y="1037" type="line"/>
      <point x="231" y="1480" type="line"/>
      <point x="241" y="1480" type="line"/>
      <point x="257" y="1480" type="line"/>
      <point x="637" y="1480" type="line"/>
      <point x="637" y="1450" type="line"/>
      <point x="255" y="1450" type="line"/>
      <point x="201" y="1086" type="line"/>
      <point x="244" y="1150"/>
      <point x="305" y="1189"/>
      <point x="411" y="1189" type="curve" smooth="yes"/>
      <point x="556" y="1189"/>
      <point x="677" y="1071"/>
      <point x="677" y="902" type="curve" smooth="yes"/>
      <point x="677" y="733"/>
      <point x="564" y="616"/>
      <point x="409" y="616" type="curve" smooth="yes"/>
      <point x="254" y="616"/>
      <point x="148" y="705"/>
      <point x="145" y="844" type="curve"/>
      <point x="177" y="851" type="line"/>
      <point x="177" y="719"/>
      <point x="279" y="646"/>
      <point x="409" y="646" type="curve" smooth="yes"/>
      <point x="558" y="646"/>
      <point x="643" y="770"/>
      <point x="643" y="902" type="curve" smooth="yes"/>
      <point x="643" y="1034"/>
      <point x="552" y="1158"/>
      <point x="409" y="1158" type="curve" smooth="yes"/>
      <point x="266" y="1158"/>
      <point x="224" y="1081"/>
      <point x="193" y="1029" type="curve"/>
    </contour>
    <contour>
      <point x="550" y="121" type="line"/>
      <point x="522" y="137" type="line"/>
      <point x="1228" y="1359" type="line"/>
      <point x="1256" y="1343" type="line"/>
    </contour>
  </outline>
</glyph>
<glyph name="seveneighths" format="2">
  <advance width="1778"/>
  <unicode hex="215E"/>
  <outline>
    <contour>
      <point x="1088" y="226" type="curve" smooth="yes"/>
      <point x="1088" y="367"/>
      <point x="1214" y="435"/>
      <point x="1286" y="449" type="curve"/>
      <point x="1219" y="457"/>
      <point x="1117" y="522"/>
      <point x="1117" y="652" type="curve" smooth="yes"/>
      <point x="1117" y="782"/>
      <point x="1220" y="864"/>
      <point x="1368" y="864" type="curve" smooth="yes"/>
      <point x="1516" y="864"/>
      <point x="1619" y="782"/>
      <point x="1619" y="652" type="curve" smooth="yes"/>
      <point x="1619" y="522"/>
      <point x="1518" y="457"/>
      <point x="1451" y="449" type="curve"/>
      <point x="1523" y="435"/>
      <point x="1648" y="367"/>
      <point x="1648" y="226" type="curve" smooth="yes"/>
      <point x="1648" y="85"/>
      <point x="1532" y="-6"/>
      <point x="1368" y="-6" type="curve" smooth="yes"/>
      <point x="1204" y="-6"/>
      <point x="1088" y="85"/>
    </contour>
    <contour>
      <point x="1150" y="649" type="curve" smooth="yes"/>
      <point x="1150" y="538"/>
      <point x="1249" y="464"/>
      <point x="1368" y="464" type="curve" smooth="yes"/>
      <point x="1487" y="464"/>
      <point x="1586" y="538"/>
      <point x="1586" y="649" type="curve" smooth="yes"/>
      <point x="1586" y="765"/>
      <point x="1487" y="834"/>
      <point x="1368" y="834" type="curve" smooth="yes"/>
      <point x="1249" y="834"/>
      <point x="1150" y="765"/>
    </contour>
    <contour>
      <point x="1368" y="434" type="curve" smooth="yes"/>
      <point x="1255" y="434"/>
      <point x="1121" y="361"/>
      <point x="1121" y="229" type="curve" smooth="yes"/>
      <point x="1121" y="97"/>
      <point x="1231" y="24"/>
      <point x="1368" y="24" type="curve" smooth="yes"/>
      <point x="1505" y="24"/>
      <point x="1615" y="97"/>
      <point x="1615" y="229" type="curve" smooth="yes"/>
      <point x="1615" y="361"/>
      <point x="1481" y="434"/>
    </contour>
    <contour>
      <point x="156" y="1450" type="line"/>
      <point x="156" y="1480" type="line"/>
      <point x="664" y="1480" type="line"/>
      <point x="664" y="1453" type="line"/>
      <point x="664" y="1453"/>
      <point x="381" y="1104"/>
      <point x="344" y="622" type="curve"/>
      <point x="339" y="622"/>
      <point x="316" y="622"/>
      <point x="311" y="622" type="curve"/>
      <point x="345" y="1072"/>
      <point x="587" y="1402"/>
      <point x="624" y="1450" type="curve"/>
    </contour>
    <contour>
      <point x="550" y="121" type="line"/>
      <point x="522" y="137" type="line"/>
      <point x="1228" y="1359" type="line"/>
      <point x="1256" y="1343" type="line"/>
    </contour>
  </outline>
</glyph>
<glyph name="uni215F" format="2">
  <advance width="1758"/>
  <unicode hex="215F"/>
  <outline>
    <contour>
      <point x="399" y="1242" type="line"/>
      <point x="205" y="1242" type="line"/>
      <point x="205" y="1273" type="line"/>
      <point x="289" y="1273" type="line" smooth="yes"/>
      <point x="386" y="1273"/>
      <point x="399" y="1290"/>
      <point x="399" y="1396" type="curve" smooth="yes"/>
      <point x="399" y="1480" type="line"/>
      <point x="433" y="1480" type="line"/>
      <point x="433" y="1225" type="line"/>
      <point x="433" y="622" type="line"/>
      <point x="399" y="622" type="line"/>
    </contour>
    <contour>
      <point x="540" y="121" type="line"/>
      <point x="512" y="137" type="line"/>
      <point x="1218" y="1359" type="line"/>
      <point x="1246" y="1343" type="line"/>
    </contour>
  </outline>
</glyph>
<glyph name="uni2189" format="2">
  <advance width="1778"/>
  <unicode hex="2189"/>
  <outline>
    <contour>
      <point x="169" y="1051" type="curve" smooth="yes"/>
      <point x="169" y="784"/>
      <point x="270" y="646"/>
      <point x="409" y="646" type="curve" smooth="yes"/>
      <point x="548" y="646"/>
      <point x="649" y="784"/>
      <point x="649" y="1051" type="curve" smooth="yes"/>
      <point x="649" y="1318"/>
      <point x="548" y="1456"/>
      <point x="409" y="1456" type="curve" smooth="yes"/>
      <point x="270" y="1456"/>
      <point x="169" y="1318"/>
    </contour>
    <contour>
      <point x="136" y="1051" type="curve" smooth="yes"/>
      <point x="136" y="1341"/>
      <point x="252" y="1486"/>
      <point x="409" y="1486" type="curve" smooth="yes"/>
      <point x="566" y="1486"/>
      <point x="682" y="1341"/>
      <point x="682" y="1051" type="curve" smooth="yes"/>
      <point x="682" y="761"/>
      <point x="566" y="616"/>
      <point x="409" y="616" type="curve" smooth="yes"/>
      <point x="252" y="616"/>
      <point x="136" y="761"/>
    </contour>
    <contour>
      <point x="1367" y="464" type="line" smooth="yes"/>
      <point x="1483" y="464"/>
      <point x="1572" y="538"/>
      <point x="1572" y="649" type="curve" smooth="yes"/>
      <point x="1572" y="765"/>
      <point x="1483" y="834"/>
      <point x="1367" y="834" type="curve" smooth="yes"/>
      <point x="1237" y="834"/>
      <point x="1147" y="761"/>
      <point x="1147" y="629" type="curve" smooth="yes"/>
      <point x="1114" y="636" type="line"/>
      <point x="1117" y="775"/>
      <point x="1213" y="864"/>
      <point x="1368" y="864" type="curve" smooth="yes"/>
      <point x="1512" y="864"/>
      <point x="1605" y="782"/>
      <point x="1605" y="652" type="curve" smooth="yes"/>
      <point x="1605" y="522"/>
      <point x="1513" y="457"/>
      <point x="1447" y="449" type="curve"/>
      <point x="1518" y="435"/>
      <point x="1641" y="367"/>
      <point x="1641" y="226" type="curve" smooth="yes"/>
      <point x="1641" y="85"/>
      <point x="1528" y="-6"/>
      <point x="1369" y="-6" type="curve" smooth="yes"/>
      <point x="1211" y="-6"/>
      <point x="1103" y="83"/>
      <point x="1100" y="222" type="curve"/>
      <point x="1133" y="229" type="line" smooth="yes"/>
      <point x="1133" y="97"/>
      <point x="1236" y="24"/>
      <point x="1369" y="24" type="curve" smooth="yes"/>
      <point x="1502" y="24"/>
      <point x="1608" y="97"/>
      <point x="1608" y="229" type="curve" smooth="yes"/>
      <point x="1608" y="361"/>
      <point x="1478" y="434"/>
      <point x="1368" y="434" type="curve" smooth="yes"/>
      <point x="1319" y="434" type="line"/>
      <point x="1319" y="464" type="line"/>
    </contour>
    <contour>
      <point x="550" y="121" type="line"/>
      <point x="522" y="137" type="line"/>
      <point x="1228" y="1359" type="line"/>
      <point x="1256" y="1343" type="line"/>
    </contour>
  </outline>
</glyph>
<glyph name="uni218B" format="2">
  <advance width="1198"/>
  <unicode hex="218B"/>
  <outline>
    <contour>
      <point x="602" y="684" type="line" smooth="yes"/>
      <point x="402" y="684"/>
      <point x="249" y="553"/>
      <point x="249" y="358" type="curve" smooth="yes"/>
      <point x="249" y="153"/>
      <point x="402" y="32"/>
      <point x="602" y="32" type="curve" smooth="yes"/>
      <point x="827" y="32"/>
      <point x="982" y="161"/>
      <point x="982" y="394" type="curve" smooth="yes"/>
      <point x="1028" y="381" type="line"/>
      <point x="1023" y="143"/>
      <point x="863" y="-10"/>
      <point x="602" y="-10" type="curve" smooth="yes"/>
      <point x="360" y="-10"/>
      <point x="203" y="131"/>
      <point x="203" y="354" type="curve" smooth="yes"/>
      <point x="203" y="577"/>
      <point x="355" y="690"/>
      <point x="464" y="704" type="curve"/>
      <point x="350" y="728"/>
      <point x="151" y="847"/>
      <point x="151" y="1090" type="curve" smooth="yes"/>
      <point x="151" y="1333"/>
      <point x="338" y="1490"/>
      <point x="602" y="1490" type="curve" smooth="yes"/>
      <point x="863" y="1490"/>
      <point x="1042" y="1337"/>
      <point x="1047" y="1099" type="curve"/>
      <point x="1001" y="1086" type="line" smooth="yes"/>
      <point x="1001" y="1319"/>
      <point x="827" y="1448"/>
      <point x="602" y="1448" type="curve" smooth="yes"/>
      <point x="377" y="1448"/>
      <point x="197" y="1319"/>
      <point x="197" y="1086" type="curve" smooth="yes"/>
      <point x="197" y="853"/>
      <point x="416" y="724"/>
      <point x="602" y="724" type="curve" smooth="yes"/>
      <point x="686" y="724" type="line"/>
      <point x="686" y="684" type="line"/>
    </contour>
  </outline>
</glyph>
<glyph name="arrowleft" format="2">
  <advance width="1620"/>
  <unicode hex="2190"/>
  <outline>
    <contour>
      <point x="70" y="644" type="line"/>
      <point x="508" y="206" type="line"/>
      <point x="537" y="236" type="line"/>
      <point x="110" y="660" type="line"/>
      <point x="537" y="1084" type="line"/>
      <point x="508" y="1114" type="line"/>
      <point x="70" y="676" type="line"/>
    </contour>
    <contour>
      <point x="98" y="640" type="line"/>
      <point x="1550" y="640" type="line"/>
      <point x="1550" y="680" type="line"/>
      <point x="98" y="680" type="line"/>
    </contour>
  </outline>
</glyph>
<glyph name="uni21A6" format="2">
  <advance width="1620"/>
  <unicode hex="21A6"/>
  <outline>
    <contour>
      <point x="110" y="1082" type="line"/>
      <point x="110" y="238" type="line"/>
      <point x="70" y="238" type="line"/>
      <point x="70" y="1082" type="line"/>
    </contour>
    <contour>
      <point x="1550" y="644" type="line"/>
      <point x="1112" y="206" type="line"/>
      <point x="1083" y="236" type="line"/>
      <point x="1510" y="660" type="line"/>
      <point x="1083" y="1084" type="line"/>
      <point x="1112" y="1114" type="line"/>
      <point x="1550" y="676" type="line"/>
    </contour>
    <contour>
      <point x="1522" y="640" type="line"/>
      <point x="100" y="640" type="line"/>
      <point x="100" y="680" type="line"/>
      <point x="1522" y="680" type="line"/>
    </contour>
  </outline>
</glyph>
<glyph name="uni21A9" format="2">
  <advance width="1620"/>
  <unicode hex="21A9"/>
  <outline>
    <contour>
      <point x="1295" y="1130" type="line" smooth="yes"/>
      <point x="1425" y="1130"/>
      <point x="1520" y="1035"/>
      <point x="1520" y="905" type="curve" smooth="yes"/>
      <point x="1520" y="775"/>
      <point x="1425" y="680"/>
      <point x="1295" y="680" type="curve" smooth="yes"/>
      <point x="1295" y="640" type="line" smooth="yes"/>
      <point x="1453" y="640"/>
      <point x="1560" y="747"/>
      <point x="1560" y="905" type="curve" smooth="yes"/>
      <point x="1560" y="1063"/>
      <point x="1453" y="1170"/>
      <point x="1295" y="1170" type="curve" smooth="yes"/>
    </contour>
    <contour>
      <point x="70" y="644" type="line"/>
      <point x="508" y="206" type="line"/>
      <point x="537" y="236" type="line"/>
      <point x="110" y="660" type="line"/>
      <point x="537" y="1084" type="line"/>
      <point x="508" y="1114" type="line"/>
      <point x="70" y="676" type="line"/>
    </contour>
    <contour>
      <point x="98" y="640" type="line"/>
      <point x="1295" y="640" type="line"/>
      <point x="1295" y="680" type="line"/>
      <point x="98" y="680" type="line"/>
    </contour>
  </outline>
</glyph>
<glyph name="uni21AF" format="2">
  <advance width="1620"/>
  <unicode hex="21AF"/>
  <outline>
    <contour>
      <point x="1023" y="925" type="line"/>
      <point x="1052" y="979" type="line"/>
      <point x="1052" y="979" type="line"/>
      <point x="318" y="763" type="line"/>
      <point x="298" y="718" type="line"/>
      <point x="298" y="718" type="line"/>
    </contour>
    <contour>
      <point x="1000" y="941" type="line"/>
      <point x="758" y="36" type="line"/>
      <point x="796" y="26" type="line"/>
      <point x="1052" y="979" type="line"/>
    </contour>
    <contour>
      <point x="348" y="750" type="line"/>
      <point x="544" y="1480" type="line"/>
      <point x="505" y="1490" type="line"/>
      <point x="298" y="718" type="line"/>
    </contour>
    <contour>
      <point x="785" y="0" type="line"/>
      <point x="1322" y="309" type="line"/>
      <point x="1300" y="345" type="line"/>
      <point x="780" y="42" type="line"/>
      <point x="481" y="565" type="line"/>
      <point x="444" y="544" type="line"/>
      <point x="754" y="8" type="line"/>
    </contour>
  </outline>
</glyph>
<glyph name="uni21B4" format="2">
  <advance width="1620"/>
  <unicode hex="21B4"/>
  <outline>
    <contour>
      <point x="65" y="1262" type="line"/>
      <point x="65" y="1302" type="line"/>
      <point x="1081" y="1302" type="line"/>
      <point x="1081" y="1262" type="line"/>
    </contour>
    <contour>
      <point x="1085" y="176" type="line"/>
      <point x="647" y="614" type="line"/>
      <point x="677" y="643" type="line"/>
      <point x="1101" y="216" type="line"/>
      <point x="1525" y="643" type="line"/>
      <point x="1555" y="614" type="line"/>
      <point x="1117" y="176" type="line"/>
    </contour>
    <contour>
      <point x="1081" y="204" type="line"/>
      <point x="1081" y="1302" type="line"/>
      <point x="1121" y="1302" type="line"/>
      <point x="1121" y="204" type="line"/>
    </contour>
  </outline>
</glyph>
<glyph name="uni21B6" format="2">
  <advance width="1620"/>
  <unicode hex="21B6"/>
  <outline>
    <contour>
      <point x="544" y="363" type="line"/>
      <point x="544" y="520" type="line"/>
      <point x="504" y="520" type="line"/>
      <point x="504" y="363" type="line"/>
    </contour>
    <contour>
      <point x="1510" y="520" type="curve" smooth="yes"/>
      <point x="1550" y="520" type="line" smooth="yes"/>
      <point x="1550" y="832"/>
      <point x="1327" y="1074"/>
      <point x="1027" y="1074" type="curve" smooth="yes"/>
      <point x="727" y="1074"/>
      <point x="504" y="832"/>
      <point x="504" y="520" type="curve" smooth="yes"/>
      <point x="544" y="520" type="line" smooth="yes"/>
      <point x="544" y="810"/>
      <point x="758" y="1034"/>
      <point x="1027" y="1034" type="curve" smooth="yes"/>
      <point x="1296" y="1034"/>
      <point x="1510" y="810"/>
    </contour>
    <contour>
      <point x="540" y="341" type="line"/>
      <point x="978" y="779" type="line"/>
      <point x="948" y="808" type="line"/>
      <point x="524" y="381" type="line"/>
      <point x="100" y="808" type="line"/>
      <point x="70" y="779" type="line"/>
      <point x="508" y="341" type="line"/>
    </contour>
  </outline>
</glyph>
<glyph name="uni21BA" format="2">
  <advance width="1620"/>
  <unicode hex="21BA"/>
  <outline>
    <contour>
      <point x="305" y="1106" type="curve" smooth="yes"/>
      <point x="277" y="1134" type="line" smooth="yes"/>
      <point x="170" y="1027"/>
      <point x="114" y="884"/>
      <point x="114" y="741" type="curve" smooth="yes"/>
      <point x="114" y="601"/>
      <point x="168" y="460"/>
      <point x="277" y="351" type="curve" smooth="yes"/>
      <point x="305" y="379" type="line" smooth="yes"/>
      <point x="197" y="487"/>
      <point x="154" y="614"/>
      <point x="154" y="741" type="curve" smooth="yes"/>
      <point x="154" y="873"/>
      <point x="202" y="1003"/>
    </contour>
    <contour>
      <point x="881" y="1246" type="line"/>
      <point x="1032" y="1106" type="line"/>
      <point x="1060" y="1134" type="line"/>
      <point x="910" y="1275" type="line"/>
    </contour>
    <contour>
      <point x="667" y="228" type="curve" smooth="yes"/>
      <point x="540" y="228"/>
      <point x="413" y="271"/>
      <point x="305" y="379" type="curve" smooth="yes"/>
      <point x="277" y="351" type="line" smooth="yes"/>
      <point x="386" y="242"/>
      <point x="527" y="188"/>
      <point x="667" y="188" type="curve" smooth="yes"/>
      <point x="810" y="188"/>
      <point x="953" y="244"/>
      <point x="1060" y="351" type="curve" smooth="yes"/>
      <point x="1167" y="458"/>
      <point x="1223" y="598"/>
      <point x="1223" y="741" type="curve" smooth="yes"/>
      <point x="1223" y="881"/>
      <point x="1169" y="1025"/>
      <point x="1060" y="1134" type="curve" smooth="yes"/>
      <point x="1032" y="1106" type="line" smooth="yes"/>
      <point x="1140" y="998"/>
      <point x="1183" y="868"/>
      <point x="1183" y="741" type="curve" smooth="yes"/>
      <point x="1183" y="609"/>
      <point x="1135" y="482"/>
      <point x="1032" y="379" type="curve" smooth="yes"/>
      <point x="929" y="276"/>
      <point x="799" y="228"/>
    </contour>
    <contour>
      <point x="864" y="1269" type="line"/>
      <point x="864" y="650" type="line"/>
      <point x="906" y="650" type="line"/>
      <point x="904" y="1252" type="line"/>
      <point x="1506" y="1250" type="line"/>
      <point x="1506" y="1292" type="line"/>
      <point x="887" y="1292" type="line"/>
    </contour>
  </outline>
</glyph>
<glyph name="uni21C4" format="2">
  <advance width="1620"/>
  <unicode hex="21C4"/>
  <outline>
    <contour>
      <point x="70" y="368" type="line"/>
      <point x="508" y="-70" type="line"/>
      <point x="537" y="-40" type="line"/>
      <point x="110" y="384" type="line"/>
      <point x="537" y="808" type="line"/>
      <point x="508" y="838" type="line"/>
      <point x="70" y="400" type="line"/>
    </contour>
    <contour>
      <point x="98" y="364" type="line"/>
      <point x="1550" y="364" type="line"/>
      <point x="1550" y="404" type="line"/>
      <point x="98" y="404" type="line"/>
    </contour>
    <contour>
      <point x="1550" y="1022" type="line"/>
      <point x="1112" y="584" type="line"/>
      <point x="1083" y="614" type="line"/>
      <point x="1510" y="1038" type="line"/>
      <point x="1083" y="1462" type="line"/>
      <point x="1112" y="1492" type="line"/>
      <point x="1550" y="1054" type="line"/>
    </contour>
    <contour>
      <point x="1520" y="1018" type="line"/>
      <point x="70" y="1018" type="line"/>
      <point x="70" y="1058" type="line"/>
      <point x="1520" y="1058" type="line"/>
    </contour>
  </outline>
</glyph>
<glyph name="uni21E2" format="2">
  <advance width="1620"/>
  <unicode hex="21E2"/>
  <outline>
    <contour>
      <point x="962" y="640" type="line"/>
      <point x="596" y="640" type="line"/>
      <point x="596" y="680" type="line"/>
      <point x="962" y="680" type="line"/>
    </contour>
    <contour>
      <point x="436" y="640" type="line"/>
      <point x="70" y="640" type="line"/>
      <point x="70" y="680" type="line"/>
      <point x="436" y="680" type="line"/>
    </contour>
    <contour>
      <point x="1550" y="644" type="line"/>
      <point x="1112" y="206" type="line"/>
      <point x="1083" y="236" type="line"/>
      <point x="1510" y="660" type="line"/>
      <point x="1083" y="1084" type="line"/>
      <point x="1112" y="1114" type="line"/>
      <point x="1550" y="676" type="line"/>
    </contour>
    <contour>
      <point x="1522" y="640" type="line"/>
      <point x="1122" y="640" type="line"/>
      <point x="1122" y="680" type="line"/>
      <point x="1522" y="680" type="line"/>
    </contour>
  </outline>
</glyph>
<glyph name="uni21F4" format="2">
  <advance width="1620"/>
  <unicode hex="21F4"/>
  <outline>
    <contour>
      <point x="420" y="660" type="curve" smooth="yes"/>
      <point x="420" y="497"/>
      <point x="547" y="370"/>
      <point x="710" y="370" type="curve" smooth="yes"/>
      <point x="873" y="370"/>
      <point x="1000" y="497"/>
      <point x="1000" y="660" type="curve" smooth="yes"/>
      <point x="1000" y="823"/>
      <point x="873" y="950"/>
      <point x="710" y="950" type="curve" smooth="yes"/>
      <point x="547" y="950"/>
      <point x="420" y="823"/>
    </contour>
    <contour>
      <point x="390" y="660" type="curve" smooth="yes"/>
      <point x="390" y="838"/>
      <point x="532" y="980"/>
      <point x="710" y="980" type="curve" smooth="yes"/>
      <point x="888" y="980"/>
      <point x="1030" y="838"/>
      <point x="1030" y="660" type="curve" smooth="yes"/>
      <point x="1030" y="482"/>
      <point x="888" y="340"/>
      <point x="710" y="340" type="curve" smooth="yes"/>
      <point x="532" y="340"/>
      <point x="390" y="482"/>
    </contour>
    <contour>
      <point x="1550" y="644" type="line"/>
      <point x="1112" y="206" type="line"/>
      <point x="1083" y="236" type="line"/>
      <point x="1510" y="660" type="line"/>
      <point x="1083" y="1084" type="line"/>
      <point x="1112" y="1114" type="line"/>
      <point x="1550" y="676" type="line"/>
    </contour>
    <contour>
      <point x="1522" y="640" type="line"/>
      <point x="70" y="640" type="line"/>
      <point x="70" y="680" type="line"/>
      <point x="1522" y="680" type="line"/>
    </contour>
  </outline>
</glyph>
<glyph name="uni2213" format="2">
  <advance width="1198"/>
  <unicode hex="2213"/>
  <outline>
    <contour>
      <point x="180" y="1079" type="line"/>
      <point x="1018" y="1079" type="line"/>
      <point x="1018" y="1119" type="line"/>
      <point x="180" y="1119" type="line"/>
    </contour>
    <contour>
      <point x="577" y="0" type="line"/>
      <point x="577" y="838" type="line"/>
      <point x="621" y="838" type="line"/>
      <point x="621" y="0" type="line"/>
    </contour>
    <contour>
      <point x="180" y="439" type="line"/>
      <point x="1018" y="439" type="line"/>
      <point x="1018" y="399" type="line"/>
      <point x="180" y="399" type="line"/>
    </contour>
  </outline>
</glyph>
<glyph name="uni221B" format="2">
  <advance width="1470"/>
  <unicode hex="221B"/>
  <note>radical + three.superior</note>
  <outline>
    <contour>
      <point x="417" y="1274" type="line" smooth="yes"/>
      <point x="533" y="1274"/>
      <point x="622" y="1348"/>
      <point x="622" y="1459" type="curve" smooth="yes"/>
      <point x="622" y="1575"/>
      <point x="533" y="1644"/>
      <point x="417" y="1644" type="curve" smooth="yes"/>
      <point x="287" y="1644"/>
      <point x="197" y="1571"/>
      <point x="197" y="1439" type="curve" smooth="yes"/>
      <point x="164" y="1446" type="line"/>
      <point x="167" y="1585"/>
      <point x="263" y="1674"/>
      <point x="418" y="1674" type="curve" smooth="yes"/>
      <point x="562" y="1674"/>
      <point x="655" y="1592"/>
      <point x="655" y="1462" type="curve" smooth="yes"/>
      <point x="655" y="1332"/>
      <point x="563" y="1267"/>
      <point x="497" y="1259" type="curve"/>
      <point x="568" y="1245"/>
      <point x="691" y="1177"/>
      <point x="691" y="1036" type="curve" smooth="yes"/>
      <point x="691" y="895"/>
      <point x="578" y="804"/>
      <point x="419" y="804" type="curve" smooth="yes"/>
      <point x="261" y="804"/>
      <point x="153" y="893"/>
      <point x="150" y="1032" type="curve"/>
      <point x="183" y="1039" type="line" smooth="yes"/>
      <point x="183" y="907"/>
      <point x="286" y="834"/>
      <point x="419" y="834" type="curve" smooth="yes"/>
      <point x="552" y="834"/>
      <point x="658" y="907"/>
      <point x="658" y="1039" type="curve" smooth="yes"/>
      <point x="658" y="1171"/>
      <point x="528" y="1244"/>
      <point x="418" y="1244" type="curve" smooth="yes"/>
      <point x="369" y="1244" type="line"/>
      <point x="369" y="1274" type="line"/>
    </contour>
    <contour>
      <point x="1470" y="1558" type="line"/>
      <point x="1470" y="1514" type="line"/>
      <point x="1151" y="1514" type="line"/>
      <point x="1190" y="1558" type="line"/>
    </contour>
    <contour>
      <point x="180" y="660" type="line"/>
      <point x="376" y="660" type="line"/>
      <point x="425" y="620" type="line"/>
      <point x="180" y="620" type="line"/>
    </contour>
    <contour>
      <point x="603" y="0" type="line"/>
      <point x="376" y="660" type="line"/>
      <point x="425" y="660" type="line"/>
      <point x="628" y="72" type="line"/>
      <point x="1141" y="1558" type="line"/>
      <point x="1190" y="1558" type="line"/>
      <point x="653" y="0" type="line"/>
    </contour>
  </outline>
</glyph>
<glyph name="uni222F" format="2">
  <advance width="1576"/>
  <unicode hex="222F"/>
  <outline>
    <contour>
      <point x="1043" y="1024" type="line" smooth="yes"/>
      <point x="1273" y="1024"/>
      <point x="1453" y="844"/>
      <point x="1453" y="614" type="curve" smooth="yes"/>
      <point x="1453" y="384"/>
      <point x="1273" y="204"/>
      <point x="1043" y="204" type="curve" smooth="yes"/>
      <point x="533" y="204" type="line" smooth="yes"/>
      <point x="303" y="204"/>
      <point x="123" y="384"/>
      <point x="123" y="614" type="curve" smooth="yes"/>
      <point x="123" y="844"/>
      <point x="303" y="1024"/>
      <point x="533" y="1024" type="curve" smooth="yes"/>
    </contour>
    <contour>
      <point x="1043" y="244" type="line" smooth="yes"/>
      <point x="1233" y="244"/>
      <point x="1408" y="404"/>
      <point x="1408" y="614" type="curve" smooth="yes"/>
      <point x="1408" y="824"/>
      <point x="1233" y="984"/>
      <point x="1043" y="984" type="curve" smooth="yes"/>
      <point x="533" y="984" type="line" smooth="yes"/>
      <point x="343" y="984"/>
      <point x="168" y="824"/>
      <point x="168" y="614" type="curve" smooth="yes"/>
      <point x="168" y="404"/>
      <point x="343" y="244"/>
      <point x="533" y="244" type="curve" smooth="yes"/>
    </contour>
    <contour>
      <point x="672" y="-216" type="line" smooth="yes"/>
      <point x="672" y="-316"/>
      <point x="708" y="-410"/>
      <point x="828" y="-410" type="curve" smooth="yes"/>
      <point x="948" y="-410"/>
      <point x="981" y="-280"/>
      <point x="986" y="-180" type="curve" smooth="yes"/>
      <point x="1056" y="1408" type="line" smooth="yes"/>
      <point x="1066" y="1608"/>
      <point x="1158" y="1678"/>
      <point x="1258" y="1678" type="curve" smooth="yes"/>
      <point x="1378" y="1678"/>
      <point x="1450" y="1603"/>
      <point x="1456" y="1456" type="curve"/>
      <point x="1414" y="1444" type="line" smooth="yes"/>
      <point x="1414" y="1544"/>
      <point x="1378" y="1638"/>
      <point x="1258" y="1638" type="curve" smooth="yes"/>
      <point x="1138" y="1638"/>
      <point x="1105" y="1508"/>
      <point x="1100" y="1408" type="curve" smooth="yes"/>
      <point x="1030" y="-180" type="line" smooth="yes"/>
      <point x="1020" y="-380"/>
      <point x="928" y="-450"/>
      <point x="828" y="-450" type="curve" smooth="yes"/>
      <point x="708" y="-450"/>
      <point x="636" y="-375"/>
      <point x="630" y="-228" type="curve"/>
    </contour>
    <contour>
      <point x="162" y="-216" type="line" smooth="yes"/>
      <point x="162" y="-316"/>
      <point x="198" y="-410"/>
      <point x="318" y="-410" type="curve" smooth="yes"/>
      <point x="438" y="-410"/>
      <point x="471" y="-280"/>
      <point x="476" y="-180" type="curve" smooth="yes"/>
      <point x="546" y="1408" type="line" smooth="yes"/>
      <point x="556" y="1608"/>
      <point x="648" y="1678"/>
      <point x="748" y="1678" type="curve" smooth="yes"/>
      <point x="868" y="1678"/>
      <point x="940" y="1603"/>
      <point x="946" y="1456" type="curve"/>
      <point x="904" y="1444" type="line" smooth="yes"/>
      <point x="904" y="1544"/>
      <point x="868" y="1638"/>
      <point x="748" y="1638" type="curve" smooth="yes"/>
      <point x="628" y="1638"/>
      <point x="595" y="1508"/>
      <point x="590" y="1408" type="curve" smooth="yes"/>
      <point x="520" y="-180" type="line" smooth="yes"/>
      <point x="510" y="-380"/>
      <point x="418" y="-450"/>
      <point x="318" y="-450" type="curve" smooth="yes"/>
      <point x="198" y="-450"/>
      <point x="126" y="-375"/>
      <point x="120" y="-228" type="curve"/>
    </contour>
  </outline>
</glyph>
<glyph name="uni2233" format="2">
  <advance width="1205"/>
  <unicode hex="2233"/>
  <outline>
    <contour>
      <point x="533" y="204" type="curve" smooth="yes"/>
      <point x="303" y="204"/>
      <point x="123" y="384"/>
      <point x="123" y="614" type="curve" smooth="yes"/>
      <point x="123" y="844"/>
      <point x="303" y="1024"/>
      <point x="533" y="1024" type="curve" smooth="yes"/>
      <point x="763" y="1024"/>
      <point x="943" y="844"/>
      <point x="943" y="614" type="curve" smooth="yes"/>
      <point x="943" y="384"/>
      <point x="763" y="204"/>
    </contour>
    <contour>
      <point x="533" y="244" type="curve" smooth="yes"/>
      <point x="723" y="244"/>
      <point x="898" y="404"/>
      <point x="898" y="614" type="curve" smooth="yes"/>
      <point x="898" y="824"/>
      <point x="723" y="984"/>
      <point x="533" y="984" type="curve" smooth="yes"/>
      <point x="343" y="984"/>
      <point x="168" y="824"/>
      <point x="168" y="614" type="curve" smooth="yes"/>
      <point x="168" y="404"/>
      <point x="343" y="244"/>
    </contour>
    <contour>
      <point x="900" y="752" type="line"/>
      <point x="922" y="752" type="line"/>
      <point x="1140" y="534" type="line"/>
      <point x="1105" y="501" type="line"/>
      <point x="911" y="700" type="line"/>
      <point x="717" y="501" type="line"/>
      <point x="682" y="534" type="line"/>
    </contour>
    <contour>
      <point x="162" y="-216" type="line" smooth="yes"/>
      <point x="162" y="-316"/>
      <point x="198" y="-410"/>
      <point x="318" y="-410" type="curve" smooth="yes"/>
      <point x="438" y="-410"/>
      <point x="471" y="-280"/>
      <point x="476" y="-180" type="curve" smooth="yes"/>
      <point x="546" y="1408" type="line" smooth="yes"/>
      <point x="556" y="1608"/>
      <point x="648" y="1678"/>
      <point x="748" y="1678" type="curve" smooth="yes"/>
      <point x="868" y="1678"/>
      <point x="940" y="1603"/>
      <point x="946" y="1456" type="curve"/>
      <point x="904" y="1444" type="line" smooth="yes"/>
      <point x="904" y="1544"/>
      <point x="868" y="1638"/>
      <point x="748" y="1638" type="curve" smooth="yes"/>
      <point x="628" y="1638"/>
      <point x="595" y="1508"/>
      <point x="590" y="1408" type="curve" smooth="yes"/>
      <point x="520" y="-180" type="line" smooth="yes"/>
      <point x="510" y="-380"/>
      <point x="418" y="-450"/>
      <point x="318" y="-450" type="curve" smooth="yes"/>
      <point x="198" y="-450"/>
      <point x="126" y="-375"/>
      <point x="120" y="-228" type="curve"/>
    </contour>
  </outline>
</glyph>
<glyph name="uni2235" format="2">
  <advance width="1198"/>
  <unicode hex="2235"/>
  <outline>
    <contour>
      <point x="890" y="986" type="curve" smooth="yes"/>
      <point x="890" y="1022"/>
      <point x="918" y="1050"/>
      <point x="954" y="1050" type="curve" smooth="yes"/>
      <point x="990" y="1050"/>
      <point x="1018" y="1022"/>
      <point x="1018" y="986" type="curve" smooth="yes"/>
      <point x="1018" y="950"/>
      <point x="990" y="922"/>
      <point x="954" y="922" type="curve" smooth="yes"/>
      <point x="918" y="922"/>
      <point x="890" y="950"/>
    </contour>
    <contour>
      <point x="180" y="986" type="curve" smooth="yes"/>
      <point x="180" y="1022"/>
      <point x="208" y="1050"/>
      <point x="244" y="1050" type="curve" smooth="yes"/>
      <point x="280" y="1050"/>
      <point x="308" y="1022"/>
      <point x="308" y="986" type="curve" smooth="yes"/>
      <point x="308" y="950"/>
      <point x="280" y="922"/>
      <point x="244" y="922" type="curve" smooth="yes"/>
      <point x="208" y="922"/>
      <point x="180" y="950"/>
    </contour>
    <contour>
      <point x="535" y="54" type="curve" smooth="yes"/>
      <point x="535" y="90"/>
      <point x="563" y="118"/>
      <point x="599" y="118" type="curve" smooth="yes"/>
      <point x="635" y="118"/>
      <point x="663" y="90"/>
      <point x="663" y="54" type="curve" smooth="yes"/>
      <point x="663" y="18"/>
      <point x="635" y="-10"/>
      <point x="599" y="-10" type="curve" smooth="yes"/>
      <point x="563" y="-10"/>
      <point x="535" y="18"/>
    </contour>
  </outline>
</glyph>
<glyph name="uni2238" format="2">
  <advance width="1198"/>
  <unicode hex="2238"/>
  <outline>
    <contour>
      <point x="180" y="640" type="line"/>
      <point x="1018" y="640" type="line"/>
      <point x="1018" y="680" type="line"/>
      <point x="180" y="680" type="line"/>
    </contour>
    <contour>
      <point x="535" y="1007" type="curve" smooth="yes"/>
      <point x="535" y="1043"/>
      <point x="563" y="1071"/>
      <point x="599" y="1071" type="curve" smooth="yes"/>
      <point x="635" y="1071"/>
      <point x="663" y="1043"/>
      <point x="663" y="1007" type="curve" smooth="yes"/>
      <point x="663" y="971"/>
      <point x="635" y="943"/>
      <point x="599" y="943" type="curve" smooth="yes"/>
      <point x="563" y="943"/>
      <point x="535" y="971"/>
    </contour>
  </outline>
</glyph>
<glyph name="uni223A" format="2">
  <advance width="1198"/>
  <unicode hex="223A"/>
  <outline>
    <contour>
      <point x="180" y="640" type="line"/>
      <point x="1018" y="640" type="line"/>
      <point x="1018" y="680" type="line"/>
      <point x="180" y="680" type="line"/>
    </contour>
    <contour>
      <point x="900" y="313" type="curve" smooth="yes"/>
      <point x="900" y="349"/>
      <point x="928" y="377"/>
      <point x="964" y="377" type="curve" smooth="yes"/>
      <point x="1000" y="377"/>
      <point x="1028" y="349"/>
      <point x="1028" y="313" type="curve" smooth="yes"/>
      <point x="1028" y="277"/>
      <point x="1000" y="249"/>
      <point x="964" y="249" type="curve" smooth="yes"/>
      <point x="928" y="249"/>
      <point x="900" y="277"/>
    </contour>
    <contour>
      <point x="900" y="1007" type="curve" smooth="yes"/>
      <point x="900" y="1043"/>
      <point x="928" y="1071"/>
      <point x="964" y="1071" type="curve" smooth="yes"/>
      <point x="1000" y="1071"/>
      <point x="1028" y="1043"/>
      <point x="1028" y="1007" type="curve" smooth="yes"/>
      <point x="1028" y="971"/>
      <point x="1000" y="943"/>
      <point x="964" y="943" type="curve" smooth="yes"/>
      <point x="928" y="943"/>
      <point x="900" y="971"/>
    </contour>
    <contour>
      <point x="170" y="313" type="curve" smooth="yes"/>
      <point x="170" y="349"/>
      <point x="198" y="377"/>
      <point x="234" y="377" type="curve" smooth="yes"/>
      <point x="270" y="377"/>
      <point x="298" y="349"/>
      <point x="298" y="313" type="curve" smooth="yes"/>
      <point x="298" y="277"/>
      <point x="270" y="249"/>
      <point x="234" y="249" type="curve" smooth="yes"/>
      <point x="198" y="249"/>
      <point x="170" y="277"/>
    </contour>
    <contour>
      <point x="170" y="1007" type="curve" smooth="yes"/>
      <point x="170" y="1043"/>
      <point x="198" y="1071"/>
      <point x="234" y="1071" type="curve" smooth="yes"/>
      <point x="270" y="1071"/>
      <point x="298" y="1043"/>
      <point x="298" y="1007" type="curve" smooth="yes"/>
      <point x="298" y="971"/>
      <point x="270" y="943"/>
      <point x="234" y="943" type="curve" smooth="yes"/>
      <point x="198" y="943"/>
      <point x="170" y="971"/>
    </contour>
  </outline>
</glyph>
